<?xml version="1.0" encoding="UTF-8"?>
<svg id="Layer_2" data-name="Layer 2" xmlns="http://www.w3.org/2000/svg" viewBox="0 0 3840 2160">
  <defs>
    <style>
      .cls-1 {
        fill: #45e68f;
      }

      .cls-2 {
        fill: #4cff9f;
      }
    </style>
  </defs>
  <g id="Layer_3" data-name="Layer 3">
    <rect class="cls-2" x="0" width="3840" height="2160"/>
    <g>
      <path class="cls-1" d="M3840,2066.42v-233.41c-37.35,53.73-77.1,106.58-119.22,158.55-47.95,59.16-97.56,115.3-148.79,168.44h189.16c27.14-30.54,53.42-61.74,78.85-93.58Z"/>
      <path class="cls-1" d="M1450.97,689.83c175.29,313.31,611.98,345.84,813.46,60.6,161.36-228.44,67.69-539.93-189.07-628.73-238.12-82.36-478.41,91.51-463.25,335.2,11.84,190.39,207.11,315.22,377.45,241.29,121.17-52.59,167.44-211.66,90.66-311.68-58.42-76.1-171.21-85.77-227.52-19.51-22.82,26.85-24.47,62.06-4.1,87.85,20.25,25.63,54.22,30.71,86.47,14.8,10.01-4.94,29.78-10.39,32.2-6.84,9.36,13.75,20.09,31.8,18.34,46.86-4.55,39.04-30.99,63.06-68.23,74.28-64.8,19.53-141.54-25.47-165.24-96.42-46.29-138.62,87.98-278.9,240.86-251.64,175.18,31.24,268.42,221.46,190.81,389.26-104.41,225.74-411.69,255.49-577.83,55.93-156.21-187.62-100.81-477.88,116.47-610.25,271.06-165.14,637.91,1.12,703.79,322.2,41.48,202.19-21.32,375.73-174.06,510.89-160.59,142.12-350.14,174.55-551.33,105.42C1272.5,862.14,1154.31,340.52,1458.01,0h-170.41c-206.11,309.14-168.39,738.1,124.86,994.83,390.01,341.43,990.84,174.26,1132.02-314.97,77.87-269.84-26.58-531.13-219.67-679.86h-732.17c-198.26,162.32-274.18,453-141.68,689.83Z"/>
      <path class="cls-1" d="M0,1954.03v205.97h186.81c-66.43-65.23-128.77-134.03-186.81-205.97Z"/>
      <path class="cls-1" d="M1962.49,1397.78c549.26-34.39,947.27-585.3,807.72-1118-27.43-104.72-72.67-198.51-131.11-279.78h-172.32c4.4,4.68,8.75,9.43,13.04,14.25,311.46,349.49,216.82,905.56-193.26,1146.92-502.57,295.8-1188.12-47.39-1222.27-674.27-9.76-179.22,32.05-345.65,111.95-486.9h-148.33c-51.64,107.58-84.72,225.91-94.48,351.32-46.65,599.68,429.61,1084,1029.06,1046.46Z"/>
      <path class="cls-1" d="M3536.12,1703.58c135.67-185.66,237.19-382.65,303.88-590.22V0h-97.89c51.15,191.12,69.94,394.08,55.92,608.13-35.41,540.8-260.29,995.67-673.4,1345.75-93.14,78.93-189.17,147.63-287.9,206.12h247.91c168.72-123.23,319.33-275.59,451.47-456.42Z"/>
      <path class="cls-1" d="M693.07,2160h244.2C528.19,1943.05,227.43,1596.85,46.52,1124.26c-17.24-45.04-32.74-90.13-46.52-135.28v366.46c158.06,332.72,391.88,600.11,693.07,804.56Z"/>
      <path class="cls-1" d="M0,1569.68v228.32c95.89,132.25,205.55,253.44,326.59,362h209.56C314.51,1991.15,135.15,1794.38,0,1569.68Z"/>
      <path class="cls-1" d="M3840,1381.07c-82.15,176.75-190.29,343.83-323.05,500.71-87.49,103.37-180.61,196.11-279.24,278.22h202.96c151.64-144.45,284.82-313.44,399.34-506.71v-272.22Z"/>
      <path class="cls-1" d="M3551.26,778.43c-135.26,745.83-707.78,1277.36-1400.16,1381.57h478.58c213.43-95.48,409.57-234.4,574.77-414.75C3666.21,1241.14,3819.6,652.99,3634.77,0h-133.5c78.1,245.25,98.38,511.56,49.99,778.43Z"/>
      <path class="cls-1" d="M3106.19,682.43c-110.45,687.22-746.98,1144.81-1431.27,1020.88C861.91,1556.08,414.71,743.9,682.34,0h-140.63c-66.04,211.93-85.13,442.1-47.08,676.07,107.8,662.82,674.09,1149.27,1328.01,1176.11,560.91,23.02,986.96-221.35,1262.81-710.24,203.88-361.33,220.73-781.47,71.03-1141.93h-145.81c96.35,205.4,134.31,441.03,95.51,682.43Z"/>
      <path class="cls-1" d="M1491.93,2129.77C603.66,1916.39,33.42,1080.66,172.11,177.01c9.2-59.97,21.29-119.02,36.12-177.01H66.33C1.23,269.89-.65,552.9,64.9,846.92c133.67,599.64,493.28,1027.85,1046.4,1289.68,17.07,8.08,34.22,15.88,51.43,23.4h485.13c-51.79-7.66-103.8-17.71-155.93-30.23Z"/>
      <path class="cls-1" d="M2883.12,637.61c-89.78,550.46-561.42,910.21-1115.69,851.01-508.92-54.36-919.22-498.91-932.96-1010.84-4.59-171.16,27.97-332.75,89.97-477.78h-142.9c-175.6,456.3-60.08,980.11,309.82,1317.57,414.66,378.29,1041.71,420.05,1476.55,85.6,350.76-269.78,506.58-634.4,442.13-1074.2-17.35-118.42-52.71-228.79-103.42-328.97h-155.11c115.52,185.12,168.79,409.63,131.61,637.61Z"/>
      <path class="cls-1" d="M3098.96,1304.67c-305.34,444.61-732.96,666.78-1272.49,642.27-505.17-22.95-908.27-252.12-1192.9-670.11C368.46,887.5,316.35,419.46,440.21,0h-139.98c-58.73,221.33-69.56,457.73-30.45,707.84,138.42,885.21,983.76,1492.59,1873.34,1356.33,731.6-112.07,1271.82-720.78,1330.57-1439.73,18.22-222.97-4.69-431.75-69.06-624.44h-146.85c163.16,425.8,110.62,912.33-158.82,1304.67Z"/>
    </g>
  </g>
</svg>