<svg width="26" height="26" viewBox="0 0 26 26" fill="none" xmlns="http://www.w3.org/2000/svg">
<path fill-rule="evenodd" clip-rule="evenodd" d="M25.8366 12.6748C25.8366 18.8545 21.553 24.0273 15.8113 25.3494C15.9058 25.117 15.9579 24.8628 15.9579 24.5965V17.9579C15.9579 16.8533 15.0625 15.9579 13.9579 15.9579H11.8787C10.7741 15.9579 9.87869 16.8533 9.87869 17.9579V24.5965C9.87869 24.8628 9.93075 25.117 10.0252 25.3494C4.28354 24.0273 0 18.8545 0 12.6748C0 6.4948 4.28392 1.32185 10.026 0V7.76391C10.026 8.86848 10.9214 9.76391 12.026 9.76391H14.1959C15.3005 9.76391 16.1959 8.86848 16.1959 7.76391V0.0950418C21.7433 1.55515 25.8366 6.63385 25.8366 12.6748Z" fill="#4CFF9F"/>
</svg>
