<?xml version="1.0" encoding="UTF-8"?>
<svg id="Layer_2" data-name="Layer 2" xmlns="http://www.w3.org/2000/svg" viewBox="0 0 1746.32 342.07">
  <defs>
    <style>
      .cls-1 {
        fill: #fcfcfc;
      }

      .cls-2 {
        fill: #fff;
      }
    </style>
  </defs>
  <g id="Layer_2-2" data-name="Layer 2">
    <g>
      <path d="M974.64,191.81c4.08,1.33,8.28.56,12.62-2.33,4.33-2.89,6.5-6.52,6.5-10.89,0-2.89-1.24-5.52-3.72-7.89-2.48-2.37-6.28-3.59-11.39-3.67-4.6,0-7.19,1.15-7.78,3.45-.89,3.11-1.02,7.28-.39,12.51.63,5.22,2.02,8.17,4.17,8.84Z"/>
      <path d="M869.59,46.9c-3.15-.52-5.92.16-8.32,2.05-2.4,1.89-3.82,4.28-4.27,7.17-.6,3.49.37,6.57,2.92,9.25,2.55,2.68,5.7,3.8,9.45,3.35,2.59-.26,4.74-1.27,6.47-3.04,1.72-1.76,2.79-3.86,3.21-6.3.52-3.22-.08-5.97-1.83-8.24-1.74-2.27-4.28-3.68-7.62-4.25Z"/>
      <path d="M990.54,229.33c-5.86-3-11.23-3.39-16.12-1.17-2.52,1.19-3.8,4.98-3.84,11.39-.04,6.41.83,11.51,2.61,15.28,1.78,4,7.15,4.76,16.12,2.28,8.96-2.48,12.78-7.5,11.45-15.06-.96-5.48-4.37-9.73-10.23-12.73Z"/>
      <path d="M835.85,180.81c-3.52-2.82-8.99-3.82-16.4-3-6.08.67-8.47,6.06-7.17,16.17,1.3,10.12,5.02,14.84,11.17,14.17,5.63-.59,10.01-2.67,13.12-6.23,3.11-3.56,4.65-7.26,4.61-11.12-.04-3.85-1.82-7.19-5.33-10Z"/>
      <path d="M546.15,203.26c-4.85-4.22-9.95-6.6-15.28-7.11-2.15-.15-4.32.02-6.5.5-2.19.48-3.61,1.87-4.28,4.17-1.26,4.08-1.54,10.06-.83,17.95.7,7.89,2.35,12.54,4.95,13.95,1.18.74,3.56,1.04,7.11.89,5.78-.15,10.67-1.46,14.67-3.95,4-2.48,6.23-6.17,6.67-11.06.52-6-1.65-11.12-6.5-15.34Z"/>
      <path d="M1741.95,202.11c-6.88-25.11-20.06-45.67-39.19-61.12l-.17-.13c-14.97-11.89-33.14-19.44-54.03-22.41-18.55-2.64-36.23-2.83-52.52-.57l-.17.02c-12.53,1.82-22.28,5-29.81,9.73-6.84,4.26-11.42,10.41-14.57,17.63-2.34-2.42-4.84-4.71-7.53-6.84-13.97-11.05-29.99-18.45-47.61-22-16.47-3.31-33.23-3.74-49.83-1.3-17.01,2.51-30.67,6.75-41.75,12.95l-.14.07c-8.46,4.8-12.34,12.32-14.24,18.57-3.72-6.53-7.38-11.45-11.23-15.16l-.42-.4c-1.89-1.75-3.96-3.3-6.21-4.68,1.6-2.25,2.95-4.87,3.91-7.94l.17-.58c1.79-6.19,2.27-13.38,1.53-23.33-.53-7.12-1.38-18.55-9.23-27.04,1.09-1.89,1.98-3.91,2.63-6.04l.14-.48c1.62-5.66,2.27-12.31,2.08-20.94-.17-7.11-.46-20.15-10.65-29.27-7.72-7.04-17.19-8.15-26.27-8.67-6.2-.35-12.98-.48-20.15-.38-7.06.1-13.76.38-19.92.83-9.91.72-16.01,1.74-21.88,5.25-.71.42-1.45.91-2.19,1.46-1.32-.64-2.67-1.27-4.06-1.86-5.53-2.32-12.18-3.87-20.32-4.74-6.93-.74-13.92-.9-20.79-.46-7.66.48-14.72,1.78-20.98,3.85-1.73.57-3.39,1.24-4.97,1.99-3.95-2.57-8.8-4.77-14.76-5.25l-.37-.03c-11.42-.76-20.62,4.73-27.6,10.19-6.87-5.3-15.9-10.68-26.95-10.1l-.68.04c-5.1.39-9.43,2.09-13.03,4.17-1.78-.88-3.71-1.68-5.84-2.38-6.1-1.99-12.65-3.09-19.48-3.27-6.77-.17-13.24.52-19.21,2.08-1.59.42-3.09.9-4.51,1.44-1.42-.53-2.94-.99-4.55-1.4-5.99-1.52-12.44-2.18-19.19-1.97-6.88.21-13.44,1.35-19.51,3.4-8.26,2.78-14.79,7.71-18.98,14.03-5.83-10.51-15.36-13.94-18.85-14.87l-.24-.06c-3.02-.78-6.47-1.28-16.9-1.86-7.07-.39-14.67-.52-22.57-.38-8.46.16-16.36.79-23.49,1.89-5.79.9-10.6,2.31-14.7,4.34-1.62.79-3.13,1.71-4.55,2.71-9.12-5.01-19.55-8.09-30.98-9.08-18.66-1.64-36.01,3.81-50.17,15.78-8.35,7.05-14.82,15.49-19.21,24.93,0-.77,0-1.55-.03-2.36-.17-7.11-.46-20.15-10.65-29.27-7.72-7.04-17.19-8.15-26.27-8.67-6.2-.35-12.98-.48-20.15-.38-7.06.1-13.76.38-19.92.83-9.34.68-15.3,1.62-20.86,4.67-5.07-2.78-10.53-4.81-16.32-6.01-8.32-1.72-16.92-1.74-25.54-.06-6.47,1.26-12.51,3.48-18.07,6.58-2.8-1.28-6.04-2.34-9.8-3.05-4.88-.91-10.07-1.36-15.42-1.33-5.32.02-10.37.5-15.01,1.39-3.55.69-6.62,1.69-9.28,2.9-2.57-1.29-5.49-2.35-8.79-3.13-4.34-1.01-9.17-1.68-14.35-1.94-4.95-.26-9.83-.15-14.52.32-3.33.34-12.99,1.31-21.05,8.02-9.19-5.1-19.71-8.24-31.27-9.23-14.08-1.24-27.4,1.57-39.18,8.15-2.89-2-6.39-3.77-10.59-5.14-6.1-1.99-12.65-3.09-19.48-3.27-6.77-.18-13.24.52-19.21,2.08-1.59.42-3.09.9-4.51,1.44-1.42-.53-2.94-.99-4.55-1.4-5.99-1.52-12.45-2.18-19.19-1.97-6.88.21-13.44,1.35-19.51,3.4-13.76,4.63-22.74,15.21-24.03,28.29l-.05.48c-.24,2.95-.39,7.64.26,20.1.45,8.57,1.12,17.59,2,26.82.9,9.43,1.97,18.1,3.2,25.77.63,3.91,1.43,8.92,3.24,13.93-4.84.78-9.49,1.75-13.88,2.93-9.35,2.51-20.95,6.8-27.74,17.72l-.22.36c-1.79,3-3.6,6.55-5.46,10.75-1.28-9.23-4.23-17.8-11.29-24.12-8.1-7.45-18.92-9.42-35.7-10.38-11.62-.66-24.4-.9-37.95-.71-13.43.2-26.16.72-37.82,1.57-17.81,1.3-25.18,2.86-31.56,6.69-8.66,5.2-14.29,14.01-16.75,26.19-1.2,5.96-1.82,12.46-1.86,19.33-.46,10.19-.6,22.83-.45,38.65.02,2.23.06,4.44.09,6.67-.68.03-1.37.07-2.08.12-3.29.21-6.64.42-10.03.62-.1-5.43-.2-11.22-.28-17.35-.16-10.33-.32-20.32-.5-29.71-.28-13.8-.69-19.04-.98-21.79l-.1-.84c-1.42-10.33-8.1-18.99-18.32-23.75-4.07-1.9-8.72-3.26-14.67-4.29-8.39-1.45-17.56-2.16-27.26-2.12-9.89.05-19.27.96-27.87,2.72-26.61,5.44-31.48,22.68-32.32,30.25-.46,3.96-1.07,11.85-1.23,34.16-.11,16.06.08,33.18.57,50.86.5,18,1.47,34.8,2.89,49.92,2.14,22.75,5.69,34.13,13.13,42,9.62,10.19,24.3,12.66,37.39,13.75,9.92.82,20.65,1.23,31.99,1.23,1.85,0,3.7,0,5.58-.03,13.11-.16,25.75-.68,37.57-1.58,16.86-1.27,23.38-2.5,27.12-3.45,1.42-.35,2.79-.8,4.12-1.34.71.36,1.44.72,2.21,1.04,7.38,3.11,17.27,4.59,34.02,5.09,5.21.16,10.56.24,15.98.24,8.13,0,16.48-.17,24.95-.53,14.41-.59,27.67-1.74,39.41-3.41,4.86-.69,8.92-1.46,12.47-2.36,8.68,4.86,19.51,5.68,30.75,6.01,16.85.5,23.43-.09,28.17-1.12,6.83-1.52,12.76-4.92,17.22-9.9,3.35-3.62,6.38-8.49,10.48-16.82.31-.64.62-1.26.93-1.88,3.22,8.93,8.27,18.83,17.82,24.78,3.96,2.48,8.31,4.1,12.93,4.81l.87.12c1.74.21,3.86.35,7.13.35,3.57,0,8.53-.17,15.86-.58,10.78-.62,19.71-1.55,27.36-2.86,3.43-.59,6.61-1.47,9.55-2.62,5.05,2.03,11.37,3.48,19.73,4.53,7.09.89,14.51,1.42,22.07,1.59h.2c.9.02,1.8.02,2.71.02,22.16,0,43.6-4.12,63.78-12.27,10.67-4.31,20.12-10.2,28.3-17.63,2.65,9.72,7.8,19.7,19.21,24.45,7.38,3.11,17.28,4.59,34.02,5.09,5.21.16,10.56.24,15.98.24,8.13,0,16.48-.17,24.95-.53,14.41-.59,27.67-1.74,39.41-3.41,7.25-1.04,12.77-2.24,17.36-3.78,4.13,3.29,8.98,5.55,14.29,6.56,3.56.71,8.46,1.18,19.29,1.18,1.11,0,2.29,0,3.52-.02,9.97-.08,19.06-.54,27.08-1.38,13.06-1.4,21.27-6.28,26.4-11.59,9.58,6.14,23.73,13.65,39,11.28,9.12-1.2,15.74-6.6,19.75-10.57,2.69,2.85,5.99,5.23,10.08,6.94,5.9,2.49,13.32,3.85,24.71,4.55,8.33.51,17.29.79,26.62.83,1.53,0,3.04,0,4.53,0,7.4,0,14.5-.08,21.13-.24,10.96-.26,15.28-.59,17.74-.86,18.61-1.79,34.81-8.99,48.18-21.41,4.3-4,8.1-8.28,11.43-12.84,16.97,18.04,38.66,29.35,64.68,33.69,7.17,1.19,14.17,1.79,20.99,1.79,24.11,0,46.05-7.42,65.44-22.2,1.52-1.15,2.99-2.33,4.43-3.52,1.5,4.69,3.98,8.99,7.36,12.73,9.42,10.74,23.72,12.06,38.78,12.5,16.85.5,23.43-.09,28.17-1.12,6.83-1.52,12.75-4.92,17.21-9.89,3.36-3.63,6.38-8.5,10.49-16.82.31-.63.62-1.26.93-1.88,3.22,8.93,8.27,18.83,17.82,24.78,3.96,2.49,8.31,4.11,12.94,4.81l.87.12c1.74.21,3.86.35,7.13.35,3.58,0,8.53-.17,15.86-.58,10.78-.62,19.71-1.55,27.36-2.86,1.41-.24,2.77-.54,4.1-.88,2.79,1.46,5.8,2.51,8.98,3.11,3.55.71,8.45,1.18,19.29,1.18,1.11,0,2.28,0,3.52-.02,9.97-.08,19.05-.54,27.07-1.38,13.07-1.4,21.28-6.28,26.41-11.59,9.58,6.14,23.74,13.65,39,11.28,11.39-1.49,18.88-9.55,22.27-13.19.28-.3.56-.61.84-.92,3.35,3.98,7.5,7.23,12.71,9.42,5.19,2.22,11.75,3.78,20.61,4.89,7.09.89,14.51,1.42,22.07,1.59h.2c.9.02,1.8.02,2.7.02,22.16,0,43.61-4.12,63.79-12.27,24.54-9.91,42.61-28.17,53.72-54.29,9.82-23.1,11.26-47.77,4.26-73.33ZM153.24,285.36c-.89,6.71-2.6,10.36-5.11,10.95-3.78.96-11.32,1.87-22.62,2.72-11.3.85-23.25,1.35-35.85,1.5-12.6.15-24.27-.22-35.02-1.11-10.75-.89-17.38-2.67-19.9-5.34-2.52-2.67-4.47-11.3-5.84-25.9-1.37-14.6-2.3-30.64-2.78-48.13-.48-17.49-.67-34.13-.55-49.91.11-15.79.46-26.23,1.06-31.35.3-3.04,3.89-5.26,10.78-6.67,6.89-1.41,14.41-2.13,22.57-2.17,8.15-.04,15.66.54,22.51,1.72,6.85,1.19,10.43,2.85,10.73,5,.37,3.48.65,9.97.83,19.45.18,9.49.35,19.34.5,29.57.15,10.23.31,19.47.5,27.74.18,8.26.46,12.91.83,13.95.52,1.71,2.98,2.65,7.39,2.83,4.41.19,9.34.13,14.79-.17,5.45-.3,10.69-.61,15.73-.94,5.04-.33,8.48-.2,10.34.39,2.67.89,4.84,4.76,6.5,11.62,1.67,6.86,2.74,14.27,3.22,22.23.48,7.97.28,15.3-.61,22.01ZM288.97,290.97c-.74,2.37-6.56,4.34-17.45,5.89-10.89,1.56-23.12,2.61-36.68,3.17-13.56.56-26.57.65-39.02.28-12.45-.37-20.57-1.37-24.35-3-2.22-.89-4.06-6.87-5.5-17.95-1.45-11.08-2.58-24.05-3.39-38.91-.82-14.86-1.3-30.02-1.45-45.47-.15-15.45,0-28.03.45-37.74,0-5.34.44-10.21,1.33-14.62.89-4.41,2.26-7.17,4.11-8.28,1.85-1.11,8.37-2.07,19.57-2.89,11.19-.82,23.27-1.32,36.24-1.5,12.97-.18,24.97.04,36.02.67,11.04.63,17.38,1.76,19.01,3.39,2,1.63,3.13,8.06,3.39,19.29.26,11.23-.43,19.7-2.06,25.4-.82,2.67-6.02,4.32-15.62,4.95-9.6.63-20.81,1.17-33.63,1.61,0,.89.04,1.93.11,3.11.07,1.19.15,2.22.22,3.11,8.37.15,15.19.78,20.45,1.89,1.26.37,2.5,2.58,3.72,6.61,1.22,4.04,2.07,8.45,2.56,13.23.48,4.78.46,9.21-.06,13.28-.52,4.08-1.82,6.26-3.89,6.56-1.48.44-4.17.83-8.06,1.17-3.89.33-8.21.57-12.95.72v6.56c12.97-.15,24.68-.52,35.13-1.11,10.45-.59,16.6.11,18.45,2.11,2,1.63,3.46,8.71,4.39,21.23.93,12.53.57,21.6-1.06,27.24ZM1284.48,28.56c0-2.7.22-5.16.67-7.4.45-2.23,1.14-3.63,2.08-4.19.94-.56,4.24-1.05,9.9-1.46,5.66-.41,11.77-.67,18.33-.76,6.56-.09,12.64.02,18.22.34,5.59.32,8.79.89,9.62,1.72,1.01.83,1.58,4.08,1.72,9.76.13,5.68-.22,9.96-1.04,12.85-.41,1.35-3.05,2.18-7.9,2.5-4.86.32-10.53.59-17.01.82,0,.45.02.98.06,1.57.04.6.07,1.12.11,1.57,4.24.08,7.69.39,10.35.96.64.19,1.27,1.3,1.88,3.35.62,2.04,1.05,4.27,1.29,6.69.24,2.42.23,4.66-.03,6.72-.26,2.06-.92,3.17-1.97,3.32-.75.23-2.11.42-4.08.59-1.97.17-4.15.29-6.55.37v3.32c6.56-.07,12.49-.26,17.77-.56,5.29-.3,8.4.06,9.34,1.07,1.01.83,1.75,4.41,2.22,10.74.47,6.34.29,10.93-.53,13.78-.38,1.2-3.32,2.19-8.83,2.98-5.51.79-11.7,1.32-18.56,1.6-6.86.28-13.44.33-19.74.14-6.3-.19-10.4-.69-12.32-1.52-1.12-.45-2.05-3.48-2.78-9.08-.73-5.6-1.3-12.17-1.72-19.68-.41-7.52-.66-15.19-.73-23-.08-7.82,0-14.18.23-19.09ZM1206.98,23.56c.26-2.55,2.43-4.5,6.5-5.85,4.07-1.35,8.78-2.19,14.14-2.53,5.36-.34,10.76-.22,16.2.37,5.44.58,9.67,1.51,12.71,2.78,16.01,6.75,22.7,18.62,20.08,35.6-1.31,8.32-5.1,15.28-11.36,20.87-6.26,5.59-13.74,7.99-22.44,7.2-.34,4.31-.74,7.95-1.21,10.91-.47,2.96-.98,4.78-1.55,5.46-.79,1.46-4.63,2.34-11.53,2.64-6.9.3-11.77-.17-14.62-1.41-1.27-.56-2.41-4.32-3.4-11.28-.99-6.95-1.8-14.78-2.42-23.48-.62-8.7-1.02-17.07-1.21-25.11-.19-8.04-.15-13.43.11-16.17ZM1237.83,239.58c-12.66,46.3-60.63,73.67-106.93,61.02-22.43-6.13-41.13-20.63-52.65-40.83-11.52-20.2-14.49-43.67-8.36-66.1,6.13-22.43,20.63-41.13,40.83-52.65,13.32-7.6,28.07-11.48,43.01-11.48,7.7,0,15.46,1.03,23.09,3.12,46.3,12.66,73.68,60.62,61.02,106.93ZM1114.8,33.12c1.54-2.47,3.39-4.98,5.57-7.51,2.17-2.53,4.36-4.77,6.55-6.72,2.19-1.95,3.78-2.96,4.75-3.04,2.17-.11,5.63,1.75,10.38,5.6,4.74,3.84,9.81,8.35,15.21,13.53,5.44-5.17,10.53-9.71,15.27-13.61,4.74-3.9,8.24-5.77,10.49-5.62.94.08,2.5,1.04,4.7,2.9,2.19,1.86,4.39,3.98,6.58,6.38,2.19,2.4,4.07,4.78,5.62,7.14,1.55,2.36,2.18,4.07,1.88,5.12-.26,1.73-2.76,5.5-7.51,11.33-4.74,5.83-10.43,11.95-17.07,18.36-.38,7.87-1.06,14.94-2.05,21.2-.99,6.26-1.9,9.94-2.73,11.02-.45.53-1.98.94-4.58,1.24-2.61.3-5.46.49-8.55.56-3.09.08-6,.08-8.72,0-2.72-.07-4.36-.28-4.92-.62-1.24-.67-2.52-4.13-3.85-10.38-1.33-6.24-2.35-13.28-3.07-21.12-6.94-6.52-12.93-12.79-17.97-18.78-5.04-6-7.68-9.9-7.9-11.7-.26-1.05.37-2.81,1.91-5.29ZM917.95,21.08c.3-2.17,3.43-3.72,9.39-4.64,5.96-.92,12.58-1.44,19.85-1.57,7.27-.13,14.14-.02,20.58.34,6.45.36,10.33.7,11.64,1.04,1.69.45,2.76,2.33,3.23,5.65.47,3.32.53,6.89.17,10.71-.36,3.82-1.03,7.3-2.02,10.43-.99,3.13-2.09,4.75-3.29,4.86-2.81.3-6.19.45-10.12.45s-8.01-.07-12.2-.22v5.51c4.27.08,8.21.25,11.81.53,3.6.28,6.07.59,7.42.93,1.27.38,2.09,1.88,2.45,4.53.36,2.64.39,5.51.11,8.61-.28,3.09-.81,5.94-1.6,8.55-.79,2.61-1.67,4.02-2.64,4.25-2.25.56-5,.96-8.24,1.18-3.24.23-6.59.32-10.04.28-.6,9.26-1.48,14.62-2.64,16.08-.83,1.46-4.55,2.28-11.19,2.45-6.64.17-11.4-.4-14.29-1.72-.94-.41-2-3.98-3.18-10.71-1.18-6.73-2.25-14.43-3.21-23.11-.96-8.68-1.65-17.27-2.08-25.76-.43-8.49-.4-14.71.08-18.64ZM681.18,71.53c-.41-.82-1.54-1.5-3.37-2.02-4.39-1.27-8.75-2.24-13.1-2.9-4.35-.66-8.47-2.43-12.37-5.31-2.81-2.02-5.02-4.8-6.61-8.32-1.59-3.52-2.13-8.19-1.6-14,.75-7.84,4.52-14.29,11.3-19.35,3.97-2.96,8.51-4.94,13.61-5.93,5.1-.99,10.05-.99,14.85,0,4.8.99,9.12,2.98,12.96,5.96,3.84,2.98,6.5,6.95,7.96,11.9.56,1.91.03,3.55-1.6,4.92-1.63,1.37-3.66,2.5-6.1,3.4-2.44.9-4.93,1.57-7.48,2.02-2.55.45-4.46.69-5.74.73-.79.08-1.5-.13-2.14-.62-.79-.56-1.19-1.18-1.21-1.86-.02-.67-.4-1.31-1.15-1.91-1.88-1.46-4.26-1.2-7.14.79-2.89,1.99-1.69,3.52,3.6,4.61.56.11,1.18.23,1.86.37.68.13,1.37.25,2.08.37,8.62,1.5,15.43,4.07,20.42,7.7,6.15,4.5,9.68,10.38,10.6,17.63.92,7.26-1.1,13.75-6.05,19.49-5.85,6.79-13.77,10.68-23.76,11.67-9.99.99-18.63-1.1-25.9-6.27-6.26-4.39-10.18-9.92-11.75-16.59-.68-3.15.9-5.59,4.72-7.31,1.69-.79,3.55-1.35,5.6-1.69,2.04-.34,4-.52,5.88-.56,3.07,0,5.85.37,8.32,1.1,2.47.73,3.88,1.77,4.22,3.12.04.26.13.53.28.79.41.94,1.2,1.63,2.36,2.08,1.39.56,3.01.48,4.87-.25,1.86-.73,2.39-1.98,1.6-3.74ZM457.96,51.29c1.76-10.8,6.98-19.86,15.66-27.19,8.68-7.33,18.78-10.49,30.29-9.48,13.87,1.2,24.66,6.47,32.37,15.8,7.7,9.34,10.49,20.58,8.35,33.74-1.95,11.81-7.68,21.33-17.18,28.57-9.5,7.24-20.56,9.8-33.15,7.7-12.15-2.02-21.71-7.82-28.68-17.38-6.97-9.56-9.52-20.15-7.65-31.78ZM373.03,21.82c.23-2.29,2.12-4.03,5.68-5.23,3.56-1.2,7.46-1.86,11.7-2,4.24-.13,8.14.25,11.7,1.15,3.56.9,5.46,2.29,5.68,4.16.34,3.19.61,6.97.81,11.33.21,4.37.35,8.97.42,13.81,3.19-.15,6.52-.26,10.01-.34-.15-4.8-.22-9.35-.2-13.64.02-4.29.14-8.01.37-11.16.11-1.91,1.93-3.33,5.46-4.25,3.52-.92,7.4-1.32,11.64-1.21,4.24.11,8.16.76,11.78,1.94,3.62,1.18,5.6,2.92,5.93,5.2.37,2.78.52,8.28.42,16.51-.09,8.23-.38,16.8-.84,25.7-.47,8.91-1.12,16.92-1.97,24.04-.84,7.12-1.83,10.97-2.95,11.53-2.62,1.28-7.11,1.77-13.47,1.49-6.35-.28-9.93-1.15-10.71-2.62-.6-.79-1.2-3.06-1.8-6.83-.6-3.77-1.14-8.35-1.63-13.75-2.1.41-4.23.78-6.38,1.1-2.16.32-4.27.61-6.33.87-.3,4.91-.66,9.06-1.07,12.43-.41,3.37-.86,5.46-1.35,6.24-.71,1.46-4.25,2.35-10.6,2.67-6.36.32-10.88-.14-13.58-1.38-1.2-.56-2.37-4.41-3.51-11.56-1.14-7.14-2.14-15.16-2.98-24.04-.84-8.89-1.48-17.44-1.91-25.67-.43-8.23-.53-13.73-.31-16.51ZM460.83,293.92c-1.56,1.74-4.26,2.95-8.12,3.61-6.52,1.11-14.62,1.95-24.29,2.5-9.67.56-15.73.68-18.18.39-.96-.15-1.85-.48-2.67-1-2.67-1.63-5.24-6.32-7.72-14.06-2.48-7.74-4.91-13.06-7.28-15.95-1.41-1.7-3.26-2.7-5.56-3l-18.23-.11c-5.71.15-9.41,2.04-11.12,5.67-2.22,4.67-4.74,9.86-7.56,15.56-2.82,5.71-4.89,9.23-6.22,10.56-.67.82-1.67,1.37-3,1.67-3.04.67-10.21.83-21.51.5-11.3-.33-17.73-1.46-19.29-3.39-1.41-1.48-2.15-3.3-2.22-5.45-.15-7.19,1.11-18.01,3.78-32.46,2.67-14.45,6-29.48,10-45.08,4-15.6,8.24-30.22,12.73-43.85,4.48-13.64,8.39-23.23,11.73-28.79,1.33-2.15,5.24-4.09,11.73-5.84,6.48-1.74,13.65-2.95,21.51-3.61,7.85-.67,15.41-.65,22.68.06,7.26.71,12.34,2.39,15.23,5.06,4.15,4,9.06,12.78,14.73,26.35,5.67,13.56,11.21,28.33,16.62,44.3,5.41,15.97,10.26,31.29,14.56,45.97,4.3,14.67,7.15,25.05,8.56,31.13.96,4.45.67,7.54-.89,9.28ZM604.13,250.62c-8.23,19.34-21.2,32.59-38.91,39.74-17.71,7.15-36.35,10.58-55.92,10.28-6.67-.15-13.1-.61-19.29-1.39-6.19-.78-10.66-1.76-13.4-2.95-4.3-1.78-7.75-10.62-10.34-26.51-2.6-15.9-4.15-33.29-4.67-52.19-.52-18.9,0-36.5,1.56-52.8,1.56-16.3,4.45-25.75,8.67-28.35,4.23-2.67,10.67-4.63,19.34-5.89,13.86-1.93,28.85-1.74,44.97.56,16.12,2.3,29.77,7.89,40.97,16.79,14.67,11.86,24.7,27.59,30.07,47.19,5.37,19.6,4.35,38.11-3.06,55.53ZM598.95,101c-9.82.67-18.97-1.73-27.44-7.23-8.47-5.49-14.34-12.79-17.6-21.91-1.09-2.96-1.87-7.22-2.33-12.77-.47-5.55-.68-11.17-.65-16.87.04-5.7.37-10.88,1.01-15.55.64-4.67,1.57-7.62,2.81-8.86,1.05-1.01,3.24-1.69,6.58-2.02,3.34-.34,6.8-.41,10.38-.23,3.58.19,6.77.61,9.56,1.27,2.79.66,4.19,1.49,4.19,2.5-.08,2.92-.32,7.02-.73,12.29-.41,5.27-.52,10.52-.31,15.75.21,5.23.99,9.84,2.36,13.84,1.37,3.99,3.82,6.18,7.34,6.55,3.83.45,6.57-1.3,8.24-5.26,1.67-3.96,2.76-8.66,3.26-14.12.51-5.46.68-10.94.51-16.45s-.16-9.6.03-12.26c.04-1.01,1.56-1.81,4.56-2.39,3-.58,6.33-.88,9.98-.9,3.66-.02,7.09.27,10.29.87,3.21.6,5.09,1.57,5.65,2.92.79,1.99,1.34,5.44,1.66,10.35.32,4.91.37,10.26.17,16.03-.21,5.77-.71,11.44-1.52,16.98-.81,5.55-1.94,9.94-3.4,13.16-3.15,6.9-7.75,12.52-13.81,16.87-6.06,4.35-12.98,6.82-20.78,7.42ZM750.87,290.97c-.74,2.37-6.56,4.34-17.45,5.89-10.89,1.56-23.12,2.61-36.68,3.17-13.56.56-26.57.65-39.02.28-12.45-.37-20.57-1.37-24.35-3-2.22-.89-4.06-6.87-5.5-17.95-1.45-11.08-2.58-24.05-3.39-38.91-.82-14.86-1.3-30.02-1.45-45.47-.15-15.45,0-28.03.45-37.74,0-5.34.44-10.21,1.33-14.62.89-4.41,2.26-7.17,4.11-8.28,1.85-1.11,8.37-2.07,19.57-2.89,11.19-.82,23.27-1.32,36.24-1.5,12.97-.18,24.97.04,36.02.67,11.04.63,17.38,1.76,19.01,3.39,2,1.63,3.13,8.06,3.39,19.29.26,11.23-.43,19.7-2.06,25.4-.82,2.67-6.02,4.32-15.62,4.95-9.6.63-20.81,1.17-33.63,1.61,0,.89.04,1.93.11,3.11.07,1.19.15,2.22.22,3.11,8.37.15,15.19.78,20.45,1.89,1.26.37,2.5,2.58,3.72,6.61,1.22,4.04,2.07,8.45,2.56,13.23.48,4.78.46,9.21-.06,13.28-.52,4.08-1.82,6.26-3.89,6.56-1.48.44-4.17.83-8.06,1.17-3.89.33-8.21.57-12.95.72v6.56c12.97-.15,24.68-.52,35.13-1.11,10.45-.59,16.6.11,18.45,2.11,2,1.63,3.46,8.71,4.39,21.23.93,12.53.57,21.6-1.06,27.24ZM752.94,100.81c-6.86.28-13.44.33-19.74.14-6.3-.19-10.4-.69-12.32-1.52-1.12-.45-2.05-3.48-2.78-9.08-.73-5.6-1.3-12.17-1.72-19.68-.41-7.52-.66-15.19-.73-23-.08-7.82,0-14.18.23-19.09,0-2.7.22-5.16.67-7.4.45-2.23,1.14-3.63,2.08-4.19.94-.56,4.24-1.05,9.9-1.46,5.66-.41,11.77-.67,18.33-.76,6.56-.09,12.64.02,18.22.34,5.59.32,8.79.89,9.62,1.72,1.01.83,1.58,4.08,1.72,9.76.13,5.68-.22,9.96-1.04,12.85-.41,1.35-3.05,2.18-7.9,2.5-4.86.32-10.53.59-17.01.82,0,.45.02.98.06,1.57.04.6.07,1.12.11,1.57,4.24.08,7.69.39,10.35.96.64.19,1.27,1.3,1.88,3.35.62,2.04,1.05,4.27,1.29,6.69.24,2.42.23,4.66-.03,6.72s-.92,3.17-1.97,3.32c-.75.23-2.11.42-4.08.59-1.97.17-4.15.29-6.55.37v3.32c6.56-.07,12.49-.26,17.77-.56,5.29-.3,8.4.06,9.34,1.07,1.01.83,1.75,4.41,2.22,10.74.47,6.34.29,10.93-.53,13.78-.38,1.2-3.32,2.19-8.83,2.98-5.51.79-11.7,1.32-18.56,1.6ZM904.27,270.52c-2.45,4.22-5.26,8.45-8.45,12.67-3.19,4.22-6.26,7.93-9.23,11.12-2.96,3.19-5,4.78-6.11,4.78-4.82.96-11.84-1.54-21.06-7.5-9.23-5.96-16.66-9.91-22.29-11.84-5.49-1.7-8.45-1-8.89,2.11.07,5.34-.41,9.41-1.45,12.23-1.04,2.82-4.67,4.56-10.89,5.22-7.11.74-15.25,1.15-24.4,1.22-9.15.07-14.95-.15-17.4-.67-1.71-.3-3.08-1.26-4.11-2.89-1.48-2-3.08-11.19-4.78-27.57-1.71-16.38-3.04-34.13-4-53.25-.96-19.12-1.39-36.69-1.28-52.69.11-16.01,1.28-24.64,3.5-25.9,8.08-4.52,18.9-7.78,32.46-9.78,13.56-2,27.07-1.65,40.52,1.06,13.45,2.71,25.49,8.26,36.13,16.67,10.63,8.41,17.14,20.73,19.51,36.96,3.04,21.64-1.19,37.24-12.67,46.8,7.56,6.3,14.19,12.41,19.9,18.34,5.71,5.93,8.6,10.38,8.67,13.34,0,2.15-1.22,5.34-3.67,9.56ZM911.32,64.16c-1.95,11.81-7.68,21.33-17.18,28.57-9.5,7.24-20.56,9.8-33.15,7.7-12.15-2.02-21.71-7.82-28.68-17.38-6.97-9.56-9.52-20.15-7.65-31.78,1.76-10.8,6.98-19.86,15.66-27.19,8.68-7.33,18.78-10.49,30.29-9.48,13.87,1.2,24.66,6.47,32.37,15.8,7.7,9.34,10.49,20.58,8.35,33.74ZM1056.02,255.51c-2.74,11.56-8.6,21.51-17.56,29.85-8.97,8.34-19.79,13.1-32.46,14.28-2.67.3-7.88.54-15.62.72-7.75.19-16.05.26-24.9.22-8.86-.04-17.21-.3-25.07-.78-7.86-.48-13.16-1.31-15.9-2.5-2.6-1.04-4.6-8.6-6-22.68-1.41-14.08-2.33-29.88-2.78-47.41-.44-17.53-.48-34.42-.11-50.69.37-16.27,1.07-27.14,2.11-32.63.67-3.48,4.39-6.56,11.17-9.23,6.78-2.67,14.99-4.5,24.62-5.5,9.63-1,19.88-.98,30.74.06,10.86,1.04,20.73,3.48,29.63,7.34,12.97,5.78,21.64,15.27,26.01,28.46,4.37,13.19,2.85,25.57-4.56,37.13l.33.22c9.78,5.93,16.25,13.64,19.4,23.12,3.15,9.49,3.46,19.49.95,30.02ZM1049.53,100.97c-6.36.32-10.88-.14-13.58-1.38-1.2-.56-2.37-4.41-3.51-11.56-1.14-7.14-2.14-15.16-2.98-24.04-.84-8.89-1.48-17.44-1.91-25.67-.43-8.23-.53-13.73-.31-16.51.23-2.29,2.12-4.03,5.68-5.23,3.56-1.2,7.46-1.86,11.7-2,4.24-.13,8.14.25,11.7,1.15,3.56.9,5.46,2.29,5.68,4.16.34,3.19.61,6.97.81,11.33.21,4.37.35,8.97.42,13.81,3.19-.15,6.52-.26,10.01-.34-.15-4.8-.22-9.35-.2-13.64.02-4.29.14-8.01.37-11.16.11-1.91,1.93-3.33,5.46-4.25,3.52-.92,7.4-1.32,11.64-1.21,4.24.11,8.16.76,11.78,1.94,3.62,1.18,5.6,2.92,5.93,5.2.37,2.78.51,8.28.42,16.51-.09,8.23-.38,16.8-.84,25.7-.47,8.91-1.12,16.92-1.97,24.04-.84,7.12-1.83,10.97-2.95,11.53-2.62,1.28-7.11,1.77-13.47,1.49-6.35-.28-9.93-1.15-10.71-2.62-.6-.79-1.2-3.06-1.8-6.83-.6-3.77-1.14-8.35-1.63-13.75-2.1.41-4.23.78-6.38,1.1-2.16.32-4.27.61-6.33.87-.3,4.91-.66,9.06-1.07,12.43-.41,3.37-.86,5.46-1.35,6.24-.71,1.46-4.25,2.35-10.6,2.67ZM1412.3,293.92c-1.56,1.74-4.26,2.95-8.11,3.61-6.52,1.11-14.62,1.95-24.29,2.5-9.67.56-15.73.68-18.18.39-.96-.15-1.85-.48-2.67-1-2.67-1.63-5.24-6.32-7.73-14.06-2.48-7.74-4.91-13.06-7.28-15.95-1.41-1.7-3.26-2.7-5.56-3l-18.23-.11c-5.71.15-9.41,2.04-11.12,5.67-2.22,4.67-4.74,9.86-7.56,15.56-2.82,5.71-4.89,9.23-6.22,10.56-.67.82-1.67,1.37-3,1.67-3.04.67-10.21.83-21.51.5-11.3-.33-17.73-1.46-19.29-3.39-1.41-1.48-2.15-3.3-2.22-5.45-.15-7.19,1.11-18.01,3.78-32.46,2.67-14.45,6-29.48,10-45.08,4-15.6,8.24-30.22,12.73-43.85,4.48-13.64,8.39-23.23,11.73-28.79,1.33-2.15,5.24-4.09,11.73-5.84,6.48-1.74,13.65-2.95,21.51-3.61,7.85-.67,15.41-.65,22.68.06,7.26.71,12.34,2.39,15.23,5.06,4.15,4,9.06,12.78,14.73,26.35,5.67,13.56,11.21,28.33,16.62,44.3,5.41,15.97,10.26,31.29,14.56,45.97,4.3,14.67,7.15,25.05,8.56,31.13.96,4.45.67,7.54-.89,9.28ZM1557.26,270.52c-2.45,4.22-5.26,8.45-8.45,12.67-3.19,4.22-6.26,7.93-9.23,11.12-2.96,3.19-5,4.78-6.11,4.78-4.82.96-11.84-1.54-21.07-7.5-9.23-5.96-16.66-9.91-22.29-11.84-5.49-1.7-8.45-1-8.89,2.11.07,5.34-.41,9.41-1.45,12.23-1.04,2.82-4.67,4.56-10.89,5.22-7.11.74-15.25,1.15-24.4,1.22-9.15.07-14.95-.15-17.4-.67-1.71-.3-3.08-1.26-4.11-2.89-1.48-2-3.08-11.19-4.78-27.57-1.71-16.38-3.04-34.13-4-53.25-.96-19.12-1.39-36.69-1.28-52.69.11-16.01,1.28-24.64,3.5-25.9,8.08-4.52,18.9-7.78,32.46-9.78,13.56-2,27.07-1.65,40.52,1.06,13.45,2.71,25.49,8.26,36.13,16.67,10.63,8.41,17.14,20.73,19.51,36.96,3.04,21.64-1.19,37.24-12.67,46.8,7.56,6.3,14.19,12.41,19.9,18.34,5.71,5.93,8.6,10.38,8.67,13.34,0,2.15-1.22,5.34-3.67,9.56ZM1711.12,250.62c-8.23,19.34-21.2,32.59-38.91,39.74-17.71,7.15-36.35,10.58-55.92,10.28-6.67-.15-13.1-.61-19.29-1.39-6.19-.78-10.66-1.76-13.4-2.95-4.3-1.78-7.75-10.62-10.34-26.51-2.6-15.9-4.15-33.29-4.67-52.19-.52-18.9,0-36.5,1.56-52.8,1.56-16.3,4.45-25.75,8.67-28.35,4.22-2.67,10.67-4.63,19.34-5.89,13.86-1.93,28.85-1.74,44.97.56,16.12,2.3,29.77,7.89,40.97,16.79,14.67,11.86,24.7,27.59,30.07,47.19,5.37,19.6,4.35,38.11-3.06,55.53Z"/>
      <path d="M1240.83,56.91c.9.64,2.27.79,4.11.45,2.74-.41,4.79-1.58,6.16-3.51,1.37-1.93,1.81-4.15,1.32-6.66-.86-4.05-3.6-6.32-8.21-6.8-.86-.04-1.56-.02-2.08.06-3.6.64-5.23,3.21-4.89,7.71.34,4.5,1.54,7.42,3.6,8.77Z"/>
      <path d="M1653.14,203.26c-4.85-4.22-9.95-6.6-15.29-7.11-2.15-.15-4.32.02-6.5.5-2.19.48-3.61,1.87-4.28,4.17-1.26,4.08-1.54,10.06-.83,17.95.7,7.89,2.35,12.54,4.95,13.95,1.19.74,3.56,1.04,7.11.89,5.78-.15,10.67-1.46,14.67-3.95,4-2.48,6.23-6.17,6.67-11.06.52-6-1.65-11.12-6.5-15.34Z"/>
      <path d="M1488.84,180.81c-3.52-2.82-8.99-3.82-16.4-3-6.08.67-8.47,6.06-7.17,16.17,1.3,10.12,5.02,14.84,11.17,14.17,5.63-.59,10.01-2.67,13.12-6.23,3.11-3.56,4.65-7.26,4.61-11.12-.04-3.85-1.82-7.19-5.33-10Z"/>
      <path d="M502.67,68.72c2.59-.26,4.74-1.27,6.47-3.04,1.72-1.76,2.79-3.86,3.21-6.3.52-3.22-.08-5.97-1.83-8.24-1.74-2.27-4.28-3.68-7.62-4.25-3.15-.52-5.93.16-8.32,2.05-2.4,1.89-3.82,4.28-4.27,7.17-.6,3.49.37,6.57,2.92,9.25,2.55,2.68,5.7,3.8,9.45,3.35Z"/>
      <path d="M1323.59,198.82c-2.45,2.59-4.87,6.95-7.28,13.06-2.41,6.11-3.28,10.13-2.61,12.06,1.11,3.26,5.91,4.72,14.4,4.39,8.49-.33,13.1-2.39,13.84-6.17.44-2.3-1.78-7.54-6.67-15.73-4.89-8.19-8.78-10.73-11.67-7.61Z"/>
      <path d="M372.12,198.82c-2.45,2.59-4.87,6.95-7.28,13.06-2.41,6.11-3.28,10.13-2.61,12.06,1.11,3.26,5.91,4.72,14.4,4.39,8.49-.33,13.1-2.39,13.84-6.17.44-2.3-1.78-7.54-6.67-15.73-4.89-8.19-8.78-10.73-11.67-7.61Z"/>
      <path class="cls-2" d="M150.63,241.12c-1.67-6.85-3.84-10.73-6.5-11.62-1.85-.59-5.3-.72-10.34-.39-5.04.33-10.28.65-15.73.94-5.45.3-10.38.35-14.79.17-4.41-.18-6.87-1.13-7.39-2.83-.37-1.04-.65-5.69-.83-13.95-.19-8.26-.35-17.51-.5-27.74-.15-10.23-.32-20.08-.5-29.57-.19-9.49-.46-15.97-.83-19.45-.3-2.15-3.87-3.82-10.73-5-6.86-1.18-14.36-1.76-22.51-1.72-8.15.04-15.68.76-22.57,2.17-6.89,1.41-10.49,3.63-10.78,6.67-.59,5.11-.94,15.56-1.06,31.35-.11,15.79.07,32.42.55,49.91.48,17.49,1.41,33.54,2.78,48.13,1.37,14.6,3.32,23.23,5.84,25.9,2.52,2.67,9.15,4.45,19.9,5.34,10.75.89,22.42,1.26,35.02,1.11,12.6-.15,24.55-.65,35.85-1.5,11.3-.85,18.84-1.76,22.62-2.72,2.52-.59,4.22-4.24,5.11-10.95.89-6.71,1.09-14.04.61-22.01-.48-7.97-1.56-15.38-3.22-22.23Z"/>
      <path class="cls-2" d="M285.63,242.51c-1.85-2-8-2.7-18.45-2.11-10.45.59-22.16.96-35.13,1.11v-6.56c4.74-.15,9.06-.39,12.95-.72,3.89-.33,6.58-.72,8.06-1.17,2.07-.3,3.37-2.48,3.89-6.56.52-4.08.54-8.5.06-13.28-.48-4.78-1.33-9.19-2.56-13.23-1.22-4.04-2.47-6.24-3.72-6.61-5.26-1.11-12.08-1.74-20.45-1.89-.08-.89-.15-1.93-.22-3.11-.08-1.18-.11-2.22-.11-3.11,12.82-.44,24.03-.98,33.63-1.61,9.6-.63,14.8-2.28,15.62-4.95,1.63-5.71,2.31-14.17,2.06-25.4-.26-11.23-1.39-17.66-3.39-19.29-1.63-1.63-7.97-2.76-19.01-3.39-11.04-.63-23.05-.85-36.02-.67-12.97.19-25.05.69-36.24,1.5-11.19.82-17.71,1.78-19.57,2.89-1.85,1.11-3.22,3.87-4.11,8.28-.89,4.41-1.33,9.28-1.33,14.62-.45,9.71-.59,22.29-.45,37.74.15,15.45.63,30.61,1.45,45.47.82,14.86,1.95,27.83,3.39,38.91,1.44,11.08,3.28,17.06,5.5,17.95,3.78,1.63,11.89,2.63,24.35,3,12.45.37,25.46.28,39.02-.28,13.56-.56,25.79-1.61,36.68-3.17,10.89-1.56,16.71-3.52,17.45-5.89,1.63-5.63,1.98-14.71,1.06-27.24-.93-12.52-2.39-19.6-4.39-21.23Z"/>
      <path class="cls-2" d="M453.16,253.51c-4.3-14.67-9.16-30-14.56-45.97-5.41-15.97-10.95-30.74-16.62-44.3-5.67-13.56-10.58-22.34-14.73-26.35-2.89-2.67-7.97-4.35-15.23-5.06-7.26-.7-14.82-.72-22.68-.06-7.86.67-15.03,1.87-21.51,3.61-6.49,1.74-10.39,3.69-11.73,5.84-3.33,5.56-7.24,15.16-11.73,28.79-4.48,13.64-8.73,28.26-12.73,43.85-4,15.6-7.34,30.63-10,45.08-2.67,14.45-3.93,25.27-3.78,32.46.07,2.15.82,3.97,2.22,5.45,1.56,1.93,7.99,3.06,19.29,3.39,11.3.33,18.47.17,21.51-.5,1.33-.3,2.33-.85,3-1.67,1.33-1.33,3.41-4.85,6.22-10.56,2.82-5.71,5.34-10.89,7.56-15.56,1.7-3.63,5.41-5.52,11.12-5.67l18.23.11c2.3.3,4.15,1.3,5.56,3,2.37,2.89,4.8,8.21,7.28,15.95,2.48,7.75,5.06,12.43,7.72,14.06.82.52,1.7.85,2.67,1,2.45.3,8.5.17,18.18-.39,9.67-.56,17.77-1.39,24.29-2.5,3.85-.67,6.56-1.87,8.12-3.61,1.56-1.74,1.85-4.84.89-9.28-1.41-6.08-4.26-16.45-8.56-31.13ZM390.47,222.16c-.74,3.78-5.36,5.84-13.84,6.17-8.49.33-13.28-1.13-14.4-4.39-.67-1.93.2-5.95,2.61-12.06,2.41-6.11,4.84-10.47,7.28-13.06,2.89-3.11,6.78-.57,11.67,7.61,4.89,8.19,7.11,13.43,6.67,15.73Z"/>
      <path class="cls-2" d="M577.11,147.9c-11.19-8.89-24.85-14.49-40.97-16.79-16.12-2.3-31.11-2.48-44.97-.56-8.67,1.26-15.12,3.22-19.34,5.89-4.22,2.59-7.11,12.04-8.67,28.35-1.56,16.3-2.07,33.91-1.56,52.8.52,18.9,2.07,36.3,4.67,52.19,2.59,15.9,6.04,24.73,10.34,26.51,2.74,1.19,7.21,2.17,13.4,2.95,6.19.78,12.62,1.24,19.29,1.39,19.57.3,38.2-3.13,55.92-10.28,17.71-7.15,30.68-20.4,38.91-39.74,7.41-17.41,8.43-35.92,3.06-55.53-5.37-19.6-15.4-35.33-30.07-47.19ZM552.66,218.61c-.45,4.89-2.67,8.58-6.67,11.06-4,2.48-8.89,3.8-14.67,3.95-3.56.15-5.93-.15-7.11-.89-2.6-1.41-4.24-6.06-4.95-13.95-.71-7.89-.43-13.88.83-17.95.67-2.3,2.09-3.69,4.28-4.17,2.19-.48,4.35-.65,6.5-.5,5.34.52,10.43,2.89,15.28,7.11,4.85,4.22,7.02,9.34,6.5,15.34Z"/>
      <path class="cls-2" d="M747.53,242.51c-1.85-2-8-2.7-18.45-2.11-10.45.59-22.16.96-35.13,1.11v-6.56c4.74-.15,9.06-.39,12.95-.72,3.89-.33,6.58-.72,8.06-1.17,2.07-.3,3.37-2.48,3.89-6.56.52-4.08.54-8.5.06-13.28-.48-4.78-1.33-9.19-2.56-13.23-1.22-4.04-2.47-6.24-3.72-6.61-5.26-1.11-12.08-1.74-20.45-1.89-.08-.89-.15-1.93-.22-3.11-.08-1.18-.11-2.22-.11-3.11,12.82-.44,24.03-.98,33.63-1.61,9.6-.63,14.8-2.28,15.62-4.95,1.63-5.71,2.31-14.17,2.06-25.4-.26-11.23-1.39-17.66-3.39-19.29-1.63-1.63-7.97-2.76-19.01-3.39-11.04-.63-23.05-.85-36.02-.67-12.97.19-25.05.69-36.24,1.5-11.19.82-17.71,1.78-19.57,2.89-1.85,1.11-3.22,3.87-4.11,8.28-.89,4.41-1.33,9.28-1.33,14.62-.45,9.71-.59,22.29-.45,37.74.15,15.45.63,30.61,1.45,45.47.82,14.86,1.95,27.83,3.39,38.91,1.44,11.08,3.28,17.06,5.5,17.95,3.78,1.63,11.89,2.63,24.35,3,12.45.37,25.46.28,39.02-.28,13.56-.56,25.79-1.61,36.68-3.17,10.89-1.56,16.71-3.52,17.45-5.89,1.63-5.63,1.98-14.71,1.06-27.24-.93-12.52-2.39-19.6-4.39-21.23Z"/>
      <path class="cls-2" d="M879.37,229.28c11.49-9.56,15.71-25.16,12.67-46.8-2.37-16.23-8.88-28.55-19.51-36.96-10.64-8.41-22.68-13.97-36.13-16.67-13.45-2.7-26.96-3.06-40.52-1.06-13.56,2-24.38,5.26-32.46,9.78-2.22,1.26-3.39,9.89-3.5,25.9-.11,16.01.31,33.57,1.28,52.69.96,19.12,2.3,36.87,4,53.25,1.7,16.38,3.3,25.57,4.78,27.57,1.04,1.63,2.41,2.59,4.11,2.89,2.45.52,8.24.74,17.4.67,9.15-.07,17.29-.48,24.4-1.22,6.22-.67,9.85-2.41,10.89-5.22,1.04-2.82,1.52-6.89,1.45-12.23.44-3.11,3.41-3.82,8.89-2.11,5.63,1.93,13.06,5.87,22.29,11.84,9.23,5.97,16.25,8.47,21.06,7.5,1.11,0,3.15-1.59,6.11-4.78,2.96-3.19,6.04-6.89,9.23-11.12,3.18-4.22,6-8.45,8.45-12.67,2.45-4.22,3.67-7.41,3.67-9.56-.08-2.96-2.96-7.41-8.67-13.34-5.71-5.93-12.34-12.04-19.9-18.34ZM836.57,201.93c-3.11,3.56-7.49,5.63-13.12,6.23-6.15.67-9.88-4.06-11.17-14.17-1.3-10.12,1.09-15.51,7.17-16.17,7.41-.81,12.88.19,16.4,3,3.52,2.82,5.3,6.15,5.33,10,.04,3.85-1.5,7.56-4.61,11.12Z"/>
      <path class="cls-2" d="M1035.67,202.38l-.33-.22c7.41-11.56,8.93-23.94,4.56-37.13-4.37-13.19-13.04-22.68-26.01-28.46-8.89-3.85-18.77-6.3-29.63-7.34-10.86-1.04-21.1-1.06-30.74-.06-9.63,1-17.84,2.83-24.62,5.5-6.78,2.67-10.51,5.74-11.17,9.23-1.04,5.49-1.74,16.36-2.11,32.63-.37,16.27-.33,33.17.11,50.69.45,17.53,1.37,33.33,2.78,47.41,1.41,14.08,3.41,21.64,6,22.68,2.74,1.19,8.04,2.02,15.9,2.5,7.85.48,16.21.74,25.07.78,8.85.04,17.16-.04,24.9-.22,7.74-.18,12.95-.43,15.62-.72,12.67-1.18,23.49-5.95,32.46-14.28,8.97-8.34,14.82-18.29,17.56-29.85,2.52-10.52,2.2-20.53-.95-30.02-3.15-9.49-9.62-17.19-19.4-23.12ZM970.86,170.47c.59-2.3,3.18-3.45,7.78-3.45,5.11.07,8.91,1.3,11.39,3.67,2.48,2.37,3.72,5,3.72,7.89,0,4.37-2.17,8-6.5,10.89-4.34,2.89-8.54,3.67-12.62,2.33-2.15-.67-3.54-3.61-4.17-8.84-.63-5.22-.5-9.39.39-12.51ZM989.32,257.12c-8.97,2.48-14.34,1.72-16.12-2.28-1.78-3.78-2.65-8.87-2.61-15.28.04-6.41,1.31-10.21,3.84-11.39,4.89-2.22,10.26-1.83,16.12,1.17,5.85,3,9.26,7.24,10.23,12.73,1.33,7.56-2.48,12.58-11.45,15.06Z"/>
      <path class="cls-2" d="M1404.63,253.51c-4.3-14.67-9.16-30-14.56-45.97-5.41-15.97-10.95-30.74-16.62-44.3-5.67-13.56-10.58-22.34-14.73-26.35-2.89-2.67-7.97-4.35-15.23-5.06-7.26-.7-14.82-.72-22.68-.06-7.86.67-15.03,1.87-21.51,3.61-6.49,1.74-10.39,3.69-11.73,5.84-3.33,5.56-7.24,15.16-11.73,28.79-4.48,13.64-8.73,28.26-12.73,43.85-4,15.6-7.34,30.63-10,45.08-2.67,14.45-3.93,25.27-3.78,32.46.07,2.15.81,3.97,2.22,5.45,1.56,1.93,7.99,3.06,19.29,3.39,11.3.33,18.47.17,21.51-.5,1.33-.3,2.33-.85,3-1.67,1.33-1.33,3.41-4.85,6.22-10.56,2.82-5.71,5.34-10.89,7.56-15.56,1.7-3.63,5.41-5.52,11.12-5.67l18.23.11c2.3.3,4.15,1.3,5.56,3,2.37,2.89,4.8,8.21,7.28,15.95,2.48,7.75,5.06,12.43,7.73,14.06.81.52,1.7.85,2.67,1,2.45.3,8.5.17,18.18-.39,9.67-.56,17.77-1.39,24.29-2.5,3.85-.67,6.56-1.87,8.11-3.61,1.56-1.74,1.85-4.84.89-9.28-1.41-6.08-4.26-16.45-8.56-31.13ZM1341.93,222.16c-.74,3.78-5.35,5.84-13.84,6.17-8.49.33-13.28-1.13-14.4-4.39-.67-1.93.2-5.95,2.61-12.06,2.41-6.11,4.84-10.47,7.28-13.06,2.89-3.11,6.78-.57,11.67,7.61,4.89,8.19,7.11,13.43,6.67,15.73Z"/>
      <path class="cls-2" d="M1532.36,229.28c11.49-9.56,15.71-25.16,12.67-46.8-2.37-16.23-8.88-28.55-19.51-36.96-10.64-8.41-22.68-13.97-36.13-16.67-13.45-2.7-26.96-3.06-40.52-1.06-13.56,2-24.38,5.26-32.46,9.78-2.22,1.26-3.39,9.89-3.5,25.9-.11,16.01.31,33.57,1.28,52.69.96,19.12,2.3,36.87,4,53.25,1.7,16.38,3.3,25.57,4.78,27.57,1.04,1.63,2.41,2.59,4.11,2.89,2.45.52,8.24.74,17.4.67,9.15-.07,17.29-.48,24.4-1.22,6.22-.67,9.85-2.41,10.89-5.22,1.04-2.82,1.52-6.89,1.45-12.23.44-3.11,3.41-3.82,8.89-2.11,5.63,1.93,13.06,5.87,22.29,11.84,9.23,5.97,16.25,8.47,21.07,7.5,1.11,0,3.15-1.59,6.11-4.78,2.96-3.19,6.04-6.89,9.23-11.12,3.18-4.22,6-8.45,8.45-12.67,2.45-4.22,3.67-7.41,3.67-9.56-.08-2.96-2.96-7.41-8.67-13.34-5.71-5.93-12.34-12.04-19.9-18.34ZM1489.56,201.93c-3.11,3.56-7.49,5.63-13.12,6.23-6.15.67-9.88-4.06-11.17-14.17-1.3-10.12,1.09-15.51,7.17-16.17,7.41-.81,12.88.19,16.4,3,3.52,2.82,5.3,6.15,5.33,10,.04,3.85-1.5,7.56-4.61,11.12Z"/>
      <path class="cls-2" d="M1684.1,147.9c-11.19-8.89-24.85-14.49-40.97-16.79-16.12-2.3-31.11-2.48-44.97-.56-8.67,1.26-15.12,3.22-19.34,5.89-4.22,2.59-7.11,12.04-8.67,28.35-1.56,16.3-2.07,33.91-1.56,52.8.52,18.9,2.07,36.3,4.67,52.19,2.59,15.9,6.04,24.73,10.34,26.51,2.74,1.19,7.21,2.17,13.4,2.95,6.19.78,12.62,1.24,19.29,1.39,19.57.3,38.2-3.13,55.92-10.28,17.71-7.15,30.68-20.4,38.91-39.74,7.41-17.41,8.43-35.92,3.06-55.53-5.37-19.6-15.4-35.33-30.07-47.19ZM1659.65,218.61c-.45,4.89-2.67,8.58-6.67,11.06-4,2.48-8.89,3.8-14.67,3.95-3.56.15-5.93-.15-7.11-.89-2.6-1.41-4.24-6.06-4.95-13.95-.71-7.89-.43-13.88.83-17.95.67-2.3,2.09-3.69,4.28-4.17,2.18-.48,4.35-.65,6.5-.5,5.34.52,10.43,2.89,15.29,7.11,4.85,4.22,7.02,9.34,6.5,15.34Z"/>
      <path class="cls-2" d="M375.25,64c.84,8.89,1.84,16.9,2.98,24.04,1.14,7.14,2.31,11,3.51,11.56,2.7,1.24,7.23,1.7,13.58,1.38,6.35-.32,9.89-1.21,10.6-2.67.49-.79.94-2.87,1.35-6.24.41-3.37.77-7.52,1.07-12.43,2.06-.26,4.17-.55,6.33-.87,2.16-.32,4.28-.68,6.38-1.1.49,5.4,1.03,9.98,1.63,13.75.6,3.77,1.2,6.05,1.8,6.83.79,1.46,4.36,2.33,10.71,2.62,6.35.28,10.85-.21,13.47-1.49,1.12-.56,2.11-4.41,2.95-11.53.84-7.12,1.5-15.14,1.97-24.04.47-8.9.75-17.47.84-25.7.09-8.23-.05-13.73-.42-16.51-.34-2.29-2.32-4.02-5.93-5.2-3.62-1.18-7.55-1.83-11.78-1.94-4.24-.11-8.12.29-11.64,1.21-3.52.92-5.34,2.33-5.46,4.25-.22,3.15-.35,6.87-.37,11.16-.02,4.29.05,8.84.2,13.64-3.49.08-6.82.19-10.01.34-.08-4.84-.22-9.44-.42-13.81-.21-4.37-.48-8.15-.81-11.33-.23-1.87-2.12-3.26-5.68-4.16-3.56-.9-7.46-1.28-11.7-1.15-4.24.13-8.14.8-11.7,2-3.56,1.2-5.46,2.94-5.68,5.23-.22,2.78-.12,8.28.31,16.51.43,8.23,1.07,16.79,1.91,25.67Z"/>
      <path class="cls-2" d="M494.29,100.44c12.6,2.1,23.65-.47,33.15-7.7,9.5-7.24,15.23-16.76,17.18-28.57,2.14-13.16-.65-24.41-8.35-33.74-7.71-9.34-18.49-14.6-32.37-15.8-11.51-1.01-21.61,2.15-30.29,9.48-8.68,7.33-13.9,16.39-15.66,27.19-1.87,11.62.67,22.22,7.65,31.78,6.97,9.56,16.54,15.35,28.68,17.38ZM490.3,56.12c.45-2.89,1.87-5.28,4.27-7.17,2.4-1.89,5.17-2.58,8.32-2.05,3.34.56,5.88,1.98,7.62,4.25,1.74,2.27,2.35,5.02,1.83,8.24-.41,2.44-1.48,4.54-3.21,6.3-1.72,1.76-3.88,2.78-6.47,3.04-3.75.45-6.9-.66-9.45-3.35-2.55-2.68-3.52-5.76-2.92-9.25Z"/>
      <path class="cls-2" d="M633.54,76.71c1.46-3.22,2.6-7.61,3.4-13.16.81-5.55,1.31-11.21,1.52-16.98.21-5.77.15-11.12-.17-16.03-.32-4.91-.87-8.36-1.66-10.35-.56-1.35-2.45-2.32-5.65-2.92-3.2-.6-6.64-.89-10.29-.87-3.66.02-6.98.32-9.98.9-3,.58-4.52,1.38-4.56,2.39-.19,2.66-.2,6.75-.03,12.26s0,11-.51,16.45c-.51,5.46-1.59,10.16-3.26,14.12-1.67,3.96-4.41,5.71-8.24,5.26-3.52-.37-5.97-2.56-7.34-6.55-1.37-3.99-2.16-8.6-2.36-13.84-.21-5.23-.1-10.48.31-15.75.41-5.27.66-9.36.73-12.29,0-1.01-1.4-1.85-4.19-2.5-2.79-.66-5.98-1.08-9.56-1.27-3.58-.19-7.04-.11-10.38.23-3.34.34-5.53,1.01-6.58,2.02-1.24,1.24-2.17,4.19-2.81,8.86-.64,4.67-.98,9.85-1.01,15.55-.04,5.7.18,11.32.65,16.87.47,5.55,1.25,9.81,2.33,12.77,3.26,9.11,9.13,16.41,17.6,21.91,8.47,5.49,17.62,7.9,27.44,7.23,7.8-.6,14.73-3.07,20.78-7.42,6.05-4.35,10.66-9.97,13.81-16.87Z"/>
      <path class="cls-2" d="M679.58,75.27c-1.86.73-3.48.82-4.87.25-1.16-.45-1.95-1.14-2.36-2.08-.15-.26-.25-.52-.28-.79-.34-1.35-1.74-2.39-4.22-3.12-2.47-.73-5.25-1.1-8.32-1.1-1.88.04-3.83.23-5.88.56-2.04.34-3.91.9-5.6,1.69-3.82,1.73-5.4,4.16-4.72,7.31,1.57,6.67,5.49,12.2,11.75,16.59,7.27,5.17,15.91,7.26,25.9,6.27,9.99-.99,17.91-4.88,23.76-11.67,4.95-5.74,6.96-12.23,6.05-19.49-.92-7.25-4.45-13.13-10.6-17.63-4.99-3.64-11.79-6.2-20.42-7.7-.71-.11-1.41-.23-2.08-.37-.67-.13-1.29-.25-1.86-.37-5.29-1.09-6.49-2.62-3.6-4.61,2.89-1.99,5.27-2.25,7.14-.79.75.6,1.13,1.24,1.15,1.91.02.67.42,1.29,1.21,1.86.64.49,1.35.69,2.14.62,1.27-.04,3.19-.28,5.74-.73,2.55-.45,5.04-1.12,7.48-2.02,2.44-.9,4.47-2.03,6.1-3.4,1.63-1.37,2.16-3.01,1.6-4.92-1.46-4.95-4.12-8.91-7.96-11.9-3.84-2.98-8.16-4.97-12.96-5.96-4.8-.99-9.75-.99-14.85,0-5.1.99-9.64,2.97-13.61,5.93-6.79,5.06-10.56,11.51-11.3,19.35-.53,5.81,0,10.48,1.6,14,1.59,3.52,3.8,6.3,6.61,8.32,3.9,2.89,8.02,4.66,12.37,5.31,4.35.66,8.72,1.62,13.1,2.9,1.84.53,2.96,1.2,3.37,2.02.79,1.76.25,3.01-1.6,3.74Z"/>
      <path class="cls-2" d="M780.33,96.22c.82-2.85,1-7.44.53-13.78-.47-6.34-1.21-9.92-2.22-10.74-.94-1.01-4.05-1.37-9.34-1.07-5.29.3-11.21.49-17.77.56v-3.32c2.4-.07,4.58-.2,6.55-.37,1.97-.17,3.33-.37,4.08-.59,1.05-.15,1.71-1.26,1.97-3.32s.27-4.3.03-6.72c-.24-2.42-.67-4.65-1.29-6.69-.62-2.04-1.25-3.16-1.88-3.35-2.66-.56-6.11-.88-10.35-.96-.04-.45-.08-.97-.11-1.57-.04-.6-.06-1.12-.06-1.57,6.49-.22,12.16-.5,17.01-.82,4.86-.32,7.49-1.15,7.9-2.5.82-2.89,1.17-7.17,1.04-12.85-.13-5.68-.7-8.93-1.72-9.76-.82-.82-4.03-1.4-9.62-1.72-5.59-.32-11.66-.43-18.22-.34-6.56.09-12.67.35-18.33.76-5.66.41-8.96.9-9.9,1.46-.94.56-1.63,1.96-2.08,4.19-.45,2.23-.67,4.7-.67,7.4-.23,4.91-.3,11.28-.23,19.09.07,7.82.32,15.49.73,23,.41,7.52.99,14.08,1.72,19.68.73,5.61,1.66,8.63,2.78,9.08,1.91.83,6.02,1.33,12.32,1.52,6.3.19,12.88.14,19.74-.14,6.86-.28,13.05-.82,18.56-1.6,5.51-.79,8.45-1.78,8.83-2.98Z"/>
      <path class="cls-2" d="M870.6,14.62c-11.51-1.01-21.61,2.15-30.29,9.48-8.68,7.33-13.9,16.39-15.66,27.19-1.87,11.62.68,22.22,7.65,31.78,6.97,9.56,16.54,15.35,28.68,17.38,12.6,2.1,23.65-.47,33.15-7.7,9.5-7.24,15.23-16.76,17.18-28.57,2.14-13.16-.65-24.41-8.35-33.74-7.71-9.34-18.49-14.6-32.37-15.8ZM879.04,59.38c-.41,2.44-1.48,4.54-3.21,6.3-1.72,1.76-3.88,2.78-6.47,3.04-3.75.45-6.9-.66-9.45-3.35-2.55-2.68-3.52-5.76-2.92-9.25.45-2.89,1.87-5.28,4.27-7.17,2.4-1.89,5.17-2.58,8.32-2.05,3.34.56,5.88,1.98,7.62,4.25,1.74,2.27,2.35,5.02,1.83,8.24Z"/>
      <path class="cls-2" d="M919.95,65.49c.96,8.68,2.03,16.39,3.21,23.11,1.18,6.73,2.24,10.3,3.18,10.71,2.89,1.31,7.65,1.88,14.29,1.72,6.64-.17,10.37-.98,11.19-2.45,1.16-1.46,2.04-6.82,2.64-16.08,3.45.04,6.8-.06,10.04-.28,3.24-.22,5.99-.62,8.24-1.18.98-.23,1.86-1.64,2.64-4.25.79-2.61,1.32-5.46,1.6-8.55.28-3.09.24-5.96-.11-8.61-.36-2.64-1.17-4.15-2.45-4.53-1.35-.34-3.82-.65-7.42-.93-3.6-.28-7.54-.46-11.81-.53v-5.51c4.2.15,8.27.22,12.2.22s7.31-.15,10.12-.45c1.2-.11,2.3-1.73,3.29-4.86.99-3.13,1.67-6.61,2.02-10.43.36-3.82.3-7.4-.17-10.71-.47-3.32-1.55-5.2-3.23-5.65-1.31-.34-5.19-.68-11.64-1.04-6.45-.36-13.31-.47-20.58-.34-7.27.13-13.89.66-19.85,1.57-5.96.92-9.09,2.47-9.39,4.64-.49,3.94-.52,10.15-.08,18.64.43,8.49,1.12,17.08,2.08,25.76Z"/>
      <path class="cls-2" d="M1060.13,98.3c.49-.79.94-2.87,1.35-6.24.41-3.37.77-7.52,1.07-12.43,2.06-.26,4.17-.55,6.33-.87,2.16-.32,4.28-.68,6.38-1.1.49,5.4,1.03,9.98,1.63,13.75.6,3.77,1.2,6.05,1.8,6.83.79,1.46,4.36,2.33,10.71,2.62,6.35.28,10.85-.21,13.47-1.49,1.12-.56,2.11-4.41,2.95-11.53.84-7.12,1.5-15.14,1.97-24.04.47-8.9.75-17.47.84-25.7.09-8.23-.05-13.73-.42-16.51-.34-2.29-2.32-4.02-5.93-5.2-3.62-1.18-7.55-1.83-11.78-1.94-4.24-.11-8.12.29-11.64,1.21-3.52.92-5.34,2.33-5.46,4.25-.22,3.15-.35,6.87-.37,11.16-.02,4.29.05,8.84.2,13.64-3.49.08-6.82.19-10.01.34-.08-4.84-.22-9.44-.42-13.81-.21-4.37-.48-8.15-.81-11.33-.23-1.87-2.12-3.26-5.68-4.16-3.56-.9-7.46-1.28-11.7-1.15-4.24.13-8.14.8-11.7,2-3.56,1.2-5.46,2.94-5.68,5.23-.22,2.78-.12,8.28.31,16.51.43,8.23,1.07,16.79,1.91,25.67.84,8.89,1.84,16.9,2.98,24.04,1.14,7.14,2.31,11,3.51,11.56,2.7,1.24,7.23,1.7,13.58,1.38,6.35-.32,9.89-1.21,10.6-2.67Z"/>
      <path class="cls-2" d="M1120.79,50.11c5.04,6,11.03,12.26,17.97,18.78.71,7.84,1.73,14.88,3.07,21.12,1.33,6.24,2.62,9.7,3.85,10.38.56.34,2.2.54,4.92.62,2.72.08,5.62.08,8.72,0,3.09-.07,5.94-.26,8.55-.56,2.61-.3,4.13-.71,4.58-1.24.82-1.09,1.73-4.76,2.73-11.02.99-6.26,1.68-13.33,2.05-21.2,6.64-6.41,12.33-12.53,17.07-18.36,4.74-5.83,7.25-9.61,7.51-11.33.3-1.05-.33-2.76-1.88-5.12-1.56-2.36-3.43-4.74-5.62-7.14-2.19-2.4-4.39-4.53-6.58-6.38-2.19-1.86-3.76-2.82-4.7-2.9-2.25-.15-5.75,1.73-10.49,5.62-4.74,3.9-9.83,8.44-15.27,13.61-5.4-5.17-10.47-9.68-15.21-13.53-4.74-3.84-8.2-5.71-10.38-5.6-.98.08-2.56,1.09-4.75,3.04-2.19,1.95-4.38,4.19-6.55,6.72-2.18,2.53-4.03,5.03-5.57,7.51-1.54,2.47-2.17,4.24-1.91,5.29.23,1.8,2.86,5.7,7.9,11.7Z"/>
      <path class="cls-2" d="M1208.07,64.84c.62,8.7,1.42,16.53,2.42,23.48.99,6.96,2.13,10.71,3.4,11.28,2.85,1.24,7.72,1.71,14.62,1.41,6.9-.3,10.74-1.18,11.53-2.64.56-.67,1.08-2.49,1.55-5.46.47-2.96.87-6.6,1.21-10.91,8.7.79,16.18-1.61,22.44-7.2,6.26-5.59,10.05-12.54,11.36-20.87,2.62-16.98-4.07-28.85-20.08-35.6-3.04-1.27-7.27-2.2-12.71-2.78-5.44-.58-10.84-.7-16.2-.37-5.36.34-10.08,1.18-14.14,2.53-4.07,1.35-6.23,3.3-6.5,5.85-.26,2.74-.3,8.13-.11,16.17.19,8.04.59,16.41,1.21,25.11ZM1242.13,40.43c.52-.07,1.22-.09,2.08-.06,4.61.49,7.35,2.76,8.21,6.8.49,2.51.05,4.73-1.32,6.66-1.37,1.93-3.42,3.1-6.16,3.51-1.84.34-3.21.19-4.11-.45-2.06-1.35-3.26-4.27-3.6-8.77-.34-4.5,1.29-7.07,4.89-7.71Z"/>
      <path class="cls-2" d="M1284.98,70.66c.41,7.52.99,14.08,1.72,19.68.73,5.61,1.66,8.63,2.78,9.08,1.91.83,6.02,1.33,12.32,1.52,6.3.19,12.88.14,19.74-.14,6.86-.28,13.05-.82,18.56-1.6,5.51-.79,8.45-1.78,8.83-2.98.82-2.85,1-7.44.53-13.78-.47-6.34-1.21-9.92-2.22-10.74-.94-1.01-4.05-1.37-9.34-1.07-5.29.3-11.21.49-17.77.56v-3.32c2.4-.07,4.58-.2,6.55-.37,1.97-.17,3.33-.37,4.08-.59,1.05-.15,1.71-1.26,1.97-3.32.26-2.06.27-4.3.03-6.72-.24-2.42-.67-4.65-1.29-6.69-.62-2.04-1.25-3.16-1.88-3.35-2.66-.56-6.11-.88-10.35-.96-.04-.45-.08-.97-.11-1.57-.04-.6-.06-1.12-.06-1.57,6.49-.22,12.16-.5,17.01-.82,4.86-.32,7.49-1.15,7.9-2.5.82-2.89,1.17-7.17,1.04-12.85-.13-5.68-.7-8.93-1.72-9.76-.82-.82-4.03-1.4-9.62-1.72-5.59-.32-11.66-.43-18.22-.34-6.56.09-12.67.35-18.33.76-5.66.41-8.96.9-9.9,1.46-.94.56-1.63,1.96-2.08,4.19-.45,2.23-.67,4.7-.67,7.4-.23,4.91-.3,11.28-.23,19.09.07,7.82.32,15.49.73,23Z"/>
      <path class="cls-1" d="M1176.82,132.65c-7.63-2.09-15.39-3.12-23.09-3.12-14.94,0-29.68,3.88-43.01,11.48-20.2,11.52-34.69,30.22-40.83,52.65-6.13,22.43-3.16,45.9,8.36,66.1,11.52,20.2,30.22,34.69,52.65,40.83,46.29,12.65,94.27-14.72,106.93-61.02,12.66-46.3-14.72-94.27-61.02-106.93ZM1176.89,200.49c6.23-19.58,17.69-33.42,25.59-30.9s9.26,20.43,3.02,40.01c-6.23,19.58-17.69,33.42-25.59,30.9s-9.26-20.43-3.02-40.01ZM1112.97,184.31c4.6-20.03,14.87-34.76,22.96-32.91,8.08,1.85,10.91,19.6,6.31,39.63-4.6,20.03-14.87,34.76-22.96,32.91-8.08-1.85-10.91-19.6-6.31-39.63ZM1084.24,237.93l13.06-13-18-3.98,15.64-9.74c.16,2.32.4,4.63.79,6.93.09.57.22,1.14.33,1.71l.17.86.2.85c.14.56.26,1.13.41,1.7l.47,1.68.12.42.13.42.27.83.26.83c.09.28.2.55.29.82.2.55.39,1.1.6,1.64l.66,1.62c.21.54.46,1.07.7,1.6.24.53.47,1.07.74,1.58l.78,1.56.84,1.53c.27.52.58,1.01.87,1.51.3.5.58,1.01.91,1.49l.95,1.47c.33.48.67.95,1,1.43,1.36,1.89,2.8,3.72,4.37,5.43l.58.65.61.63.6.63c.2.21.4.42.61.62l1.26,1.21c.21.21.42.4.64.59l.65.58.65.58c.22.19.45.37.67.56.45.37.89.74,1.35,1.1.93.69,1.84,1.42,2.81,2.06.94.68,1.93,1.29,2.91,1.92.5.3,1,.59,1.5.88l.75.44.77.41c2.03,1.12,4.16,2.07,6.31,2.95l1.63.63c.54.2,1.1.38,1.65.57l.83.28c.28.09.56.17.84.25l1.67.5,1.69.42c.28.07.56.15.85.21l.85.18c.57.11,1.14.25,1.71.35l1.72.29c2.3.34,4.61.6,6.93.67l.87.04h.87c.58,0,1.16.02,1.74,0,1.16-.05,2.32-.06,3.48-.17,1.16-.06,2.31-.22,3.47-.35.57-.08,1.15-.18,1.72-.26.29-.05.57-.08.86-.14l.85-.17.85-.17c.29-.05.57-.11.85-.18l1.7-.4c.28-.06.56-.15.84-.22l.84-.23.84-.23.83-.27c2.23-.67,4.4-1.52,6.53-2.46.53-.24,1.06-.47,1.59-.72l1.56-.78c.53-.25,1.03-.55,1.54-.82.51-.28,1.03-.55,1.52-.86l1.5-.89,1.46-.95c.49-.31.96-.65,1.44-.99.47-.34.96-.66,1.42-1.02l1.39-1.06c.45-.37.9-.74,1.35-1.11.22-.19.45-.36.67-.56l.65-.58.65-.58.33-.29.31-.3,1.26-1.21c.42-.41.81-.84,1.21-1.25l.6-.63.58-.65c.38-.44.78-.86,1.15-1.31,1.5-1.78,2.89-3.64,4.2-5.56l8.51,16.34-17.52-5.73,4.63,17.84c-1.41-.66-15.8-9.5-15.8-9.5l.53,18.42-13.27-12.79-3.62,18.07-10.04-15.45-7.62,16.78-6.27-17.33-11.22,14.63-2.22-18.3-14.21,11.73,1.97-18.32-16.51,8.2,6.08-17.4-17.93,4.26,9.83-15.59s-16.88.29-18.43.14Z"/>
      <path d="M1119.29,223.93c8.08,1.85,18.36-12.88,22.96-32.91,4.6-20.03,1.77-37.77-6.31-39.63-8.08-1.85-18.36,12.88-22.96,32.91-4.6,20.03-1.77,37.77,6.31,39.63Z"/>
      <path d="M1179.91,240.51c7.9,2.51,19.36-11.32,25.59-30.9,6.23-19.58,4.88-37.5-3.02-40.01s-19.36,11.32-25.59,30.9c-6.23,19.58-4.88,37.5,3.02,40.01Z"/>
      <path d="M1146.88,268.59l-1.72-.29c-.57-.1-1.14-.24-1.71-.35l-.85-.18c-.28-.06-.56-.14-.85-.21l-1.69-.42-1.67-.5c-.28-.08-.56-.16-.84-.25l-.83-.28c-.55-.19-1.1-.37-1.65-.57l-1.63-.63,2.22,18.3,11.22-14.63Z"/>
      <path d="M1160.77,269.14c-1.16.11-2.32.12-3.48.17-.58,0-1.16,0-1.74,0h-.87s-.87-.05-.87-.05c-2.32-.07-4.63-.33-6.93-.67l6.27,17.33,7.62-16.78Z"/>
      <path d="M1174.43,266.52l-.83.27-.84.23-.84.23c-.28.08-.56.16-.84.22l-1.7.4c-.28.07-.57.13-.85.18l-.85.17-.85.17c-.29.05-.57.09-.86.14-.57.09-1.15.18-1.72.26-1.15.13-2.31.29-3.47.35l10.04,15.45,3.62-18.07Z"/>
      <path d="M1187.17,260.89c-.49.31-1.01.58-1.52.86-.51.27-1.01.57-1.54.82l-1.56.78c-.53.25-1.06.48-1.59.72-2.13.93-4.3,1.78-6.53,2.46l13.27,12.79-.53-18.42Z"/>
      <path d="M1198.33,252.55l-.31.3-.33.29-.65.58-.65.58c-.22.19-.45.37-.67.56-.45.37-.89.74-1.35,1.11l-1.39,1.06c-.46.36-.94.68-1.42,1.02-.48.33-.94.68-1.44.99l-1.46.95-1.5.89s14.38,8.84,15.8,9.5l-4.63-17.84Z"/>
      <path d="M1207.35,241.93c-1.31,1.92-2.7,3.79-4.2,5.56-.37.45-.77.87-1.15,1.31l-.58.65-.6.63c-.41.42-.8.85-1.21,1.25l-1.26,1.21,17.52,5.73-8.51-16.34Z"/>
      <path d="M1133.44,264.92c-2.15-.88-4.28-1.83-6.31-2.95l-.77-.41-.75-.44c-.5-.3-1.01-.58-1.5-.88-.97-.63-1.97-1.23-2.91-1.92l-1.97,18.32,14.21-11.73Z"/>
      <path d="M1121.2,258.32c-.97-.65-1.88-1.37-2.81-2.06-.45-.36-.9-.74-1.35-1.1-.22-.19-.45-.36-.67-.56l-.65-.58-.65-.58c-.22-.19-.44-.38-.64-.59l-1.26-1.21c-.21-.2-.41-.41-.61-.62l-.6-.63-.61-.63-.58-.65-6.08,17.4,16.51-8.2Z"/>
      <path d="M1110.77,249.12c-1.57-1.71-3.01-3.55-4.37-5.43-.33-.48-.67-.95-1-1.43l-.95-1.47c-.33-.48-.61-.99-.91-1.49-.3-.5-.6-1-.87-1.51l-9.83,15.59,17.93-4.26Z"/>
      <path d="M1101.83,236.26l-.78-1.56c-.27-.52-.5-1.05-.74-1.58-.23-.53-.49-1.06-.7-1.6l-.66-1.62c-.2-.54-.4-1.09-.6-1.64-.1-.27-.2-.54-.29-.82l-.26-.83-.27-.83-.13-.42-.12-.42-13.06,13c1.55.15,18.43-.14,18.43-.14l-.84-1.53Z"/>
      <path d="M1096.43,221.55l-.2-.85-.17-.86c-.11-.57-.23-1.14-.33-1.71-.39-2.29-.63-4.61-.79-6.93l-15.64,9.74,18,3.98-.47-1.68c-.15-.56-.27-1.13-.41-1.7Z"/>
    </g>
  </g>
</svg>