<?xml version="1.0" encoding="UTF-8"?>
<svg id="Layer_2" data-name="Layer 2" xmlns="http://www.w3.org/2000/svg" viewBox="0 0 433.59 159.79">
  <defs>
    <style>
      .cls-1 {
        fill: #fff;
      }

      .cls-2 {
        fill: none;
      }
    </style>
  </defs>
  <g id="Layer_2-2" data-name="Layer 2">
    <g>
      <path class="cls-2" d="M161.35,132.86c1.14-1.3,2.46-2.73,3.95-4.3.97-1.02,1.99-2.08,3.05-3.18-3.53-3.66-5.95-6.34-7.38-8.15.31,5.08-.53,9.37-2.53,12.81,1.04.95,2.01,1.9,2.92,2.82Z"/>
      <path class="cls-2" d="M331.17,119.48c-.05-.21-.1-.3-.11-.32h0s-.02,0-.05-.02c.03.33.08.61.12.85.06-.08.1-.18.04-.51Z"/>
      <path class="cls-2" d="M71.53,29.6c-.54.08-1.04.2-1.5.36-1.62.59-2.23,1.39-2.54,1.94-.73,1.28-.72,2.18-.64,2.74.07.53.28,1.35,1.3,2.34.59.58,1.53.87,2.44,1.02.08-.51.15-1.02.23-1.53.04-1.4.57-3.5,2.93-5.22-.92-.42-1.65-.99-2.21-1.65Z"/>
      <path class="cls-2" d="M382.61,119.4c-.05-.21-.1-.3-.11-.32h0s-.02,0-.05-.02c.03.33.08.61.12.85.06-.08.1-.18.04-.51Z"/>
      <path class="cls-2" d="M30.44,119.98c-.05-.21-.1-.3-.11-.32h0s-.02,0-.05-.02c.03.33.08.61.12.85.06-.08.1-.18.04-.51Z"/>
      <path class="cls-1" d="M66.75,67.85c1.02.07,2.05.1,3.09.1,3.13,0,6.31-.32,9.49-.94.15.05.3.09.44.12,2.06.56,4.94.77,9.01.65,4.85-.14,7.74-.59,9.5-2.53.04-.04.07-.08.11-.13.52.53,1.14.97,1.89,1.27,1.38.58,3.67,1.2,9.96,1.38,1.62.05,3.27.07,4.94.07,2.77,0,5.62-.06,8.51-.19,4.7-.2,9.01-.58,12.82-1.13,4.36-.63,8.71-1.57,9.92-5.45l.03-.1c.73-2.52.89-5.99.52-10.91-.46-6.03-1.24-8.75-3.05-10.4-1.81-1.75-4.47-2.19-8-2.12.11-1.44.08-2.97-.08-4.56-.17-1.61-.44-3.14-.82-4.57,1.76-.2,4.03-.64,5.76-1.89.33,1.48.72,2.66,1.2,3.63,1.49,3.1,5.08,3.76,8.33,4.13,1.62.19,3.43.33,5.41.44.41,5.58.95,11.16,1.6,16.63,1.22,10.21,2.5,13.57,5.73,14.98,1.5.65,3.43,1.06,5.9,1.25,1.36.1,2.74.16,4.12.16.73,0,1.47-.01,2.2-.04,2.17-.09,4.18-.31,5.96-.66,1.88-.37,4.5-1.11,5.94-3.34,1.18-1.72,1.95-4.62,2.56-13.61.34-5.11.57-10.42.69-15.85.86-.05,1.68-.1,2.46-.15,2.15-.14,3.74-.29,4.85-.46,3.15-.35,5.42-2.75,6.75-7.15.82-2.72,1.32-5.7,1.48-8.88.17-3.23-.07-6.27-.69-9.04-1.45-6.45-5.7-7.42-7.49-7.55-3.65-.22-8.36-.36-14-.42-5.62-.05-11.22,0-16.65.14-5.47.15-10.39.41-14.62.77-6.05.52-8.28,1.22-9.71,2.24-.25.16-.47.35-.68.53-.28-.41-.59-.79-.96-1.11-1.62-1.49-4.08-2.11-9.46-2.4-3.82-.21-8.01-.28-12.45-.21-4.43.07-8.62.25-12.46.54-5.77.43-7.48.9-8.78,1.68-2.82,1.7-3.48,5-3.7,6.09-.09.43-.16.87-.23,1.33-1.78-2.74-4.04-4.51-6.1-5.65-5.2-2.88-11.03-4.19-17.35-3.88-9.28.5-17.12,3.61-23.3,9.25-6.23,5.68-9.94,13.57-11.03,23.44-1.02,9.44,1.62,17.52,7.86,24,6.04,6.28,13.61,9.81,22.55,10.49ZM144.7,10.98c.13-1.78.45-2.81.95-3.08.72-.57,3.16-1.04,7.31-1.39,4.16-.35,8.93-.61,14.33-.75,5.4-.15,10.89-.19,16.46-.14,5.57.05,10.16.19,13.74.41,1.42.1,2.39,1.32,2.92,3.65.53,2.34.72,4.9.57,7.69-.14,2.79-.57,5.35-1.28,7.69-.71,2.34-1.57,3.55-2.59,3.63-.95.15-2.46.3-4.55.44-2.09.14-4.44.26-7.06.37-.06,7.02-.31,13.78-.75,20.29-.44,6.51-1.02,10.24-1.74,11.18-.27.5-1.18.9-2.72,1.2-1.54.3-3.28.49-5.21.57-1.93.08-3.84.04-5.73-.1-1.89-.15-3.32-.43-4.29-.85-1.02-.45-1.94-4.11-2.76-10.99-.82-6.88-1.45-13.84-1.88-20.88-3.68-.07-6.86-.26-9.52-.56-2.66-.31-4.13-.76-4.41-1.36-.48-.94-.88-2.47-1.2-4.57-.33-2.1-.54-4.26-.65-6.46-.1-2.2-.09-4.19.05-5.97ZM98.81,14.77c0-1.79.14-3.43.44-4.91.3-1.48.75-2.41,1.38-2.78.62-.37,2.81-.7,6.57-.98,3.76-.28,7.81-.45,12.17-.52,4.35-.07,8.39,0,12.1.2,3.71.21,5.84.58,6.38,1.13.67.55,1.06,2.7,1.15,6.48.09,3.77-.13,6.61-.68,8.53-.27.9-2.02,1.45-5.24,1.67-3.22.22-6.99.4-11.29.56,0,.3.01.65.04,1.05.03.4.05.75.08,1.04,2.81.05,5.1.25,6.87.62.42.12.84.86,1.25,2.22.41,1.36.7,2.84.87,4.44.16,1.61.16,3.09-.01,4.46-.17,1.37-.61,2.1-1.3,2.2-.5.15-1.4.28-2.71.4-1.31.11-2.76.2-4.35.25,0,.32,0,.7,0,1.12,0,.42,0,.78,0,1.08,4.35-.06,8.29-.19,11.8-.39,3.51-.2,5.58.03,6.2.7.67.55,1.17,2.92,1.49,7.13.32,4.21.2,7.25-.34,9.15-.25.8-2.2,1.46-5.86,1.99-3.66.53-7.76.89-12.32,1.08s-8.92.23-13.1.11c-4.18-.12-6.91-.45-8.18-.99-.75-.3-1.37-2.31-1.86-6.03-.49-3.72-.88-8.07-1.16-13.06-.28-4.99-.45-10.08-.51-15.27-.06-5.19-.02-9.41.13-12.67ZM41.31,33.9c.96-8.66,4.1-15.42,9.43-20.29s12.06-7.51,20.2-7.95c5.38-.26,10.26.83,14.66,3.26,4.4,2.43,6.65,6.83,6.76,13.2.1.97-.51,1.79-1.83,2.45-1.32.66-2.88,1.19-4.68,1.58-1.8.39-3.59.65-5.36.77-1.77.13-3.04.13-3.81,0-1.07-.15-1.59-.57-1.55-1.27.04-.7-.21-1.08-.73-1.16-2.26-.12-4.27.12-6.01.72-2.41.88-4.17,2.27-5.26,4.19-1.09,1.92-1.51,3.87-1.26,5.84.25,1.98,1.18,3.74,2.77,5.3,1.59,1.55,3.89,2.4,6.87,2.55,2.17.02,3.37-.67,3.62-2.08.25-1.41.47-2.82.66-4.24-.1-.95.82-1.76,2.76-2.43,1.94-.67,4.11-1.13,6.51-1.35,2.4-.23,4.64-.19,6.72.12,2.08.31,3.19.96,3.34,1.95.25,1.87.45,4.24.59,7.11.14,2.87.2,5.71.18,8.49-.02,2.79-.13,5.25-.34,7.39-.21,2.14-.52,3.4-.94,3.77-.4.52-2.39.84-5.99.94-3.6.11-6.15-.06-7.67-.51-.22-.02-.45-.22-.67-.6-4.48,1.08-8.88,1.47-13.21,1.18-7.67-.58-14.09-3.57-19.28-8.97-5.19-5.39-7.35-12.06-6.49-20ZM73.74,31.25c-2.36,1.72-2.88,3.81-2.93,5.22-.07.51-.15,1.02-.23,1.53-.91-.15-1.85-.44-2.44-1.02-1.02-.99-1.23-1.81-1.3-2.34-.07-.56-.08-1.46.64-2.74.31-.55.92-1.35,2.54-1.94.46-.16.96-.28,1.5-.36.56.66,1.29,1.23,2.21,1.65Z"/>
      <path class="cls-1" d="M249.39,66.21c1.5.65,3.43,1.06,5.9,1.25,1.36.11,2.73.16,4.12.16.73,0,1.47-.01,2.2-.04,2.17-.09,4.18-.31,5.96-.66,1.88-.37,4.5-1.11,5.94-3.34,1.18-1.72,1.95-4.62,2.56-13.61.34-5.11.57-10.42.69-15.85.86-.05,1.68-.1,2.46-.15,2.15-.14,3.74-.29,4.85-.46.85-.09,1.64-.35,2.36-.75.16,1.88.32,3.78.51,5.7.58,5.98,1.27,11.46,2.05,16.27,1.04,6.45,2.13,9.98,5.21,11.42,2.1.96,4.86,1.42,8.58,1.42.87,0,1.8-.03,2.78-.08,5.45-.28,9.44-1.14,11.16-4.38.69-1.23,1.1-2.89,1.47-5.95.05-.44.1-.9.15-1.37.06.38.12.76.17,1.12.54,3.34,1.07,5.16,1.93,6.44,1.86,3.01,5.8,3.79,11.11,4.02,5.18.22,8.78-.26,11.4-1.53,1.23-.62,2.11-1.57,2.77-2.93.7,1.39,1.7,2.48,3.17,3.09,1.38.59,3.67,1.2,9.96,1.38,1.61.05,3.26.07,4.94.07,2.77,0,5.62-.06,8.52-.19,4.71-.2,9.02-.58,12.82-1.13,4.36-.63,8.71-1.57,9.92-5.45l.03-.11c.73-2.52.89-5.99.52-10.91-.46-6.03-1.24-8.75-3.05-10.4-1.81-1.75-4.45-2.18-8-2.12.11-1.44.08-2.97-.08-4.56-.17-1.61-.44-3.14-.82-4.57,2.81-.31,6.9-1.26,8.06-5.06l.03-.1c.69-2.43.97-5.71.86-10.02-.12-4.9-.62-8.14-2.8-10.07-1.62-1.49-4.08-2.11-9.46-2.4-3.81-.21-8-.28-12.45-.21-4.43.07-8.62.25-12.46.54-5.77.43-7.48.9-8.78,1.69-.46.27-.84.6-1.19.94-.97-.68-2.18-1.3-3.7-1.79-2.85-.93-5.96-1.44-9.24-1.52-3.27-.08-6.34.25-9.12.98-3.32.87-5.16,2.36-6.17,3.87-1.07-1.53-2.98-2.96-6.31-3.8-2.81-.7-5.88-1.01-9.15-.9-3.29.11-6.39.65-9.2,1.6-1.36.46-2.45,1.02-3.35,1.64-1.78-1.99-3.94-2.43-5.09-2.51-3.65-.22-8.36-.36-14-.42-5.62-.05-11.22,0-16.64.14-5.47.15-10.39.41-14.62.77-6.05.52-8.28,1.22-9.71,2.24-2.73,1.81-3,5.3-3.11,6.84-.15,1.96-.17,4.18-.05,6.58.11,2.36.35,4.71.7,6.99.41,2.65.94,4.55,1.65,5.99,1.49,3.1,5.08,3.76,8.33,4.13,1.62.19,3.43.33,5.41.44.41,5.58.95,11.16,1.6,16.64,1.22,10.21,2.5,13.57,5.73,14.98ZM349.21,6.66c.62-.37,2.81-.7,6.57-.98,3.76-.28,7.81-.45,12.17-.52,4.35-.07,8.39,0,12.1.2,3.71.21,5.84.58,6.38,1.13.67.55,1.06,2.71,1.15,6.48.09,3.77-.13,6.61-.68,8.53-.27.9-2.02,1.45-5.24,1.67-3.22.22-6.99.4-11.29.56,0,.3.01.65.04,1.05.03.4.05.75.08,1.05,2.81.04,5.1.25,6.87.62.42.12.84.86,1.25,2.22.41,1.36.7,2.84.87,4.44.16,1.6.16,3.09-.01,4.46-.17,1.37-.61,2.1-1.3,2.2-.5.15-1.4.28-2.71.4-1.31.11-2.76.2-4.35.25,0,.32,0,.7,0,1.12,0,.42,0,.78,0,1.08,4.35-.06,8.29-.19,11.8-.39,3.51-.2,5.58.03,6.2.7.67.55,1.17,2.92,1.49,7.13.32,4.21.2,7.26-.34,9.15-.25.8-2.2,1.46-5.86,1.99-3.66.53-7.76.89-12.32,1.08-4.55.19-8.92.23-13.1.11-4.18-.12-6.91-.45-8.18-1-.75-.3-1.37-2.31-1.86-6.03-.49-3.72-.88-8.07-1.16-13.06-.28-4.99-.45-10.08-.51-15.27s-.02-9.41.13-12.67c0-1.79.14-3.43.44-4.91.3-1.48.75-2.41,1.38-2.78ZM294.15,6.49c2.36-.8,4.95-1.25,7.76-1.34,2.81-.09,5.4.16,7.77.75,2.36.59,3.62,1.51,3.78,2.76.23,2.12.41,4.62.55,7.52.14,2.9.24,5.95.3,9.16,2.11-.1,4.33-.18,6.64-.23-.1-3.19-.15-6.2-.15-9.05,0-2.85.08-5.32.23-7.41.07-1.27,1.28-2.21,3.62-2.82,2.34-.61,4.91-.89,7.73-.82,2.81.07,5.42.5,7.82,1.28,2.4.78,3.72,1.93,3.94,3.45.25,1.84.35,5.49.3,10.96-.05,5.46-.23,11.15-.53,17.06s-.73,11.23-1.28,15.96c-.55,4.73-1.2,7.28-1.95,7.66-1.74.85-4.72,1.18-8.94,1-4.22-.18-6.59-.75-7.11-1.72-.4-.52-.8-2.03-1.2-4.53-.4-2.5-.77-5.54-1.1-9.13-1.39.28-2.81.52-4.24.74-1.43.21-2.83.41-4.2.59-.19,3.26-.43,6.01-.7,8.25s-.57,3.62-.89,4.15c-.47.97-2.82,1.57-7.03,1.79-4.22.22-7.22-.08-9.02-.9-.8-.37-1.58-2.93-2.35-7.67-.77-4.74-1.43-10.06-2-15.96-.57-5.9-1-11.58-1.3-17.04s-.37-9.11-.22-10.96c.15-1.52,1.4-2.68,3.76-3.48ZM237.22,29.19c-2.66-.31-4.13-.76-4.41-1.36-.48-.94-.88-2.47-1.2-4.57-.33-2.1-.54-4.25-.65-6.46-.1-2.2-.09-4.19.05-5.97s.45-2.81.95-3.08c.72-.57,3.16-1.04,7.31-1.39,4.16-.35,8.93-.61,14.33-.75,5.4-.15,10.89-.19,16.46-.14,5.57.05,10.16.19,13.74.41,1.42.1,2.39,1.32,2.92,3.65.53,2.34.72,4.9.57,7.69-.14,2.79-.57,5.35-1.28,7.69-.71,2.34-1.57,3.55-2.59,3.63-.95.15-2.46.3-4.55.44-2.09.14-4.44.26-7.06.37-.06,7.02-.31,13.78-.75,20.29-.44,6.51-1.02,10.24-1.74,11.18-.27.5-1.18.9-2.72,1.2-1.54.3-3.28.49-5.21.57-1.93.08-3.84.04-5.73-.1s-3.32-.43-4.29-.85c-1.02-.45-1.94-4.11-2.76-10.99-.82-6.88-1.45-13.84-1.88-20.88-3.68-.07-6.86-.26-9.52-.56Z"/>
      <path class="cls-1" d="M30.38,125.74c1.82-.28,3.18-1.06,4.08-2.34.91-1.28,1.2-2.76.87-4.42-.58-2.69-2.4-4.19-5.46-4.51-.57-.02-1.03-.01-1.38.04-2.39.43-3.47,2.13-3.24,5.12.23,2.99,1.03,4.93,2.4,5.82.6.42,1.51.52,2.72.29ZM30.32,119.66h0s.06.11.11.32c.06.33.02.42-.04.51-.04-.24-.09-.52-.12-.85.03.01.04.02.05.02Z"/>
      <path class="cls-1" d="M81.36,120.5c-.82.87-1.63,2.34-2.44,4.39-.81,2.05-1.1,3.4-.87,4.05.38,1.09,1.99,1.58,4.84,1.47,2.85-.12,4.4-.81,4.64-2.08.15-.77-.6-2.53-2.25-5.28-1.65-2.75-2.96-3.6-3.92-2.55Z"/>
      <path class="cls-1" d="M128.94,118.8c.44,3.4,1.69,4.98,3.76,4.75,1.89-.2,3.36-.9,4.4-2.1,1.04-1.2,1.56-2.44,1.54-3.74-.01-1.29-.61-2.41-1.8-3.36-1.18-.94-3.02-1.28-5.51-1-2.04.23-2.84,2.04-2.4,5.44Z"/>
      <path class="cls-1" d="M225.45,108.68l-.04-.1c-.57-1.59-1.63-3.33-3.23-5.31-1.34-1.67-2.82-3.28-4.38-4.81-1.59-1.56-3.18-2.9-4.71-4-1.7-1.21-3.96-2.52-6.49-2.1-1.89.28-3.93,1.46-7.56,4.37-1.81,1.45-3.81,3.13-5.99,5.03-1.15-1.12-2.27-2.19-3.36-3.22-2.15-2.03-4.09-3.76-5.75-5.12l-.1-.08c-1.88-1.47-5.19-2.67-10.24.02-2.58,1.37-5.07,3.23-7.41,5.53-2.36,2.32-4.26,4.84-5.66,7.49-.5.95-.86,1.85-1.1,2.68-1.45-4.32-3.85-7.84-7.2-10.48-4.18-3.3-8.98-5.5-14.26-6.56-5.06-1.01-10.22-1.14-15.32-.37-5.21.78-9.33,2.05-12.63,3.9-3.1,1.77-3.64,5.44-3.69,13.02-.01,2.41.02,4.95.08,7.56-1.23-3.35-2.47-6.55-3.72-9.52-2.23-5.31-4.17-8.65-6.11-10.51l-.08-.07c-1.81-1.67-4.44-2.65-8.03-2.99-2.73-.26-5.59-.26-8.52,0-2.92.25-5.64.72-8.09,1.38-2.41.65-5.37,1.71-6.92,4.23-1.32,2.21-2.75,5.7-4.38,10.69-1.46,4.48-2.86,9.32-4.17,14.39,1.87-13.34-3.8-23.19-16.44-28.5-2.49-1.04-5.71-1.76-9.84-2.19-3.87-.41-7.78-.49-11.6-.24-3.97.26-7.55.91-10.64,1.94-5.88,1.96-7.43,5.5-7.7,8.16-.19,2.04-.22,5.74-.08,11.33.13,5.39.42,11.07.84,16.9.43,5.86.99,11.22,1.67,15.94.91,6.27,2,9.94,5.24,11.36,2.17.94,5.09,1.39,9.07,1.39.89,0,1.84-.02,2.84-.07,5.73-.26,9.7-1.03,11.58-3.98.85-1.21,1.37-2.86,1.8-5.63.14-.92.28-1.94.41-3.04,5.13-.49,9.71-2.51,13.67-6.06,3.6-3.22,6.18-7.06,7.75-11.43-.82,3.51-1.54,6.95-2.14,10.26-.96,5.24-1.39,9.13-1.33,11.98.07,1.9.76,3.61,2.02,4.98,1.89,2.16,5.03,2.66,10.07,2.8,5.56.15,7.39-.06,8.46-.3,1.45-.32,2.69-1.04,3.61-2.07.71-.76,1.5-1.92,2.88-4.72.76-1.56,1.46-3,2.11-4.34l4.25.02c.27.56.64,1.47,1.1,2.9,1.27,3.92,2.74,6.22,4.69,7.41.86.55,1.81.9,2.83,1.05l.15.02c.39.05.92.08,1.84.08,1.06,0,2.65-.05,5.15-.2,3.47-.21,6.32-.51,8.72-.92.99-.17,1.86-.45,2.66-.8.92.79,2.02,1.32,3.23,1.55.82.17,2.11.31,5.5.31.42,0,.86,0,1.35,0,3.22-.03,6.14-.18,8.68-.45,5.14-.56,7.09-3.03,7.81-5.01.05-.14.1-.28.14-.42.93.51,2.05,1.17,3.41,2.05,4.19,2.7,7.52,3.74,10.46,3.26,2.07-.25,3.65-1.66,5.05-3.17,1.1-1.19,2.25-2.58,3.42-4.13.68-.91,1.31-1.82,1.91-2.74.77,1.02,1.59,2.02,2.51,3,2.27,2.42,4.75,4.39,7.35,5.87,2.24,1.27,4.17,1.72,5.79,1.72,2.21,0,3.82-.83,4.77-1.53,1.17-.84,2.84-2.29,5.28-4.55,1.3-1.21,2.7-2.54,4.2-3.98,2.28,2.11,4.48,3.98,6.56,5.56,4.29,3.26,7.2,4.83,10.32,3.74,1.61-.59,3.33-1.7,5.28-3.39,1.64-1.42,3.2-2.98,4.65-4.64,1.45-1.67,2.7-3.31,3.7-4.87,1.12-1.74,2.31-4.05,1.77-6.59-.29-1.51-1.15-3.28-4.29-7.3-1.45-1.86-3.17-3.95-5.12-6.22,2.25-2.54,4.21-4.87,5.86-6.97,3.23-4.1,4.89-7.08,3.86-10.15ZM160.97,117.23c1.43,1.81,3.86,4.49,7.38,8.15-1.06,1.1-2.08,2.16-3.05,3.18-1.49,1.57-2.8,3-3.95,4.3-.91-.93-1.88-1.87-2.92-2.82,2-3.43,2.84-7.72,2.53-12.81ZM51.39,123.42c-.86,5.53-3.37,10.15-7.52,13.86-4.15,3.72-9.11,5.32-14.89,4.8-.22,2.86-.48,5.28-.79,7.24-.31,1.97-.65,3.17-1.02,3.62-.52.97-3.07,1.56-7.65,1.77s-7.82-.1-9.71-.92c-.85-.37-1.6-2.87-2.27-7.48-.67-4.61-1.21-9.81-1.63-15.58-.42-5.77-.7-11.33-.83-16.67-.13-5.34-.11-8.92.06-10.73.17-1.69,1.61-2.99,4.31-3.89,2.7-.9,5.83-1.47,9.39-1.7s7.14-.15,10.75.23c3.61.38,6.42.99,8.44,1.83,10.63,4.46,15.09,12.33,13.37,23.61ZM108.48,153.61c-2.19.38-4.91.66-8.16.85-3.25.19-5.28.24-6.1.14-.32-.05-.62-.16-.9-.33-.9-.55-1.76-2.12-2.6-4.72-.84-2.6-1.66-4.38-2.45-5.35-.47-.57-1.1-.91-1.87-1l-6.12-.03c-1.92.05-3.16.69-3.73,1.91-.75,1.57-1.59,3.31-2.53,5.23-.94,1.92-1.64,3.1-2.08,3.55-.22.27-.56.46-1.01.56-1.02.23-3.43.29-7.22.18-3.8-.11-5.96-.48-6.48-1.13-.47-.5-.72-1.11-.75-1.83-.05-2.41.36-6.05,1.25-10.9s2-9.9,3.33-15.14c1.33-5.24,2.75-10.15,4.25-14.73,1.5-4.58,2.81-7.81,3.92-9.67.45-.72,1.76-1.38,3.94-1.97,2.18-.59,4.58-1,7.22-1.23,2.64-.23,5.17-.23,7.62,0,2.44.23,4.14.8,5.12,1.69,1.4,1.34,3.05,4.29,4.96,8.84,1.91,4.55,3.78,9.51,5.61,14.87,1.83,5.36,3.46,10.5,4.92,15.43,1.45,4.93,2.42,8.41,2.89,10.45.33,1.49.23,2.53-.29,3.12-.52.59-1.43.99-2.72,1.22ZM157.04,148.71c-1.07,1.42-2.1,2.67-3.09,3.74-.99,1.07-1.68,1.61-2.05,1.61-1.62.33-3.98-.51-7.08-2.51s-5.6-3.32-7.49-3.96c-1.84-.57-2.84-.33-2.99.71.03,1.79-.13,3.16-.48,4.11-.35.95-1.57,1.53-3.66,1.76-2.39.25-5.12.39-8.19.42-3.07.03-5.02-.04-5.84-.21-.57-.1-1.03-.42-1.38-.97-.5-.67-1.04-3.76-1.62-9.26-.58-5.5-1.04-11.46-1.37-17.88-.33-6.42-.49-12.32-.46-17.69.03-5.38.42-8.27,1.16-8.7,2.71-1.52,6.34-2.62,10.9-3.3,4.55-.68,9.09-.57,13.61.33,4.52.9,8.57,2.76,12.14,5.58,3.58,2.82,5.77,6.95,6.57,12.4,1.03,7.27-.38,12.51-4.23,15.72,2.54,2.11,4.77,4.16,6.69,6.15,1.92,1.99,2.89,3.48,2.92,4.47,0,.72-.41,1.79-1.23,3.21s-1.76,2.84-2.83,4.26ZM217.65,115.74c-2.29,2.9-5.16,6.24-8.61,10,3.14,3.55,5.76,6.67,7.85,9.36,2.1,2.68,3.21,4.42,3.33,5.22.15.57-.21,1.54-1.08,2.89-.87,1.36-1.96,2.78-3.26,4.28-1.3,1.5-2.69,2.88-4.16,4.15-1.47,1.27-2.71,2.1-3.73,2.47-.72.25-2.58-.76-5.57-3.03-2.99-2.27-6.19-5.12-9.61-8.55-2.83,2.79-5.36,5.22-7.58,7.29s-3.82,3.45-4.79,4.15c-1.27.92-2.99.76-5.17-.48-2.18-1.24-4.24-2.89-6.19-4.95-1.95-2.06-3.47-4.19-4.58-6.4-1.11-2.2-1.26-3.8-.44-4.8,1.27-1.5,2.88-3.28,4.84-5.35s4.1-4.27,6.41-6.62c-5.46-5.54-9.01-9.38-10.66-11.52-.97-1.24-.88-2.97.29-5.17,1.17-2.2,2.75-4.29,4.75-6.26s4.08-3.53,6.25-4.68c2.16-1.15,3.77-1.31,4.82-.49,1.57,1.29,3.4,2.93,5.5,4.9,2.09,1.98,4.3,4.12,6.62,6.43,3.5-3.17,6.6-5.82,9.28-7.97,2.68-2.14,4.42-3.26,5.22-3.33.55-.12,1.48.28,2.8,1.23,1.32.94,2.69,2.11,4.11,3.5,1.42,1.39,2.75,2.85,3.98,4.38,1.23,1.53,2.04,2.81,2.41,3.86.25.75-.77,2.57-3.05,5.47Z"/>
      <path class="cls-1" d="M275.78,120.18c-.82.87-1.63,2.34-2.44,4.39-.81,2.05-1.1,3.4-.87,4.05.38,1.09,1.99,1.58,4.84,1.47,2.85-.12,4.4-.81,4.64-2.08.15-.77-.6-2.53-2.25-5.28-1.65-2.75-2.96-3.6-3.92-2.55Z"/>
      <path class="cls-1" d="M331.12,125.24c1.82-.28,3.18-1.06,4.08-2.34.91-1.28,1.2-2.76.87-4.43-.58-2.69-2.4-4.19-5.46-4.51-.57-.02-1.03-.01-1.38.04-2.39.43-3.47,2.13-3.24,5.12.23,2.99,1.03,4.93,2.4,5.82.6.42,1.51.52,2.72.29ZM331.06,119.16h0s.06.11.11.32c.06.33.02.43-.04.51-.04-.24-.09-.52-.12-.85.03.01.04.02.05.02Z"/>
      <path class="cls-1" d="M382.56,125.16c1.82-.28,3.18-1.06,4.08-2.34.91-1.28,1.2-2.76.87-4.43-.58-2.69-2.4-4.19-5.46-4.51-.57-.02-1.03-.01-1.38.04-2.39.43-3.47,2.13-3.24,5.12s1.03,4.93,2.4,5.82c.6.42,1.51.52,2.72.29ZM382.5,119.08h0s.06.11.11.32c.06.33.02.43-.04.51-.04-.24-.09-.52-.12-.85.03.01.04.02.05.02Z"/>
      <path class="cls-1" d="M432.52,128.65c.37-2.9.65-6.24.84-9.92.19-3.68.26-7.46.21-11.23-.05-3.93-.23-7.09-.56-9.67l-.02-.12c-.33-2.14-1.83-4.92-7.12-5.97-2.33-.46-4.88-.67-7.57-.61-2.73.06-5.3.41-7.64,1.04-5.15,1.37-6.56,4.29-6.83,6.51-.08.65-.17,1.74-.2,4.08-2.77-3.35-6.61-6.09-11.5-8.14-2.49-1.04-5.71-1.76-9.84-2.19-3.87-.41-7.77-.49-11.6-.24-3.97.26-7.55.91-10.64,1.94-5.88,1.96-7.43,5.5-7.7,8.16-.02.21-.04.44-.05.68-2.78-3.41-6.65-6.19-11.6-8.27-2.49-1.04-5.71-1.76-9.84-2.19-3.87-.41-7.78-.49-11.6-.24-3.97.26-7.55.91-10.65,1.94-5.88,1.96-7.43,5.5-7.7,8.16-.19,2.04-.22,5.74-.08,11.33.02.74.05,1.5.07,2.26-1.25-3.41-2.51-6.66-3.78-9.69-2.23-5.31-4.17-8.65-6.11-10.51l-.08-.07c-1.81-1.67-4.44-2.65-8.03-2.99-2.73-.26-5.59-.26-8.52,0-2.92.25-5.64.72-8.09,1.38-2.41.65-5.37,1.71-6.92,4.23-1.32,2.21-2.75,5.7-4.38,10.69-1.53,4.67-2.99,9.74-4.34,15.05-1.36,5.34-2.51,10.54-3.41,15.48-.96,5.24-1.39,9.13-1.33,11.98.07,1.9.76,3.61,2.01,4.98,1.89,2.16,5.03,2.66,10.07,2.8,5.56.16,7.39-.06,8.46-.3,1.45-.32,2.69-1.04,3.61-2.07.71-.76,1.5-1.92,2.88-4.72.76-1.56,1.46-3,2.11-4.34l4.25.02c.27.56.64,1.47,1.1,2.9,1.27,3.92,2.74,6.22,4.69,7.41.86.55,1.81.9,2.83,1.05l.15.02c.39.05.92.08,1.84.08,1.06,0,2.65-.05,5.15-.2,3.47-.21,6.32-.51,8.72-.92,1.31-.23,2.45-.63,3.44-1.16.41.34.86.62,1.37.85,2.17.94,5.09,1.39,9.07,1.39.89,0,1.84-.02,2.84-.07,5.73-.26,9.7-1.03,11.58-3.98.85-1.21,1.37-2.86,1.8-5.63.14-.92.28-1.94.41-3.04,5.13-.49,9.71-2.51,13.67-6.06,2.19-1.96,3.99-4.17,5.43-6.56.38,4.53.85,8.73,1.4,12.51.91,6.27,2,9.94,5.23,11.35,2.17.94,5.09,1.39,9.08,1.39.89,0,1.84-.02,2.84-.07,5.73-.26,9.7-1.03,11.58-3.98.84-1.21,1.37-2.86,1.8-5.63.14-.92.28-1.93.41-3.04,5.13-.49,9.71-2.51,13.67-6.06,2.73-2.45,4.87-5.25,6.43-8.37.48,1.96,1.13,3.52,2.18,4.63-2.39,2.91-3.4,6.4-2.93,10.14.36,3.16,1.65,5.88,3.86,8.1,2.15,2.16,4.79,3.51,7.83,4h0c.9.14,1.76.21,2.56.21,3.95,0,6.69-1.57,8.38-3.04,2.66-2.3,4.33-5.13,4.97-8.42.65-3.36.09-6.63-1.67-9.74-.28-.49-.62-1.01-1.04-1.53.18-.21.35-.43.5-.66,1.01-1.38,1.58-3.38,2.06-7.1ZM302.9,153.29c-2.19.38-4.91.66-8.16.85-3.25.19-5.28.24-6.1.14-.32-.05-.62-.16-.9-.33-.9-.55-1.76-2.12-2.6-4.72-.84-2.6-1.66-4.38-2.45-5.35-.47-.57-1.1-.91-1.87-1l-6.12-.03c-1.92.05-3.16.69-3.73,1.91-.75,1.57-1.59,3.31-2.53,5.23-.94,1.92-1.64,3.1-2.08,3.55-.22.27-.56.46-1.01.56-1.02.23-3.43.29-7.22.18-3.8-.11-5.96-.48-6.48-1.13-.47-.5-.72-1.11-.75-1.83-.05-2.41.36-6.05,1.25-10.9s2-9.9,3.33-15.14c1.33-5.24,2.75-10.15,4.25-14.73,1.5-4.58,2.81-7.81,3.92-9.68.45-.72,1.76-1.38,3.94-1.97,2.18-.59,4.58-1,7.22-1.23,2.64-.23,5.17-.23,7.62,0,2.44.23,4.14.8,5.12,1.69,1.4,1.34,3.05,4.29,4.96,8.84,1.91,4.55,3.78,9.51,5.61,14.87,1.83,5.36,3.46,10.5,4.92,15.43,1.45,4.93,2.42,8.41,2.89,10.45.33,1.49.23,2.53-.29,3.12-.52.59-1.43.99-2.72,1.22ZM344.61,136.79c-4.15,3.72-9.11,5.32-14.89,4.8-.22,2.86-.48,5.28-.79,7.24-.31,1.97-.65,3.17-1.02,3.62-.52.97-3.07,1.56-7.65,1.77-4.58.21-7.82-.1-9.71-.92-.85-.37-1.6-2.87-2.27-7.48-.67-4.62-1.21-9.81-1.63-15.58-.42-5.77-.7-11.33-.83-16.67-.13-5.34-.11-8.92.06-10.73.17-1.69,1.61-2.99,4.31-3.89,2.7-.9,5.83-1.47,9.39-1.7s7.14-.15,10.75.23c3.61.38,6.42.99,8.44,1.83,10.63,4.46,15.09,12.33,13.37,23.61-.86,5.53-3.37,10.15-7.52,13.86ZM403.57,122.84c-.86,5.53-3.37,10.15-7.52,13.86-4.15,3.72-9.11,5.32-14.89,4.8-.22,2.86-.48,5.28-.79,7.24-.31,1.97-.65,3.17-1.02,3.62-.52.97-3.07,1.56-7.65,1.77-4.58.21-7.82-.1-9.71-.92-.85-.37-1.6-2.87-2.27-7.48-.67-4.62-1.21-9.81-1.63-15.58-.42-5.77-.7-11.33-.83-16.67-.13-5.34-.11-8.92.06-10.73.17-1.69,1.61-2.99,4.31-3.89,2.7-.9,5.83-1.47,9.39-1.7s7.14-.16,10.75.22c3.61.38,6.42.99,8.44,1.83,10.63,4.46,15.09,12.33,13.37,23.61ZM427.76,146.73c-.42,2.17-1.53,4.03-3.33,5.59-1.8,1.56-4.1,2.12-6.88,1.67-1.99-.32-3.69-1.18-5.08-2.59-1.4-1.4-2.21-3.11-2.43-5.13-.35-2.84.54-5.28,2.69-7.34s4.64-2.85,7.48-2.38c3.14.52,5.29,1.8,6.45,3.85s1.53,4.16,1.11,6.33ZM428.37,118.47c-.18,3.58-.45,6.76-.81,9.54-.36,2.78-.76,4.4-1.21,4.87-.47.9-2.62,1.42-6.44,1.56-3.82.14-6.5-.19-8.05-1.01-.67-.35-1.24-2.09-1.71-5.24-.46-3.15-.83-6.66-1.08-10.53-.26-3.87-.4-7.6-.45-11.18-.04-3.58,0-5.99.16-7.21.12-1,1.17-1.76,3.15-2.28,1.98-.53,4.13-.82,6.47-.87,2.34-.05,4.5.12,6.48.51,1.98.4,3.03,1,3.16,1.82.3,2.36.48,5.39.52,9.09s-.03,7.34-.21,10.92Z"/>
      <path d="M67.08,62.86c4.33.29,8.74-.1,13.21-1.18.22.37.45.57.67.6,1.52.45,4.08.62,7.67.51,3.6-.1,5.59-.42,5.99-.94.42-.37.74-1.63.94-3.77.21-2.14.32-4.6.34-7.39.02-2.79-.04-5.62-.18-8.49-.14-2.87-.34-5.24-.59-7.11-.15-1-1.27-1.65-3.34-1.95-2.08-.31-4.32-.35-6.72-.12-2.4.23-4.57.68-6.51,1.35-1.94.68-2.86,1.49-2.76,2.43-.2,1.42-.42,2.83-.66,4.24-.25,1.41-1.45,2.1-3.62,2.08-2.99-.14-5.28-.99-6.87-2.55-1.6-1.55-2.52-3.32-2.77-5.3-.25-1.98.17-3.93,1.26-5.84,1.09-1.92,2.84-3.31,5.26-4.19,1.74-.6,3.74-.84,6.01-.72.52.07.77.46.73,1.16-.04.7.48,1.12,1.55,1.27.77.12,2.04.12,3.81,0,1.77-.13,3.55-.38,5.36-.77,1.8-.39,3.36-.91,4.68-1.58,1.32-.66,1.93-1.48,1.83-2.45-.11-6.37-2.36-10.77-6.76-13.2-4.4-2.43-9.28-3.52-14.66-3.26-8.14.44-14.87,3.09-20.2,7.95s-8.47,11.62-9.43,20.29c-.86,7.94,1.31,14.61,6.49,20,5.19,5.39,11.61,8.38,19.28,8.97Z"/>
      <path d="M99.19,42.71c.28,4.99.67,9.34,1.16,13.06.49,3.72,1.11,5.73,1.86,6.03,1.27.55,4,.88,8.18.99,4.18.12,8.55.08,13.1-.11s8.66-.56,12.32-1.08c3.66-.53,5.61-1.19,5.86-1.99.54-1.89.66-4.94.34-9.15-.32-4.21-.81-6.58-1.49-7.13-.62-.67-2.69-.9-6.2-.7-3.51.21-7.44.34-11.8.39,0-.3,0-.66,0-1.08,0-.42,0-.8,0-1.12,1.59-.05,3.04-.14,4.35-.25,1.31-.11,2.21-.25,2.71-.4.7-.1,1.13-.84,1.3-2.2.17-1.37.17-2.86.01-4.46-.17-1.6-.45-3.08-.87-4.44-.41-1.36-.83-2.09-1.25-2.22-1.77-.37-4.06-.58-6.87-.62-.03-.3-.05-.65-.08-1.04-.03-.4-.04-.75-.04-1.05,4.3-.16,8.07-.34,11.29-.56,3.22-.22,4.97-.77,5.24-1.67.54-1.92.77-4.76.68-8.53-.09-3.77-.48-5.93-1.15-6.48-.55-.55-2.68-.92-6.38-1.13-3.71-.2-7.74-.27-12.1-.2-4.36.07-8.41.24-12.17.52-3.76.28-5.95.61-6.57.98-.62.37-1.08,1.3-1.38,2.78-.3,1.48-.44,3.12-.44,4.91-.14,3.26-.19,7.49-.13,12.67.06,5.19.23,10.28.51,15.27Z"/>
      <path d="M145.3,23.41c.33,2.1.73,3.63,1.2,4.57.27.6,1.74,1.05,4.41,1.36,2.66.31,5.84.49,9.52.56.43,7.04,1.06,14,1.88,20.88.82,6.88,1.74,10.54,2.76,10.99.97.42,2.4.71,4.29.85,1.89.15,3.8.18,5.73.1,1.93-.08,3.66-.27,5.21-.57,1.54-.3,2.45-.7,2.72-1.2.72-.95,1.3-4.67,1.74-11.18.44-6.51.69-13.27.75-20.29,2.61-.1,4.97-.23,7.06-.37,2.09-.14,3.61-.29,4.55-.44,1.02-.08,1.88-1.28,2.59-3.63.71-2.34,1.13-4.9,1.28-7.69.14-2.79-.05-5.35-.57-7.69-.53-2.34-1.5-3.56-2.92-3.65-3.58-.22-8.16-.35-13.74-.41-5.58-.05-11.06,0-16.46.14-5.4.15-10.18.4-14.33.75-4.16.36-6.59.82-7.31,1.39-.5.27-.81,1.3-.95,3.08-.13,1.78-.15,3.77-.05,5.97.1,2.2.32,4.35.65,6.46Z"/>
      <path d="M251.39,61.63c.97.42,2.4.71,4.29.85s3.8.18,5.73.1c1.93-.08,3.66-.27,5.21-.57,1.54-.3,2.45-.7,2.72-1.2.72-.95,1.3-4.67,1.74-11.18.44-6.51.69-13.27.75-20.29,2.61-.1,4.97-.23,7.06-.37,2.09-.14,3.61-.29,4.55-.44,1.02-.08,1.88-1.28,2.59-3.63.71-2.34,1.13-4.9,1.28-7.69.14-2.79-.05-5.35-.57-7.69-.53-2.34-1.5-3.56-2.92-3.65-3.58-.22-8.16-.35-13.74-.41-5.58-.05-11.06,0-16.46.14-5.4.15-10.18.4-14.33.75-4.16.36-6.59.82-7.31,1.39-.5.27-.81,1.3-.95,3.08s-.15,3.77-.05,5.97c.1,2.2.32,4.35.65,6.46.33,2.1.73,3.63,1.2,4.57.27.6,1.74,1.05,4.41,1.36,2.66.31,5.84.49,9.52.56.43,7.04,1.06,14,1.88,20.88.82,6.88,1.74,10.54,2.76,10.99Z"/>
      <path d="M290.39,9.97c-.15,1.84-.07,5.49.22,10.96s.73,11.14,1.3,17.04c.57,5.9,1.24,11.22,2,15.96.77,4.74,1.55,7.3,2.35,7.67,1.79.82,4.8,1.12,9.02.9,4.22-.22,6.56-.81,7.03-1.79.32-.52.62-1.9.89-4.15s.5-4.99.7-8.25c1.37-.18,2.77-.37,4.2-.59,1.43-.21,2.84-.46,4.24-.74.33,3.58.7,6.62,1.1,9.13.4,2.5.8,4.01,1.2,4.53.52.97,2.9,1.54,7.11,1.72,4.22.18,7.2-.16,8.94-1,.75-.38,1.4-2.93,1.95-7.66.55-4.73.98-10.05,1.28-15.96s.48-11.6.53-17.06c.05-5.46-.05-9.11-.3-10.96-.23-1.52-1.54-2.67-3.94-3.45-2.4-.78-5.01-1.21-7.82-1.28-2.81-.07-5.39.2-7.73.82-2.34.61-3.54,1.56-3.62,2.82-.15,2.09-.22,4.56-.23,7.41,0,2.85.04,5.87.15,9.05-2.31.05-4.53.13-6.64.23-.06-3.21-.15-6.26-.3-9.16-.14-2.9-.33-5.41-.55-7.52-.15-1.24-1.41-2.16-3.78-2.76-2.37-.59-4.95-.84-7.77-.75-2.81.09-5.4.54-7.76,1.34-2.36.8-3.62,1.96-3.76,3.48Z"/>
      <path d="M347.84,9.45c-.3,1.48-.44,3.12-.44,4.91-.14,3.26-.19,7.48-.13,12.67s.23,10.28.51,15.27c.28,4.99.67,9.34,1.16,13.06.49,3.72,1.11,5.73,1.86,6.03,1.27.55,4,.88,8.18,1,4.18.12,8.55.08,13.1-.11,4.55-.19,8.66-.56,12.32-1.08,3.66-.53,5.61-1.19,5.86-1.99.54-1.89.66-4.94.34-9.15-.32-4.21-.81-6.58-1.49-7.13-.62-.67-2.69-.9-6.2-.7-3.51.21-7.44.34-11.8.39,0-.3,0-.66,0-1.08,0-.42,0-.8,0-1.12,1.59-.05,3.04-.14,4.35-.25,1.31-.11,2.21-.25,2.71-.4.7-.1,1.13-.84,1.3-2.2.17-1.37.17-2.86.01-4.46-.17-1.6-.45-3.08-.87-4.44-.41-1.36-.83-2.1-1.25-2.22-1.77-.37-4.06-.58-6.87-.62-.03-.3-.05-.65-.08-1.05-.03-.4-.04-.75-.04-1.05,4.3-.16,8.07-.34,11.29-.56,3.22-.22,4.97-.77,5.24-1.67.54-1.92.77-4.76.68-8.53-.09-3.77-.48-5.93-1.15-6.48-.55-.55-2.68-.92-6.38-1.13-3.71-.21-7.74-.27-12.1-.2-4.36.07-8.41.24-12.17.52-3.76.28-5.95.61-6.57.98-.62.37-1.08,1.3-1.38,2.78Z"/>
      <path d="M38.03,99.82c-2.02-.84-4.83-1.45-8.44-1.83-3.61-.38-7.19-.46-10.75-.23s-6.69.8-9.39,1.7c-2.7.9-4.13,2.2-4.31,3.89-.17,1.82-.19,5.39-.06,10.73.13,5.34.41,10.89.83,16.67.42,5.77.96,10.97,1.63,15.58.67,4.62,1.42,7.11,2.27,7.48,1.89.82,5.13,1.12,9.71.92s7.13-.8,7.65-1.77c.37-.45.71-1.66,1.02-3.62.31-1.97.57-4.38.79-7.24,5.77.51,10.74-1.09,14.89-4.8,4.15-3.71,6.66-8.34,7.52-13.86,1.72-11.28-2.73-19.15-13.37-23.61ZM25.26,119.62c-.23-2.99.85-4.69,3.24-5.12.35-.05.81-.06,1.38-.04,3.06.32,4.88,1.82,5.46,4.51.33,1.67.04,3.14-.87,4.42-.91,1.28-2.27,2.06-4.08,2.34-1.22.23-2.13.13-2.72-.29-1.37-.89-2.17-2.83-2.4-5.82Z"/>
      <path d="M111.21,152.39c.52-.59.62-1.62.29-3.12-.48-2.04-1.44-5.52-2.89-10.45-1.45-4.93-3.09-10.07-4.92-15.43-1.83-5.36-3.69-10.32-5.61-14.87-1.91-4.55-3.56-7.5-4.96-8.84-.97-.89-2.68-1.46-5.12-1.69-2.44-.23-4.98-.23-7.62,0-2.64.23-5.04.64-7.22,1.23-2.18.59-3.49,1.24-3.94,1.97-1.12,1.87-2.42,5.09-3.92,9.67-1.5,4.58-2.92,9.49-4.25,14.73-1.33,5.24-2.45,10.29-3.33,15.14s-1.3,8.49-1.25,10.9c.03.72.28,1.33.75,1.83.52.65,2.68,1.02,6.48,1.13,3.79.11,6.2.05,7.22-.18.45-.1.78-.29,1.01-.56.45-.45,1.14-1.63,2.08-3.55.94-1.92,1.78-3.66,2.53-5.23.57-1.22,1.81-1.86,3.73-1.91l6.12.03c.77.1,1.39.43,1.87,1,.8.97,1.62,2.75,2.45,5.35.84,2.6,1.71,4.17,2.6,4.72.27.17.57.29.9.33.82.1,2.86.05,6.1-.14,3.25-.19,5.97-.48,8.16-.85,1.29-.23,2.2-.63,2.72-1.22ZM87.54,128.33c-.25,1.27-1.8,1.96-4.64,2.08-2.85.12-4.46-.37-4.84-1.47-.22-.65.06-2,.87-4.05.8-2.05,1.62-3.52,2.44-4.39.97-1.05,2.28-.2,3.92,2.55,1.65,2.75,2.4,4.51,2.25,5.28Z"/>
      <path d="M161.1,141.24c-.03-1-1-2.49-2.92-4.47-1.92-1.99-4.15-4.04-6.69-6.15,3.85-3.22,5.26-8.46,4.23-15.72-.81-5.45-3-9.58-6.57-12.4-3.58-2.82-7.62-4.68-12.14-5.58-4.52-.9-9.05-1.01-13.61-.33-4.55.68-8.19,1.78-10.9,3.3-.75.42-1.13,3.32-1.16,8.7-.03,5.38.12,11.27.46,17.69.33,6.42.79,12.38,1.37,17.88.58,5.5,1.12,8.58,1.62,9.26.35.55.81.87,1.38.97.82.17,2.77.24,5.84.21,3.07-.03,5.8-.17,8.19-.42,2.09-.23,3.31-.81,3.66-1.76.35-.95.51-2.32.48-4.11.15-1.04,1.14-1.28,2.99-.71,1.89.64,4.39,1.97,7.49,3.96s5.46,2.83,7.08,2.51c.37,0,1.06-.54,2.05-1.61.99-1.07,2.02-2.32,3.09-3.74,1.07-1.42,2.01-2.84,2.83-4.26s1.23-2.49,1.23-3.21ZM136.85,114.36c1.18.94,1.78,2.06,1.8,3.36.01,1.29-.5,2.54-1.54,3.74-1.04,1.2-2.51,1.9-4.4,2.1-2.07.23-3.32-1.36-3.76-4.75-.44-3.4.36-5.21,2.4-5.44,2.49-.28,4.32.06,5.51,1Z"/>
      <path d="M218.29,106.41c-1.23-1.53-2.56-2.99-3.98-4.38-1.42-1.39-2.79-2.56-4.11-3.5-1.32-.94-2.25-1.35-2.8-1.23-.8.08-2.54,1.19-5.22,3.33-2.68,2.15-5.78,4.8-9.28,7.97-2.32-2.31-4.52-4.45-6.62-6.43-2.09-1.98-3.93-3.61-5.5-4.9-1.05-.82-2.65-.65-4.82.49-2.16,1.15-4.25,2.71-6.25,4.68s-3.58,4.06-4.75,6.26c-1.17,2.2-1.26,3.93-.29,5.17,1.65,2.14,5.2,5.98,10.66,11.52-2.31,2.34-4.45,4.55-6.41,6.62s-3.58,3.85-4.84,5.35c-.82,1-.67,2.6.44,4.8,1.11,2.2,2.64,4.33,4.58,6.4,1.94,2.06,4.01,3.71,6.19,4.95,2.18,1.24,3.9,1.4,5.17.48.97-.7,2.57-2.08,4.79-4.15s4.75-4.5,7.58-7.29c3.42,3.43,6.62,6.28,9.61,8.55,2.99,2.27,4.85,3.28,5.57,3.03,1.02-.37,2.26-1.2,3.73-2.47,1.47-1.27,2.85-2.66,4.16-4.15,1.3-1.5,2.39-2.92,3.26-4.28.87-1.36,1.23-2.32,1.08-2.89-.13-.8-1.24-2.54-3.33-5.22-2.09-2.68-4.71-5.8-7.85-9.36,3.45-3.76,6.32-7.1,8.61-10,2.28-2.9,3.3-4.73,3.05-5.47-.38-1.04-1.18-2.33-2.41-3.86Z"/>
      <path d="M305.63,152.07c.52-.59.62-1.62.29-3.12-.48-2.04-1.44-5.52-2.89-10.45-1.45-4.93-3.09-10.07-4.92-15.43-1.83-5.36-3.69-10.32-5.61-14.87-1.91-4.55-3.56-7.5-4.96-8.84-.97-.89-2.68-1.46-5.12-1.69-2.44-.23-4.98-.23-7.62,0-2.64.23-5.04.64-7.22,1.23-2.18.59-3.49,1.24-3.94,1.97-1.12,1.87-2.42,5.09-3.92,9.68-1.5,4.58-2.92,9.49-4.25,14.73-1.33,5.24-2.45,10.29-3.33,15.14s-1.3,8.49-1.25,10.9c.03.72.28,1.33.75,1.83.52.65,2.68,1.02,6.48,1.13,3.79.11,6.2.05,7.22-.18.45-.1.78-.29,1.01-.56.45-.45,1.14-1.63,2.08-3.55.94-1.92,1.78-3.66,2.53-5.23.57-1.22,1.81-1.86,3.73-1.91l6.12.03c.77.1,1.39.43,1.87,1,.8.97,1.62,2.75,2.45,5.35.84,2.6,1.71,4.17,2.6,4.72.27.17.57.29.9.33.82.1,2.86.05,6.1-.14,3.25-.19,5.97-.48,8.16-.85,1.29-.23,2.2-.63,2.72-1.22ZM281.96,128.01c-.25,1.27-1.8,1.96-4.64,2.08-2.85.12-4.46-.37-4.84-1.47-.22-.65.06-2,.87-4.05.8-2.05,1.62-3.52,2.44-4.39.97-1.05,2.28-.2,3.92,2.55,1.65,2.75,2.4,4.51,2.25,5.28Z"/>
      <path d="M338.76,99.32c-2.02-.84-4.83-1.45-8.44-1.83-3.61-.38-7.19-.46-10.75-.23s-6.69.79-9.39,1.7c-2.7.9-4.13,2.2-4.31,3.89-.17,1.82-.19,5.39-.06,10.73.13,5.34.41,10.89.83,16.67.42,5.77.96,10.97,1.63,15.58.67,4.62,1.42,7.11,2.27,7.48,1.89.82,5.13,1.12,9.71.92,4.58-.21,7.13-.8,7.65-1.77.37-.45.71-1.66,1.02-3.62.31-1.97.57-4.38.79-7.24,5.77.51,10.74-1.09,14.89-4.8,4.15-3.71,6.66-8.34,7.52-13.86,1.72-11.28-2.73-19.15-13.37-23.61ZM325.99,119.13c-.23-2.99.85-4.69,3.24-5.12.35-.05.81-.06,1.38-.04,3.06.32,4.88,1.82,5.46,4.51.33,1.67.04,3.14-.87,4.43-.91,1.28-2.27,2.06-4.08,2.34-1.22.23-2.13.13-2.72-.29-1.37-.89-2.17-2.83-2.4-5.82Z"/>
      <path d="M390.21,99.24c-2.02-.84-4.83-1.45-8.44-1.83-3.61-.38-7.19-.45-10.75-.22s-6.69.79-9.39,1.7c-2.7.9-4.13,2.2-4.31,3.89-.17,1.82-.19,5.39-.06,10.73.13,5.34.41,10.89.83,16.67.42,5.77.96,10.97,1.63,15.58.67,4.62,1.42,7.11,2.27,7.48,1.89.82,5.13,1.12,9.71.92,4.58-.21,7.13-.8,7.65-1.77.37-.45.71-1.66,1.02-3.62.31-1.97.57-4.38.79-7.24,5.77.51,10.74-1.09,14.89-4.8,4.15-3.71,6.66-8.34,7.52-13.86,1.72-11.28-2.73-19.15-13.37-23.61ZM377.43,119.04c-.23-2.99.85-4.69,3.24-5.12.35-.05.81-.06,1.38-.04,3.06.32,4.88,1.82,5.46,4.51.33,1.67.04,3.14-.87,4.43-.91,1.28-2.27,2.06-4.08,2.34-1.22.23-2.13.13-2.72-.29-1.37-.89-2.17-2.83-2.4-5.82Z"/>
      <path d="M424.9,96.64c-1.98-.39-4.14-.57-6.48-.51-2.34.05-4.5.34-6.47.87-1.98.53-3.03,1.29-3.15,2.28-.15,1.22-.2,3.62-.16,7.21.04,3.58.19,7.31.45,11.18.25,3.87.62,7.38,1.08,10.53.47,3.15,1.04,4.89,1.71,5.24,1.54.82,4.23,1.16,8.05,1.01,3.82-.14,5.96-.66,6.44-1.56.45-.47.85-2.1,1.21-4.87.36-2.78.62-5.96.81-9.54s.25-7.22.21-10.92-.22-6.73-.52-9.09c-.12-.82-1.18-1.43-3.16-1.82Z"/>
      <path d="M420.21,136.55c-2.84-.47-5.33.33-7.48,2.38s-3.05,4.5-2.69,7.34c.23,2.02,1.04,3.73,2.43,5.13,1.4,1.4,3.09,2.27,5.08,2.59,2.79.44,5.08-.11,6.88-1.67,1.8-1.56,2.91-3.42,3.33-5.59.42-2.17.05-4.27-1.11-6.33s-3.31-3.34-6.45-3.85Z"/>
    </g>
  </g>
</svg>