<?xml version="1.0" encoding="UTF-8"?>
<svg id="Layer_2" data-name="Layer 2" xmlns="http://www.w3.org/2000/svg" viewBox="0 0 1110.64 110.77">
  <defs>
    <style>
      .cls-1 {
        fill: #fff;
      }

      .cls-2 {
        fill: none;
      }
    </style>
  </defs>
  <g id="Layer_2-2" data-name="Layer 2">
    <g>
      <path class="cls-2" d="M1040.96,39.01h0s-.03,0-.07-.02c.05.45.12.84.18,1.16.08-.11.13-.24.04-.7-.07-.29-.14-.41-.16-.44Z"/>
      <path class="cls-2" d="M43.77,68.45c.82.77,2.11,1.16,3.36,1.34.1-.69.19-1.39.28-2.09.03-1.92.71-4.79,3.89-7.19-1.27-.55-2.28-1.31-3.05-2.21-.72.12-1.38.28-1.99.5-2.26.87-3.07,1.97-3.48,2.72-.97,1.77-.94,2.99-.83,3.76.1.72.41,1.84,1.82,3.18Z"/>
      <path class="cls-2" d="M970.62,40.2s-.02,0-.07-.03c.05.46.12.84.18,1.16.07-.11.13-.24.04-.7-.07-.29-.14-.41-.16-.44Z"/>
      <path class="cls-2" d="M744.16,56.54c1.3-1.41,2.67-2.89,4.11-4.42-4.89-4.92-8.27-8.54-10.27-10.99.53,6.95-.52,12.83-3.19,17.56,1.44,1.28,2.78,2.55,4.05,3.8,1.51-1.77,3.28-3.76,5.3-5.96Z"/>
      <path class="cls-2" d="M559.42,47.19s-.02,0-.07-.02c.05.46.12.84.18,1.16.08-.12.13-.25.04-.7-.07-.29-.14-.41-.16-.44Z"/>
      <path class="cls-1" d="M220.31,16.56c-5.03-.23-11.46-.31-19.14-.27-7.68.05-15.34.23-22.76.54-7.5.32-14.22.77-19.98,1.36-8.26.84-11.29,1.85-13.23,3.27-.34.23-.64.48-.92.75-.39-.55-.82-1.06-1.33-1.5-2.25-2.01-5.62-2.8-12.98-3.09-5.23-.21-10.96-.22-17.03-.03-6.05.19-11.78.52-17.03,1-7.88.71-10.21,1.4-11.96,2.49-3.82,2.38-4.66,6.91-4.93,8.4-.11.59-.2,1.2-.28,1.82-2.49-3.71-5.62-6.09-8.45-7.6-7.17-3.82-15.16-5.48-23.8-4.94-12.68.88-23.34,5.29-31.67,13.13C6.41,39.79,1.5,50.64.22,64.17c-1.2,12.94,2.59,23.92,11.25,32.66,8.39,8.46,18.81,13.12,31.05,13.87,1.08.06,2.16.08,3.24.08,4.6,0,9.27-.5,13.94-1.5.21.06.41.12.6.16,2.83.73,6.77.95,12.34.7,6.62-.29,10.56-.96,12.93-3.64.05-.06.1-.12.15-.18.73.71,1.58,1.3,2.61,1.7,1.9.77,5.04,1.57,13.65,1.68.98.01,1.97.02,2.97.02,4.96,0,10.13-.15,15.43-.46,6.42-.37,12.31-.98,17.5-1.82,5.94-.95,11.88-2.33,13.45-7.66l.04-.14c.94-3.47,1.09-8.21.48-14.93-.75-8.26-1.89-11.95-4.41-14.17-2.51-2.32-6.21-2.87-10.96-2.71.12-1.97.05-4.07-.2-6.24-.26-2.19-.67-4.28-1.22-6.23,2.41-.3,5.5-.97,7.84-2.71.48,2,1.04,3.62,1.72,4.93,2.11,4.21,7.03,5.04,11.48,5.48,2.22.22,4.7.38,7.41.48.68,7.62,1.53,15.23,2.54,22.71,1.88,13.94,3.71,18.51,8.15,20.36,2.06.86,4.71,1.38,8.1,1.59,1.48.09,2.97.14,4.48.14,1.38,0,2.77-.04,4.16-.12,2.97-.17,5.71-.51,8.14-1.02,2.57-.54,6.13-1.62,8.05-4.7,1.58-2.38,2.57-6.36,3.21-18.66.36-6.99.57-14.26.61-21.69,1.17-.08,2.29-.17,3.36-.26,2.95-.24,5.12-.48,6.62-.74,4.3-.54,7.36-3.87,9.08-9.91,1.06-3.73,1.68-7.82,1.84-12.17.16-4.41-.22-8.57-1.13-12.36-2.12-8.78-7.94-10.03-10.4-10.16ZM19.85,35.7c7.19-6.76,16.34-10.52,27.46-11.29,7.35-.47,14.05.92,20.11,4.15,6.06,3.23,9.24,9.2,9.52,17.91.16,1.32-.66,2.45-2.45,3.39-1.79.93-3.91,1.68-6.37,2.25-2.46.57-4.89.96-7.31,1.17-2.41.21-4.15.24-5.21.09-1.47-.18-2.18-.74-2.15-1.7.04-.95-.31-1.48-1.02-1.57-3.1-.12-5.83.25-8.2,1.11-3.28,1.25-5.65,3.2-7.1,5.84-1.45,2.65-1.99,5.32-1.6,8.02.39,2.7,1.69,5.1,3.9,7.18,2.21,2.09,5.36,3.2,9.45,3.34,2.96-.01,4.59-.99,4.9-2.92.31-1.93.58-3.86.82-5.81-.16-1.29,1.08-2.42,3.72-3.38,2.64-.96,5.6-1.63,8.88-1.99,3.28-.36,6.34-.35,9.19.02,2.85.38,4.39,1.24,4.61,2.6.38,2.55.7,5.78.96,9.71.25,3.93.4,7.8.43,11.61.03,3.81-.07,7.18-.31,10.11-.24,2.93-.65,4.66-1.22,5.18-.53.72-3.25,1.2-8.17,1.42-4.91.22-8.42.04-10.5-.54-.31-.03-.62-.3-.93-.8-6.1,1.57-12.11,2.19-18.04,1.89-10.5-.64-19.34-4.59-26.55-11.85-7.2-7.26-10.3-16.33-9.3-27.21,1.13-11.86,5.28-21.18,12.47-27.94ZM42.78,61.51c.41-.75,1.22-1.84,3.48-2.72.61-.22,1.27-.38,1.99-.5.77.89,1.79,1.66,3.05,2.21-3.19,2.4-3.86,5.27-3.89,7.19-.09.71-.18,1.4-.28,2.09-1.25-.18-2.54-.56-3.36-1.34-1.42-1.34-1.72-2.45-1.82-3.18-.11-.77-.14-1.99.83-3.76ZM139.77,45.2c-.35,1.23-2.73,2.03-7.13,2.39-4.4.36-9.55.7-15.43,1,0,.41.03.88.07,1.43.04.54.08,1.02.13,1.43,3.85,0,6.98.24,9.41.71.58.16,1.17,1.16,1.76,3.01.59,1.85,1.02,3.86,1.28,6.05.26,2.19.28,4.23.08,6.1-.21,1.88-.79,2.89-1.74,3.04-.68.22-1.91.42-3.69.6-1.78.19-3.77.33-5.94.43,0,.44.02.95.03,1.53.01.58.02,1.07.03,1.48,5.95-.17,11.33-.43,16.12-.78,4.79-.35,7.62-.08,8.49.83.93.73,1.66,3.97,2.18,9.71.52,5.74.43,9.91-.27,12.51-.32,1.1-2.98,2.04-7.97,2.84-4.99.8-10.6,1.38-16.82,1.74-6.22.36-12.19.51-17.91.43-5.72-.07-9.46-.47-11.2-1.19-1.03-.39-1.92-3.12-2.67-8.2-.75-5.08-1.37-11.02-1.86-17.84-.49-6.82-.83-13.77-1.02-20.87s-.22-12.87-.09-17.33c-.04-2.45.13-4.69.5-6.72.37-2.03.98-3.31,1.82-3.83.84-.52,3.83-1.02,8.96-1.48,5.13-.46,10.67-.78,16.63-.97,5.95-.19,11.47-.18,16.54.02,5.07.2,7.99.67,8.76,1.41.93.73,1.5,3.68,1.71,8.83.21,5.15-.04,9.05-.75,11.68ZM225.37,37.67c-.14,3.82-.67,7.33-1.58,10.55-.92,3.21-2.07,4.89-3.46,5.01-1.29.23-3.36.46-6.22.69-2.86.24-6.07.45-9.64.65.06,9.6-.14,18.85-.6,27.76-.46,8.91-1.18,14.02-2.14,15.33-.36.69-1.6,1.25-3.7,1.7-2.1.44-4.47.74-7.11.89-2.64.15-5.25.14-7.84-.02-2.59-.16-4.55-.52-5.89-1.07-1.41-.59-2.74-5.58-4.01-14.97-1.27-9.39-2.27-18.9-3.01-28.52-5.04-.02-9.38-.21-13.03-.57-3.65-.36-5.67-.95-6.06-1.76-.67-1.28-1.25-3.36-1.74-6.22-.49-2.87-.83-5.81-1.02-8.82-.19-3.01-.21-5.73-.06-8.17.14-2.43.55-3.85,1.23-4.23.97-.8,4.3-1.49,9.97-2.06,5.67-.57,12.2-1.02,19.58-1.33,7.38-.31,14.88-.49,22.51-.54,7.62-.04,13.89.04,18.79.27,1.94.1,3.3,1.75,4.07,4.94.77,3.19,1.08,6.69.95,10.5Z"/>
      <path class="cls-1" d="M487.35,64.75c-2.51-2.32-6.22-2.87-10.96-2.71.12-1.98.05-4.07-.2-6.24-.26-2.19-.67-4.28-1.22-6.23,3.83-.49,9.42-1.87,10.92-7.1l.03-.12c.89-3.34,1.21-7.83.97-13.72-.27-6.69-1.03-11.12-4.04-13.7-2.25-2.01-5.62-2.8-12.99-3.09-5.2-.21-10.93-.22-17.03-.03-6.05.19-11.78.53-17.03,1-7.87.71-10.2,1.39-11.97,2.49-.62.38-1.15.83-1.62,1.3-1.34-.91-3-1.72-5.09-2.36-3.92-1.21-8.18-1.84-12.67-1.88-4.47-.05-8.66.47-12.45,1.53-4.52,1.26-7.01,3.34-8.36,5.41-1.49-2.07-4.13-3.99-8.71-5.06-3.84-.9-8.06-1.25-12.53-1.04-4.5.22-8.72,1.02-12.55,2.38-1.84.66-3.33,1.45-4.54,2.31-2.48-2.69-5.43-3.24-7.01-3.32-5.03-.23-11.47-.32-19.14-.27-7.7.05-15.36.23-22.76.54-7.49.32-14.21.77-19.98,1.36-8.26.84-11.29,1.85-13.23,3.27-3.7,2.53-3.98,7.32-4.11,9.41-.16,2.7-.14,5.72.06,9,.2,3.25.57,6.46,1.1,9.54.62,3.61,1.37,6.2,2.38,8.16,2.11,4.21,7.03,5.04,11.48,5.48,2.22.22,4.7.38,7.41.48.68,7.62,1.53,15.23,2.54,22.71,1.88,13.94,3.71,18.51,8.15,20.36,2.06.86,4.71,1.38,8.1,1.59,1.48.09,2.98.14,4.49.14,1.38,0,2.77-.04,4.15-.12,2.97-.17,5.7-.51,8.14-1.02,2.57-.54,6.13-1.61,8.05-4.7,1.58-2.38,2.57-6.36,3.21-18.66.36-6.99.57-14.26.61-21.69,1.18-.08,2.3-.17,3.36-.26,2.95-.24,5.12-.48,6.62-.74,1.16-.15,2.23-.5,3.21-1.06.25,2.57.52,5.15.81,7.76.91,8.16,1.97,15.63,3.14,22.21,1.56,8.8,3.12,13.61,7.36,15.5,2.72,1.19,6.23,1.77,10.87,1.77,1.45,0,3.01-.06,4.69-.17,7.44-.5,12.88-1.76,15.17-6.22.92-1.69,1.44-3.98,1.88-8.17.06-.6.12-1.23.18-1.88.09.52.17,1.03.26,1.53.8,4.56,1.58,7.04,2.78,8.77,2.61,4.07,8.01,5.06,15.28,5.25,7.08.19,12.01-.54,15.54-2.33,1.68-.87,2.86-2.19,3.73-4.07.99,1.89,2.38,3.36,4.41,4.17,1.9.77,5.04,1.56,13.65,1.68.97.01,1.96.02,2.95.02,4.98,0,10.16-.16,15.45-.46,6.42-.37,12.31-.98,17.5-1.81,5.95-.95,11.88-2.33,13.45-7.67l.04-.14c.94-3.46,1.09-8.21.48-14.92-.75-8.26-1.89-11.96-4.41-14.17ZM319.74,95.65c-.36.69-1.59,1.25-3.7,1.7-2.1.44-4.47.74-7.11.89-2.64.15-5.25.14-7.84-.02-2.59-.16-4.55-.52-5.89-1.07-1.4-.59-2.74-5.58-4.01-14.97-1.27-9.39-2.27-18.89-3.01-28.52-5.04-.02-9.38-.21-13.03-.57-3.65-.36-5.67-.95-6.06-1.76-.67-1.28-1.25-3.36-1.74-6.22-.49-2.87-.83-5.81-1.02-8.82-.19-3.01-.21-5.73-.06-8.17.15-2.43.56-3.85,1.23-4.23.97-.8,4.3-1.48,9.97-2.06,5.67-.57,12.2-1.02,19.58-1.33,7.38-.31,14.88-.49,22.51-.54,7.62-.04,13.89.04,18.79.27,1.94.1,3.3,1.75,4.07,4.94.77,3.19,1.08,6.69.95,10.5-.14,3.82-.67,7.33-1.58,10.55-.91,3.21-2.07,4.88-3.46,5.01-1.29.23-3.36.46-6.22.69-2.86.24-6.07.45-9.64.65.06,9.6-.14,18.85-.6,27.76-.46,8.91-1.18,14.02-2.14,15.33ZM419.8,84.4c-.66,6.48-1.49,9.98-2.5,10.51-2.36,1.2-6.43,1.72-12.2,1.56-5.77-.16-9.03-.89-9.76-2.21-.56-.71-1.14-2.76-1.74-6.17-.6-3.41-1.17-7.56-1.69-12.46-1.9.41-3.82.77-5.78,1.09-1.95.32-3.86.62-5.73.89-.2,4.46-.46,8.23-.78,11.3-.32,3.07-.7,4.96-1.13,5.69-.62,1.34-3.82,2.2-9.58,2.59-5.76.39-9.88.04-12.35-1.04-1.1-.49-2.22-3.97-3.37-10.43-1.15-6.46-2.17-13.72-3.08-21.78-.9-8.05-1.61-15.81-2.13-23.27-.52-7.46-.7-12.45-.54-14.98.17-2.08,1.86-3.69,5.07-4.83,3.21-1.14,6.74-1.81,10.59-1.99,3.84-.18,7.39.1,10.63.87,3.25.76,4.99,1.99,5.22,3.69.35,2.89.66,6.31.91,10.27s.45,8.14.6,12.52c2.89-.19,5.92-.34,9.08-.46-.21-4.35-.34-8.48-.39-12.38-.05-3.89,0-7.28.16-10.14.07-1.74,1.7-3.05,4.89-3.94,3.18-.89,6.7-1.31,10.55-1.28,3.85.04,7.42.56,10.72,1.58,3.3,1.02,5.12,2.56,5.46,4.63.38,2.51.6,7.51.64,14.98.04,7.47-.08,15.25-.37,23.34-.29,8.09-.76,15.37-1.41,21.85ZM485.04,90.9c-.32,1.1-2.98,2.04-7.97,2.84-4.99.8-10.6,1.38-16.82,1.74-6.22.36-12.2.5-17.91.43-5.72-.07-9.46-.47-11.2-1.19-1.03-.39-1.92-3.13-2.67-8.2-.75-5.08-1.37-11.02-1.86-17.84-.49-6.82-.83-13.77-1.02-20.87-.19-7.09-.22-12.87-.09-17.33-.04-2.45.12-4.69.5-6.72.37-2.03.98-3.31,1.82-3.83s3.83-1.02,8.96-1.48c5.13-.46,10.67-.78,16.63-.97,5.95-.18,11.47-.18,16.54.03,5.08.2,7.99.67,8.76,1.41.93.73,1.5,3.68,1.71,8.83.21,5.15-.04,9.05-.75,11.68-.35,1.23-2.73,2.03-7.13,2.39-4.4.36-9.55.7-15.43,1,0,.41.03.89.07,1.43.04.54.08,1.02.13,1.43,3.85,0,6.98.24,9.41.71.58.16,1.17,1.16,1.76,3.01.59,1.85,1.02,3.86,1.28,6.05.26,2.19.28,4.23.08,6.1-.21,1.88-.79,2.89-1.73,3.04-.68.22-1.91.41-3.69.6-1.78.18-3.76.33-5.94.43,0,.44.02.95.03,1.53.01.58.02,1.07.02,1.48,5.95-.17,11.33-.43,16.12-.79,4.79-.35,7.62-.08,8.49.83.93.73,1.66,3.97,2.18,9.71.52,5.74.43,9.91-.27,12.51Z"/>
      <path class="cls-1" d="M566.61,44.99c-.85-3.66-3.36-5.68-7.56-6.05-.78-.02-1.41,0-1.89.08-3.26.63-4.7,2.99-4.32,7.07.38,4.08,1.51,6.71,3.4,7.91.83.57,2.07.68,3.73.35,2.48-.42,4.32-1.51,5.54-3.28,1.21-1.77,1.58-3.8,1.1-6.07ZM559.53,48.33c-.07-.32-.13-.71-.18-1.16.05.02.07.03.07.02.02.03.09.15.16.44.09.45.04.58-.04.7Z"/>
      <path class="cls-1" d="M635.01,49.52c-2.31-3.72-4.12-4.86-5.42-3.41-1.1,1.21-2.18,3.23-3.24,6.06-1.06,2.83-1.43,4.68-1.11,5.56.54,1.49,2.75,2.12,6.64,1.9,3.9-.22,6-1.2,6.31-2.94.19-1.06-.88-3.45-3.19-7.17Z"/>
      <path class="cls-1" d="M705.32,36.55c-1.64-1.27-4.16-1.68-7.55-1.25-2.79.35-3.84,2.85-3.17,7.48.67,4.64,2.42,6.78,5.24,6.42,2.58-.31,4.57-1.3,5.98-2.96,1.4-1.66,2.08-3.37,2.03-5.14-.05-1.77-.89-3.29-2.53-4.55Z"/>
      <path class="cls-1" d="M825.98,28.08l-.05-.13c-.81-2.16-2.29-4.52-4.53-7.2-1.88-2.26-3.93-4.44-6.08-6.48-2.22-2.11-4.41-3.91-6.51-5.37-2.35-1.63-5.46-3.38-8.92-2.74-2.58.42-5.34,2.08-10.24,6.13-2.44,2.01-5.15,4.36-8.08,7-1.59-1.5-3.15-2.95-4.66-4.33-3-2.75-5.68-5.06-7.97-6.89l-.13-.1c-2.6-1.98-7.15-3.54-14,.23-3.5,1.93-6.87,4.52-10.02,7.72-3.17,3.22-5.72,6.71-7.58,10.35-.67,1.31-1.13,2.53-1.44,3.67-2.07-5.87-5.44-10.62-10.08-14.16-5.79-4.42-12.4-7.33-19.63-8.66-6.95-1.28-14-1.34-20.96-.19-7.11,1.17-12.72,3-17.18,5.6-4.21,2.48-4.88,7.52-4.77,17.88.03,3.27.12,6.72.25,10.29-1.74-4.53-3.5-8.85-5.28-12.89-3.16-7.21-5.88-11.73-8.57-14.24l-.11-.1c-2.52-2.24-6.13-3.52-11.04-3.92-3.74-.3-7.66-.24-11.65.17-3.98.41-7.7,1.1-11.04,2.06-3.28.94-7.31,2.46-9.37,5.93-1.76,3.05-3.65,7.86-5.77,14.7-1.9,6.11-3.7,12.73-5.38,19.69,2.24-18.24-5.72-31.56-23.1-38.54-3.43-1.37-7.85-2.28-13.51-2.79-5.31-.48-10.65-.5-15.86-.09-5.43.43-10.32,1.4-14.52,2.88-8,2.8-10.05,7.68-10.36,11.33-.22,2.79-.18,7.85.13,15.49.3,7.36.8,15.13,1.51,23.1.71,8.01,1.59,15.33,2.62,21.76,1.37,8.56,2.95,13.55,7.4,15.42,2.79,1.16,6.48,1.72,11.39,1.72,1.52,0,3.16-.05,4.93-.16,7.83-.47,13.24-1.61,15.76-5.68,1.13-1.67,1.81-3.94,2.34-7.74.18-1.26.34-2.65.49-4.16,7-.77,13.22-3.64,18.56-8.57,4.82-4.45,8.27-9.7,10.32-15.65-1.02,4.75-1.93,9.42-2.69,13.93-1.2,7.18-1.71,12.51-1.57,16.41.13,2.58,1.12,4.91,2.85,6.76,2.64,2.92,6.93,3.53,13.83,3.62.91.01,1.75.02,2.53.02,5.66,0,7.75-.3,9.03-.6,1.97-.47,3.66-1.47,4.89-2.9.96-1.05,2.02-2.65,3.84-6.52,1.01-2.14,1.94-4.13,2.79-5.98l5.81-.06c.38.76.91,2,1.57,3.94,1.8,5.3,3.84,8.41,6.61,10.06,1.17.71,2.45,1.16,3.82,1.35l.24.03c1.14.12,3.17.17,9.55-.3,4.66-.35,8.66-.83,11.9-1.44,1.34-.25,2.56-.63,3.65-1.12,1.27,1.04,2.77,1.75,4.41,2.03.95.18,2.36.33,5.56.33,1.06,0,2.31-.02,3.8-.05,4.41-.11,8.39-.38,11.87-.8,7.02-.87,9.62-4.29,10.58-7.02.07-.19.13-.38.19-.58,1.28.67,2.83,1.56,4.71,2.73,5.78,3.6,10.36,4.95,14.36,4.24,2.83-.39,4.96-2.34,6.84-4.44,1.49-1.65,3.03-3.58,4.59-5.72.91-1.25,1.75-2.5,2.55-3.76,1.07,1.37,2.23,2.71,3.51,4.02,3.16,3.25,6.59,5.9,10.18,7.87,3,1.65,5.59,2.23,7.77,2.23,3.11,0,5.35-1.2,6.67-2.19,1.57-1.17,3.84-3.18,7.13-6.34,1.76-1.69,3.65-3.54,5.65-5.53,3.16,2.84,6.21,5.34,9.09,7.47,5.94,4.37,9.94,6.45,14.06,4.95l.13-.05c2.18-.84,4.52-2.39,7.14-4.74,2.2-1.97,4.3-4.14,6.25-6.44,1.96-2.31,3.63-4.58,4.96-6.74,1.49-2.41,3.07-5.59,2.28-9.04-.42-2.06-1.64-4.45-6.02-9.89-2.02-2.5-4.4-5.32-7.13-8.41,3.01-3.51,5.65-6.75,7.86-9.65,4.33-5.68,6.54-9.78,5.07-13.97ZM738,41.14c2,2.45,5.37,6.06,10.27,10.99-1.44,1.53-2.81,3.01-4.11,4.42-2.02,2.2-3.79,4.19-5.3,5.96-1.27-1.25-2.61-2.52-4.05-3.8,2.67-4.74,3.72-10.62,3.19-17.56ZM612.6,19.96c.6-1,2.38-1.92,5.34-2.77,2.96-.85,6.25-1.46,9.85-1.83,3.6-.37,7.07-.42,10.41-.15,3.34.27,5.69,1,7.03,2.2,1.94,1.8,4.26,5.8,6.97,11.98,2.71,6.18,5.37,12.92,7.98,20.21,2.61,7.29,4.96,14.29,7.05,20.99,2.09,6.7,3.48,11.45,4.17,14.23.48,2.03.37,3.46-.34,4.27-.7.81-1.93,1.39-3.7,1.72-2.99.56-6.7,1.01-11.13,1.34-4.44.33-7.22.44-8.34.32-.44-.06-.85-.21-1.23-.44-1.24-.73-2.46-2.86-3.66-6.4-1.2-3.54-2.36-5.96-3.47-7.27-.66-.77-1.52-1.22-2.58-1.33l-8.37.09c-2.62.11-4.31,1.01-5.06,2.69-.98,2.16-2.1,4.56-3.35,7.21-1.25,2.64-2.17,4.27-2.78,4.9-.3.38-.75.64-1.36.79-1.39.33-4.68.46-9.87.4-5.19-.06-8.15-.53-8.88-1.4-.66-.67-1.01-1.5-1.06-2.48-.12-3.3.37-8.28,1.48-14.93,1.11-6.66,2.53-13.58,4.24-20.78,1.72-7.19,3.55-13.94,5.5-20.23,1.95-6.3,3.67-10.73,5.16-13.31ZM588.67,50.74c-1.06,7.58-4.39,13.95-9.99,19.11-5.6,5.17-12.35,7.46-20.26,6.88-.24,3.92-.55,7.23-.93,9.92-.38,2.7-.82,4.35-1.32,4.97-.69,1.34-4.17,2.2-10.42,2.58-6.26.38-10.69.03-13.29-1.05-1.16-.49-2.25-3.89-3.26-10.18-1.01-6.3-1.86-13.39-2.56-21.27-.69-7.88-1.19-15.48-1.48-22.77-.29-7.3-.34-12.19-.15-14.68.2-2.32,2.13-4.12,5.81-5.41,3.67-1.29,7.94-2.13,12.8-2.52,4.86-.39,9.76-.36,14.71.08s8.8,1.22,11.58,2.33c14.63,5.88,20.89,16.54,18.77,32ZM702.05,88.64c-.45,1.3-2.11,2.13-4.96,2.48-3.26.4-6.99.65-11.19.75-4.2.1-6.87.05-7.99-.17-.79-.12-1.42-.55-1.91-1.29-.7-.91-1.5-5.11-2.41-12.62-.91-7.51-1.66-15.65-2.25-24.42-.59-8.77-.93-16.83-1-24.19-.07-7.35.4-11.32,1.41-11.92,3.67-2.14,8.62-3.72,14.83-4.74,6.21-1.02,12.42-.97,18.61.17,6.2,1.14,11.77,3.6,16.72,7.38,4.95,3.78,8.03,9.39,9.25,16.82,1.56,9.91-.25,17.11-5.45,21.59,3.52,2.83,6.61,5.59,9.28,8.27,2.67,2.68,4.03,4.7,4.09,6.06.02.99-.52,2.46-1.61,4.42s-2.35,3.92-3.78,5.89c-1.43,1.96-2.81,3.69-4.15,5.18-1.34,1.49-2.26,2.23-2.77,2.24-2.2.48-5.45-.61-9.73-3.28-4.28-2.67-7.73-4.42-10.32-5.26-2.53-.74-3.89-.39-4.07,1.04.07,2.45-.11,4.33-.57,5.63ZM815.84,36.74c-3.06,4.02-6.92,8.64-11.56,13.85,4.37,4.79,8.02,9,10.94,12.63,2.92,3.62,4.47,5.98,4.66,7.07.22.78-.25,2.11-1.41,3.98-1.16,1.88-2.62,3.85-4.37,5.92-1.75,2.07-3.62,3.99-5.6,5.76-1.98,1.77-3.66,2.92-5.05,3.45-.98.36-3.54-.99-7.68-4.03-4.14-3.04-8.58-6.88-13.32-11.49-3.81,3.88-7.22,7.26-10.22,10.13-3,2.88-5.15,4.8-6.46,5.78-1.71,1.29-4.07,1.11-7.08-.54-3.01-1.65-5.86-3.87-8.56-6.65-2.7-2.78-4.84-5.66-6.4-8.65s-1.8-5.17-.7-6.55c1.7-2.07,3.87-4.54,6.51-7.41,2.64-2.87,5.52-5.93,8.63-9.18-7.58-7.46-12.52-12.64-14.82-15.52-1.36-1.68-1.26-4.04.29-7.08,1.55-3.04,3.67-5.93,6.36-8.66,2.69-2.73,5.51-4.91,8.44-6.52,2.93-1.62,5.12-1.87,6.57-.78,2.17,1.73,4.71,3.93,7.62,6.58,2.9,2.66,5.97,5.54,9.18,8.65,4.73-4.4,8.9-8.1,12.53-11.09,3.62-2.99,5.98-4.54,7.07-4.66.74-.18,2.03.36,3.86,1.62,1.82,1.26,3.72,2.83,5.7,4.7,1.97,1.87,3.82,3.84,5.54,5.9,1.72,2.07,2.85,3.81,3.38,5.23.36,1.02-1,3.53-4.06,7.55Z"/>
      <path class="cls-1" d="M900.84,45c-2.31-3.72-4.11-4.86-5.42-3.41-1.1,1.21-2.18,3.23-3.24,6.06-1.06,2.83-1.43,4.68-1.11,5.56.54,1.49,2.75,2.12,6.65,1.91,3.89-.22,6-1.2,6.31-2.94.19-1.06-.88-3.45-3.19-7.17Z"/>
      <path class="cls-1" d="M977.82,38c-.84-3.66-3.36-5.68-7.56-6.05-.78-.02-1.41,0-1.89.08-3.26.63-4.7,2.99-4.32,7.07.38,4.08,1.51,6.71,3.4,7.91.83.56,2.07.68,3.73.34,2.48-.42,4.32-1.51,5.54-3.28,1.21-1.77,1.58-3.8,1.09-6.07ZM970.74,41.34c-.07-.32-.13-.71-.18-1.16.05.02.07.03.07.03.02.02.08.15.16.44.09.46.03.59-.04.7Z"/>
      <path class="cls-1" d="M1048.15,36.8c-.85-3.66-3.37-5.68-7.56-6.05-.78-.02-1.41,0-1.89.08-3.26.63-4.7,2.99-4.32,7.07.38,4.08,1.51,6.71,3.4,7.91.83.57,2.07.68,3.73.35,2.48-.42,4.32-1.51,5.54-3.28,1.21-1.77,1.58-3.8,1.1-6.07ZM1041.07,40.14c-.07-.32-.13-.71-.18-1.16.04.02.06.03.07.03h0s.08.15.16.44c.09.45.03.58-.04.7Z"/>
      <path class="cls-1" d="M1109.56,51.04c.45-3.99.76-8.56.94-13.59.18-5.02.19-10.19.05-15.36-.14-5.36-.46-9.68-.97-13.2l-.03-.17c-.49-2.92-2.61-6.68-9.86-8.01-3.2-.59-6.7-.81-10.37-.67-3.72.14-7.23.67-10.43,1.58-7.01,1.98-8.87,6.01-9.2,9.05-.09.89-.2,2.38-.19,5.57-3.86-4.52-9.17-8.17-15.89-10.87-3.43-1.37-7.85-2.29-13.51-2.79-5.31-.48-10.65-.51-15.86-.09-5.42.43-10.31,1.4-14.52,2.88-8,2.81-10.05,7.68-10.36,11.33-.02.28-.04.59-.06.91-3.87-4.6-9.23-8.31-16.04-11.04-3.43-1.37-7.85-2.28-13.51-2.79-5.31-.48-10.65-.5-15.86-.09-5.43.43-10.31,1.4-14.52,2.88-8,2.8-10.05,7.68-10.36,11.33-.22,2.79-.18,7.85.13,15.49.04,1,.09,2.04.14,3.05-1.77-4.63-3.57-9.03-5.37-13.14-3.16-7.21-5.88-11.74-8.57-14.24l-.11-.1c-2.52-2.24-6.13-3.52-11.04-3.92-3.74-.3-7.66-.24-11.65.17-3.98.4-7.69,1.1-11.05,2.06-3.28.94-7.3,2.46-9.37,5.92-1.76,3.04-3.65,7.85-5.77,14.71-1.99,6.41-3.88,13.37-5.62,20.67-1.74,7.28-3.2,14.42-4.34,21.24-1.2,7.18-1.71,12.51-1.57,16.41.13,2.58,1.12,4.92,2.86,6.76,2.64,2.92,6.93,3.53,13.83,3.61.9.01,1.72.02,2.48.02,5.7,0,7.79-.3,9.06-.6,1.98-.47,3.66-1.47,4.9-2.91.96-1.05,2.01-2.65,3.84-6.51,1.01-2.14,1.94-4.13,2.79-5.98l5.81-.06c.38.76.91,2,1.57,3.94,1.8,5.3,3.84,8.41,6.61,10.06,1.17.71,2.45,1.16,3.82,1.35l.24.03c1.14.12,3.16.17,9.55-.3,4.67-.35,8.67-.83,11.9-1.44,1.79-.34,3.36-.9,4.7-1.64.56.45,1.18.82,1.88,1.12,2.79,1.16,6.48,1.72,11.39,1.72,1.52,0,3.16-.05,4.93-.16,7.83-.47,13.24-1.61,15.76-5.68,1.13-1.67,1.81-3.94,2.34-7.74.18-1.26.34-2.65.49-4.16,7-.77,13.22-3.64,18.56-8.57,2.95-2.72,5.38-5.74,7.3-9.03.62,6.16,1.34,11.88,2.17,17.01,1.37,8.56,2.95,13.54,7.4,15.41,2.79,1.16,6.47,1.72,11.39,1.72,1.52,0,3.17-.05,4.94-.16,7.83-.47,13.24-1.61,15.76-5.68,1.13-1.67,1.81-3.94,2.34-7.74.18-1.26.34-2.65.49-4.16,7-.77,13.22-3.64,18.56-8.57,3.68-3.39,6.55-7.25,8.63-11.54.69,2.65,1.62,4.76,3.07,6.25-3.21,4.03-4.52,8.82-3.8,13.93.55,4.31,2.38,8,5.44,10.99,2.98,2.92,6.62,4.7,10.8,5.3h0c1.12.16,2.19.24,3.19.24,5.57,0,9.38-2.25,11.71-4.33,3.59-3.2,5.82-7.11,6.62-11.61.82-4.6-.02-9.07-2.49-13.28-.39-.66-.87-1.37-1.45-2.07.24-.29.47-.59.67-.92,1.36-1.91,2.09-4.66,2.67-9.76ZM878.43,15.44c.6-1,2.38-1.92,5.34-2.77,2.96-.85,6.25-1.46,9.85-1.83,3.6-.37,7.07-.42,10.41-.15,3.34.27,5.69,1,7.03,2.2,1.94,1.81,4.26,5.8,6.97,11.98,2.71,6.18,5.37,12.92,7.98,20.21,2.61,7.29,4.96,14.29,7.05,20.99,2.09,6.7,3.48,11.45,4.17,14.23.48,2.03.37,3.46-.34,4.27-.7.81-1.93,1.39-3.7,1.72-2.99.56-6.7,1.01-11.13,1.34-4.44.33-7.22.44-8.34.32-.44-.06-.85-.21-1.23-.44-1.24-.73-2.46-2.86-3.66-6.4-1.2-3.54-2.36-5.96-3.47-7.27-.66-.77-1.52-1.22-2.58-1.33l-8.37.09c-2.62.11-4.31,1.01-5.06,2.69-.98,2.16-2.1,4.56-3.35,7.21-1.25,2.64-2.17,4.27-2.78,4.9-.3.38-.75.64-1.36.79-1.39.33-4.68.46-9.87.4-5.19-.06-8.15-.53-8.88-1.4-.66-.67-1.01-1.5-1.06-2.48-.12-3.3.37-8.28,1.48-14.93,1.11-6.66,2.53-13.58,4.24-20.78,1.72-7.19,3.55-13.94,5.5-20.23,1.95-6.3,3.67-10.73,5.16-13.31ZM989.88,62.86c-5.6,5.17-12.35,7.46-20.25,6.88-.24,3.92-.55,7.23-.93,9.92-.38,2.7-.82,4.36-1.32,4.98-.69,1.34-4.17,2.2-10.42,2.58-6.26.38-10.69.03-13.29-1.05-1.16-.49-2.25-3.88-3.26-10.18-1.01-6.3-1.86-13.39-2.56-21.27s-1.19-15.48-1.48-22.77c-.29-7.3-.34-12.19-.15-14.68.2-2.32,2.13-4.12,5.8-5.41,3.67-1.29,7.94-2.13,12.8-2.52,4.86-.39,9.76-.36,14.71.08,4.94.44,8.8,1.22,11.58,2.33,14.63,5.88,20.89,16.54,18.77,32-1.06,7.58-4.39,13.95-9.99,19.11ZM1060.22,61.67c-5.6,5.17-12.35,7.46-20.25,6.88-.24,3.92-.55,7.23-.93,9.92-.38,2.7-.82,4.35-1.32,4.98-.69,1.34-4.17,2.2-10.42,2.58-6.26.38-10.69.03-13.29-1.05-1.16-.49-2.25-3.88-3.26-10.18-1.01-6.3-1.86-13.39-2.56-21.27-.69-7.88-1.19-15.48-1.48-22.77-.29-7.3-.34-12.19-.15-14.68.2-2.32,2.13-4.12,5.8-5.41,3.67-1.29,7.94-2.13,12.8-2.52,4.86-.39,9.76-.36,14.71.08,4.94.44,8.8,1.22,11.58,2.33,14.63,5.88,20.89,16.54,18.77,32-1.06,7.57-4.39,13.95-9.99,19.11ZM1103.79,74.71c-.53,2.97-2.01,5.54-4.44,7.71-2.43,2.17-5.56,2.98-9.38,2.43-2.73-.4-5.06-1.54-7-3.43-1.94-1.89-3.08-4.21-3.44-6.96-.54-3.87.63-7.24,3.53-10.09,2.9-2.86,6.29-3.99,10.18-3.42,4.3.64,7.26,2.35,8.89,5.13,1.63,2.78,2.18,5.66,1.65,8.63ZM1104.02,36.06c-.17,4.9-.47,9.26-.9,13.06-.43,3.8-.94,6.03-1.54,6.69-.63,1.24-3.55,1.99-8.77,2.27-5.22.28-8.89-.13-11.02-1.22-.93-.46-1.74-2.84-2.44-7.13-.7-4.29-1.27-9.08-1.7-14.37s-.71-10.38-.85-15.28c-.14-4.9-.11-8.18.06-9.86.15-1.36,1.57-2.43,4.26-3.19,2.69-.76,5.64-1.2,8.84-1.32,3.2-.12,6.15.07,8.87.56,2.72.5,4.17,1.31,4.36,2.43.46,3.23.76,7.37.9,12.42.14,5.05.12,10.03-.05,14.94Z"/>
      <path d="M7.39,63.64c-1.01,10.88,2.09,19.95,9.3,27.21,7.2,7.26,16.05,11.21,26.55,11.85,5.93.31,11.94-.32,18.04-1.89.32.5.63.77.93.8,2.08.58,5.59.76,10.5.54,4.92-.22,7.64-.69,8.17-1.42.57-.52.98-2.24,1.22-5.18.24-2.93.34-6.3.31-10.11-.03-3.81-.17-7.68-.43-11.61-.25-3.93-.57-7.16-.96-9.71-.23-1.36-1.76-2.23-4.61-2.6-2.85-.38-5.91-.38-9.19-.02-3.28.36-6.24,1.02-8.88,1.99-2.64.96-3.88,2.09-3.72,3.38-.24,1.94-.51,3.88-.82,5.81-.31,1.93-1.94,2.9-4.9,2.92-4.09-.13-7.24-1.25-9.45-3.34-2.21-2.09-3.51-4.48-3.9-7.18-.39-2.7.15-5.37,1.6-8.02,1.45-2.64,3.82-4.59,7.1-5.84,2.37-.86,5.1-1.23,8.2-1.11.72.09,1.06.61,1.02,1.57-.03.95.68,1.52,2.15,1.7,1.06.15,2.79.12,5.21-.09,2.41-.21,4.85-.6,7.31-1.17,2.46-.57,4.58-1.32,6.37-2.25,1.79-.93,2.6-2.06,2.45-3.39-.29-8.71-3.46-14.68-9.52-17.91-6.06-3.23-12.77-4.62-20.11-4.15-11.12.77-20.27,4.53-27.46,11.29-7.19,6.76-11.34,16.07-12.47,27.94Z"/>
      <path d="M138.81,24.69c-.76-.74-3.68-1.21-8.76-1.41-5.08-.2-10.59-.21-16.54-.02-5.95.19-11.5.51-16.63.97-5.13.46-8.12.96-8.96,1.48-.84.53-1.45,1.8-1.82,3.83-.37,2.03-.54,4.27-.5,6.72-.13,4.46-.1,10.24.09,17.33s.53,14.05,1.02,20.87c.49,6.82,1.11,12.76,1.86,17.84.75,5.08,1.64,7.81,2.67,8.2,1.75.72,5.48,1.11,11.2,1.19,5.72.07,11.69-.07,17.91-.43,6.22-.36,11.83-.94,16.82-1.74,4.99-.8,7.65-1.75,7.97-2.84.71-2.6.8-6.77.27-12.51-.52-5.74-1.25-8.98-2.18-9.71-.87-.9-3.7-1.18-8.49-.83-4.79.35-10.17.62-16.12.78,0-.41-.02-.9-.03-1.48-.01-.58-.02-1.09-.03-1.53,2.18-.1,4.16-.25,5.94-.43,1.78-.18,3.01-.38,3.69-.6.95-.15,1.53-1.17,1.74-3.04.21-1.87.18-3.91-.08-6.1-.26-2.19-.69-4.21-1.28-6.05-.59-1.85-1.18-2.85-1.76-3.01-2.43-.47-5.56-.71-9.41-.71-.04-.41-.08-.88-.13-1.43-.04-.54-.07-1.02-.07-1.43,5.88-.31,11.02-.64,15.43-1,4.4-.36,6.78-1.16,7.13-2.39.7-2.63.95-6.53.75-11.68-.21-5.15-.77-8.1-1.71-8.83Z"/>
      <path d="M220.36,22.23c-4.91-.22-11.17-.31-18.79-.27-7.62.04-15.13.22-22.51.54-7.38.31-13.91.76-19.58,1.33-5.68.57-9,1.26-9.97,2.06-.68.39-1.09,1.8-1.23,4.23-.15,2.44-.13,5.16.06,8.17.19,3.01.53,5.95,1.02,8.82.49,2.87,1.07,4.94,1.74,6.22.39.81,2.41,1.4,6.06,1.76,3.65.36,7.99.55,13.03.57.74,9.62,1.75,19.13,3.01,28.52,1.27,9.39,2.6,14.38,4.01,14.97,1.34.56,3.3.91,5.89,1.07,2.59.16,5.2.17,7.84.02,2.63-.15,5-.44,7.11-.89,2.1-.44,3.33-1.01,3.7-1.7.96-1.31,1.68-6.42,2.14-15.33.46-8.91.66-18.16.6-27.76,3.57-.2,6.78-.41,9.64-.65,2.86-.23,4.93-.47,6.22-.69,1.39-.13,2.55-1.8,3.46-5.01.92-3.21,1.44-6.73,1.58-10.55.14-3.81-.18-7.31-.95-10.5-.77-3.19-2.12-4.83-4.07-4.94Z"/>
      <path d="M322.48,52.56c3.57-.2,6.78-.41,9.64-.65,2.85-.23,4.93-.47,6.22-.69,1.39-.13,2.55-1.8,3.46-5.01.92-3.21,1.44-6.73,1.58-10.55.14-3.81-.18-7.31-.95-10.5-.77-3.19-2.12-4.83-4.07-4.94-4.91-.22-11.17-.31-18.79-.27-7.62.04-15.13.22-22.51.54-7.38.31-13.91.76-19.58,1.33-5.68.57-9,1.26-9.97,2.06-.68.39-1.09,1.8-1.23,4.23-.15,2.44-.12,5.16.06,8.17.19,3.01.53,5.95,1.02,8.82.49,2.87,1.07,4.94,1.74,6.22.39.81,2.41,1.4,6.06,1.76,3.65.36,7.99.55,13.03.57.74,9.62,1.75,19.13,3.01,28.52,1.27,9.39,2.6,14.38,4.01,14.97,1.34.56,3.3.91,5.89,1.07,2.59.16,5.2.17,7.84.02,2.63-.15,5-.44,7.11-.89,2.1-.44,3.33-1.01,3.7-1.7.96-1.31,1.68-6.42,2.14-15.33.46-8.91.66-18.16.6-27.76Z"/>
      <path d="M421.22,62.55c.29-8.09.41-15.87.37-23.34-.04-7.47-.25-12.46-.64-14.98-.34-2.07-2.16-3.61-5.46-4.63-3.3-1.02-6.88-1.54-10.72-1.58-3.85-.04-7.36.39-10.55,1.28-3.19.89-4.81,2.2-4.89,3.94-.16,2.86-.21,6.24-.16,10.14.05,3.9.18,8.02.39,12.38-3.16.12-6.19.28-9.08.46-.14-4.39-.34-8.56-.6-12.52s-.56-7.39-.91-10.27c-.23-1.7-1.97-2.93-5.22-3.69-3.25-.76-6.79-1.05-10.63-.87-3.84.19-7.37.85-10.59,1.99-3.21,1.15-4.9,2.76-5.07,4.83-.16,2.52.02,7.51.54,14.98.52,7.46,1.23,15.22,2.13,23.27.9,8.05,1.93,15.31,3.08,21.78,1.15,6.46,2.27,9.94,3.37,10.43,2.47,1.08,6.59,1.43,12.35,1.04,5.76-.39,8.96-1.25,9.58-2.59.43-.72.81-2.62,1.13-5.69.32-3.07.58-6.83.78-11.3,1.87-.27,3.78-.57,5.73-.89,1.95-.32,3.88-.69,5.78-1.09.52,4.89,1.09,9.04,1.69,12.46.6,3.41,1.18,5.47,1.74,6.17.74,1.32,3.99,2.05,9.76,2.21,5.77.16,9.84-.36,12.2-1.56,1.01-.53,1.85-4.03,2.5-10.51.65-6.48,1.13-13.76,1.41-21.85Z"/>
      <path d="M483.13,68.67c-.87-.9-3.7-1.18-8.49-.83-4.79.35-10.17.62-16.12.79,0-.41-.01-.9-.02-1.48-.01-.58-.02-1.09-.03-1.53,2.18-.11,4.16-.25,5.94-.43,1.78-.18,3.02-.38,3.69-.6.95-.15,1.53-1.17,1.73-3.04.21-1.87.18-3.91-.08-6.1-.26-2.19-.69-4.21-1.28-6.05-.59-1.84-1.18-2.85-1.76-3.01-2.43-.47-5.56-.71-9.41-.71-.04-.41-.08-.88-.13-1.43-.04-.54-.07-1.02-.07-1.43,5.88-.3,11.02-.64,15.43-1,4.4-.37,6.78-1.16,7.13-2.39.7-2.63.95-6.52.75-11.68-.21-5.15-.78-8.1-1.71-8.83-.76-.74-3.68-1.2-8.76-1.41-5.08-.2-10.59-.21-16.54-.03-5.95.19-11.5.51-16.63.97-5.13.46-8.12.96-8.96,1.48s-1.45,1.8-1.82,3.83c-.37,2.03-.54,4.27-.5,6.72-.13,4.46-.1,10.24.09,17.33.19,7.09.53,14.05,1.02,20.87.49,6.82,1.11,12.76,1.86,17.84.75,5.08,1.64,7.81,2.67,8.2,1.75.72,5.48,1.11,11.2,1.19,5.72.07,11.69-.07,17.91-.43,6.22-.36,11.83-.94,16.82-1.74,4.99-.8,7.65-1.75,7.97-2.84.7-2.6.79-6.77.27-12.51-.52-5.74-1.25-8.98-2.18-9.71Z"/>
      <path d="M569.9,18.74c-2.78-1.11-6.64-1.89-11.58-2.33s-9.85-.47-14.71-.08c-4.86.39-9.13,1.23-12.8,2.52-3.67,1.29-5.61,3.09-5.81,5.41-.2,2.49-.15,7.38.15,14.68.29,7.3.79,14.89,1.48,22.77.7,7.89,1.55,14.98,2.56,21.27,1.01,6.3,2.1,9.69,3.26,10.18,2.6,1.08,7.04,1.43,13.29,1.05,6.26-.38,9.73-1.24,10.42-2.58.5-.62.94-2.28,1.32-4.97.38-2.7.69-6,.93-9.92,7.91.58,14.66-1.71,20.26-6.88,5.6-5.17,8.93-11.54,9.99-19.11,2.12-15.46-4.14-26.12-18.77-32ZM565.52,51.06c-1.21,1.77-3.06,2.87-5.54,3.28-1.66.33-2.91.22-3.73-.35-1.89-1.19-3.03-3.83-3.4-7.91-.38-4.08,1.06-6.43,4.32-7.07.48-.08,1.1-.1,1.89-.08,4.19.37,6.71,2.39,7.56,6.05.48,2.27.12,4.29-1.1,6.07Z"/>
      <path d="M601.94,53.5c-1.72,7.2-3.13,14.12-4.24,20.78-1.11,6.66-1.6,11.63-1.48,14.93.05.99.41,1.81,1.06,2.48.73.87,3.69,1.34,8.88,1.4,5.19.07,8.48-.07,9.87-.4.61-.15,1.07-.41,1.36-.79.6-.62,1.53-2.26,2.78-4.9,1.25-2.64,2.36-5.04,3.35-7.21.75-1.68,2.44-2.58,5.06-2.69l8.37-.09c1.06.12,1.92.56,2.58,1.33,1.11,1.31,2.27,3.73,3.47,7.27,1.2,3.54,2.42,5.67,3.66,6.4.38.23.79.38,1.23.44,1.13.12,3.91.01,8.34-.32,4.44-.33,8.15-.78,11.13-1.34,1.76-.34,3-.91,3.7-1.72.7-.81.81-2.23.34-4.27-.69-2.78-2.09-7.52-4.17-14.23-2.09-6.7-4.44-13.7-7.05-20.99-2.61-7.29-5.27-14.03-7.98-20.21-2.71-6.18-5.03-10.18-6.97-11.98-1.35-1.2-3.69-1.94-7.03-2.2-3.34-.27-6.81-.22-10.41.15-3.6.37-6.88.98-9.85,1.83-2.97.85-4.74,1.78-5.34,2.77-1.49,2.58-3.21,7.02-5.16,13.31-1.95,6.3-3.79,13.04-5.5,20.23ZM631.88,59.63c-3.89.22-6.11-.42-6.64-1.9-.32-.88.05-2.73,1.11-5.56,1.06-2.83,2.14-4.84,3.24-6.06,1.3-1.45,3.11-.32,5.42,3.41,2.31,3.72,3.37,6.11,3.19,7.17-.31,1.74-2.41,2.72-6.31,2.94Z"/>
      <path d="M702.61,83.01c.18-1.43,1.53-1.78,4.07-1.04,2.6.84,6.04,2.6,10.32,5.26,4.29,2.67,7.53,3.76,9.73,3.28.51,0,1.43-.76,2.77-2.24,1.34-1.49,2.72-3.21,4.15-5.18,1.43-1.96,2.69-3.93,3.78-5.89s1.63-3.43,1.61-4.42c-.06-1.36-1.42-3.38-4.09-6.06-2.67-2.68-5.76-5.43-9.28-8.27,5.2-4.48,7.02-11.67,5.45-21.59-1.22-7.43-4.3-13.04-9.25-16.82-4.95-3.78-10.52-6.24-16.72-7.38-6.2-1.14-12.4-1.19-18.61-.17-6.21,1.02-11.16,2.61-14.83,4.74-1.01.6-1.48,4.57-1.41,11.92.07,7.35.41,15.41,1,24.19.59,8.77,1.34,16.91,2.25,24.42.91,7.51,1.71,11.72,2.41,12.62.49.74,1.13,1.17,1.91,1.29,1.13.22,3.79.28,7.99.17,4.2-.11,7.93-.36,11.19-.75,2.85-.35,4.51-1.18,4.96-2.48.46-1.3.64-3.18.57-5.63ZM705.82,46.25c-1.4,1.66-3.39,2.65-5.98,2.96-2.82.35-4.57-1.78-5.24-6.42-.68-4.63.38-7.13,3.17-7.48,3.4-.43,5.91-.02,7.55,1.25,1.64,1.27,2.48,2.78,2.53,4.55.05,1.77-.63,3.48-2.03,5.14Z"/>
      <path d="M816.52,23.97c-1.72-2.06-3.57-4.03-5.54-5.9-1.97-1.87-3.87-3.44-5.7-4.7-1.83-1.26-3.11-1.8-3.86-1.62-1.09.12-3.44,1.68-7.07,4.66-3.62,2.99-7.8,6.69-12.53,11.09-3.22-3.11-6.28-5.99-9.18-8.65-2.9-2.66-5.44-4.85-7.62-6.58-1.45-1.1-3.64-.84-6.57.78-2.93,1.62-5.75,3.79-8.44,6.52-2.69,2.74-4.81,5.62-6.36,8.66-1.55,3.04-1.64,5.4-.29,7.08,2.3,2.89,7.23,8.06,14.82,15.52-3.11,3.25-5.99,6.31-8.63,9.18-2.64,2.87-4.81,5.34-6.51,7.41-1.1,1.38-.87,3.56.7,6.55s3.7,5.87,6.4,8.65c2.7,2.78,5.56,5,8.56,6.65,3.01,1.65,5.37,1.83,7.08.54,1.31-.98,3.47-2.9,6.46-5.78,3-2.88,6.4-6.25,10.22-10.13,4.74,4.62,9.18,8.45,13.32,11.49,4.14,3.04,6.69,4.39,7.68,4.03,1.39-.53,3.07-1.69,5.05-3.45,1.98-1.77,3.84-3.69,5.6-5.76,1.75-2.07,3.21-4.04,4.37-5.92,1.16-1.87,1.63-3.2,1.41-3.98-.19-1.09-1.74-3.44-4.66-7.07-2.92-3.63-6.57-7.84-10.94-12.63,4.64-5.22,8.5-9.84,11.56-13.85,3.06-4.02,4.42-6.53,4.06-7.55-.53-1.42-1.66-3.16-3.38-5.23Z"/>
      <path d="M867.77,48.98c-1.72,7.2-3.13,14.12-4.24,20.78-1.11,6.66-1.61,11.63-1.48,14.93.05.99.41,1.81,1.06,2.48.73.87,3.69,1.34,8.88,1.4,5.19.07,8.48-.07,9.87-.4.61-.15,1.06-.41,1.36-.79.6-.62,1.53-2.26,2.78-4.9,1.25-2.64,2.37-5.04,3.35-7.21.75-1.68,2.44-2.58,5.06-2.69l8.37-.09c1.06.12,1.92.56,2.58,1.33,1.11,1.31,2.27,3.73,3.47,7.27,1.2,3.54,2.42,5.67,3.66,6.4.38.23.79.38,1.23.44,1.12.12,3.9.01,8.34-.32,4.44-.33,8.15-.77,11.13-1.34,1.76-.34,3-.91,3.7-1.72.7-.81.81-2.24.34-4.27-.69-2.78-2.09-7.52-4.17-14.23-2.09-6.7-4.44-13.7-7.05-20.99-2.61-7.29-5.27-14.03-7.98-20.21-2.71-6.18-5.03-10.18-6.97-11.98-1.35-1.2-3.69-1.94-7.03-2.2-3.34-.27-6.81-.22-10.41.15-3.6.37-6.88.98-9.85,1.83-2.96.85-4.74,1.78-5.34,2.77-1.49,2.58-3.21,7.02-5.16,13.31-1.95,6.3-3.79,13.04-5.5,20.23ZM897.72,55.11c-3.89.22-6.11-.42-6.65-1.91-.32-.88.05-2.73,1.11-5.56,1.06-2.83,2.14-4.84,3.24-6.06,1.3-1.45,3.11-.32,5.42,3.41,2.31,3.72,3.37,6.11,3.19,7.17-.31,1.74-2.41,2.72-6.31,2.94Z"/>
      <path d="M981.1,11.75c-2.78-1.11-6.64-1.89-11.58-2.33-4.94-.44-9.84-.47-14.71-.08-4.86.39-9.13,1.23-12.8,2.52-3.67,1.29-5.61,3.09-5.8,5.41-.2,2.49-.15,7.38.15,14.68.29,7.3.79,14.89,1.48,22.77s1.55,14.98,2.56,21.27c1.01,6.3,2.1,9.69,3.26,10.18,2.61,1.08,7.04,1.43,13.29,1.05,6.26-.38,9.73-1.24,10.42-2.58.5-.62.94-2.28,1.32-4.98.38-2.69.69-6,.93-9.92,7.91.58,14.66-1.71,20.25-6.88,5.6-5.17,8.93-11.54,9.99-19.11,2.12-15.45-4.14-26.12-18.77-32ZM976.72,44.07c-1.21,1.77-3.06,2.87-5.54,3.28-1.66.33-2.91.22-3.73-.34-1.89-1.19-3.03-3.83-3.4-7.91-.38-4.08,1.06-6.43,4.32-7.07.48-.08,1.1-.1,1.89-.08,4.19.37,6.71,2.39,7.56,6.05.48,2.27.12,4.29-1.09,6.07Z"/>
      <path d="M1051.44,10.55c-2.78-1.11-6.64-1.89-11.58-2.33-4.94-.44-9.85-.47-14.71-.08-4.86.39-9.13,1.23-12.8,2.52-3.67,1.29-5.61,3.09-5.8,5.41-.2,2.49-.15,7.38.15,14.68.29,7.3.79,14.89,1.48,22.77.7,7.89,1.55,14.98,2.56,21.27,1.01,6.3,2.1,9.69,3.26,10.18,2.61,1.08,7.04,1.43,13.29,1.05,6.26-.38,9.73-1.24,10.42-2.58.5-.62.94-2.28,1.32-4.98.38-2.69.69-6,.93-9.92,7.91.58,14.66-1.71,20.25-6.88,5.6-5.17,8.93-11.54,9.99-19.11,2.12-15.46-4.14-26.12-18.77-32ZM1047.06,42.87c-1.21,1.77-3.06,2.87-5.54,3.28-1.66.33-2.91.22-3.73-.35-1.89-1.19-3.03-3.83-3.4-7.91-.38-4.08,1.06-6.43,4.32-7.07.48-.08,1.1-.1,1.89-.08,4.19.37,6.71,2.39,7.56,6.05.48,2.27.12,4.29-1.1,6.07Z"/>
      <path d="M1103.18,8.7c-.19-1.12-1.64-1.93-4.36-2.43-2.71-.5-5.67-.69-8.87-.56-3.2.12-6.14.56-8.84,1.32-2.69.76-4.11,1.83-4.26,3.19-.18,1.67-.2,4.95-.06,9.86.13,4.9.42,9.99.85,15.28s1,10.08,1.7,14.37c.7,4.29,1.52,6.67,2.44,7.13,2.13,1.09,5.81,1.49,11.02,1.22,5.22-.28,8.14-1.03,8.77-2.27.6-.66,1.12-2.89,1.54-6.69.43-3.8.73-8.16.9-13.06.17-4.91.19-9.88.05-14.94-.14-5.05-.44-9.19-.9-12.42Z"/>
      <path d="M1093.24,60.95c-3.89-.58-7.28.56-10.18,3.42-2.9,2.86-4.07,6.22-3.53,10.09.35,2.75,1.5,5.07,3.44,6.96,1.94,1.89,4.27,3.03,7,3.43,3.82.55,6.95-.26,9.38-2.43,2.43-2.17,3.91-4.74,4.44-7.71.53-2.97-.02-5.85-1.65-8.63-1.63-2.78-4.6-4.49-8.89-5.13Z"/>
    </g>
  </g>
</svg>