<?xml version="1.0" encoding="UTF-8"?>
<svg id="Layer_2" data-name="Layer 2" xmlns="http://www.w3.org/2000/svg" viewBox="0 0 421.76 429.76">
  <defs>
    <style>
      .cls-1 {
        fill: #fff;
      }

      .cls-2 {
        fill: none;
      }
    </style>
  </defs>
  <g id="Layer_2-2" data-name="Layer 2">
    <g>
      <path class="cls-2" d="M18.93,174.39c2.37.34,4.03.06,4.97-.85.43-.39.67-1.09.71-2.08.1-1.47-.27-2.67-1.11-3.6-.84-.93-1.95-1.42-3.3-1.45-2.2-.02-3.69,1.14-4.48,3.47-.12.44-.19.81-.21,1.09-.08,1.94,1.06,3.08,3.43,3.43Z"/>
      <path class="cls-2" d="M315.46,55.17c1.33.63,2.58.73,3.76.28s2.03-1.29,2.56-2.54c.82-2.04.29-3.85-1.59-5.44-.37-.27-.68-.47-.93-.59-1.77-.79-3.26-.14-4.45,1.94s-1.53,3.73-1.02,4.93c.21.55.76,1.02,1.67,1.42Z"/>
      <path class="cls-2" d="M278.58,384.45c-.43.15-.77.29-1.02.43-1.65,1.02-1.96,2.61-.91,4.76,1.05,2.16,2.21,3.37,3.5,3.63.57.14,1.27-.06,2.12-.58,1.27-.74,2.06-1.72,2.35-2.94.3-1.22.08-2.4-.65-3.55-1.22-1.83-3.01-2.42-5.39-1.76Z"/>
      <path class="cls-2" d="M350.41,88.66c.54-.33,1.18-1.72,1.92-4.17.74-2.45.55-3.69-.6-3.7-.96-.02-2.26.29-3.92.91-1.65.63-2.61,1.18-2.87,1.66-.45.81.13,2.03,1.73,3.66s2.84,2.17,3.73,1.64Z"/>
      <path class="cls-2" d="M320.66,369.89c-2.33-1.08-3.57-1.05-3.75.07-.15.95-.03,2.28.36,4,.39,1.72.8,2.75,1.24,3.08.74.56,2.03.16,3.86-1.2,1.83-1.36,2.55-2.51,2.14-3.46-.25-.58-1.54-1.41-3.86-2.49Z"/>
      <path class="cls-2" d="M379.29,120.6c1.24.28,2.31.17,3.22-.33s1.47-1.35,1.68-2.54c.21-1.19-.25-2.61-1.39-4.26-.94-1.35-2.52-1.23-4.74.37-2.23,1.6-2.87,3.09-1.92,4.46.86,1.26,1.91,2.02,3.15,2.3Z"/>
      <path class="cls-2" d="M57.7,98.15c.89,1.53,1.6,2.38,2.12,2.56.87.31,1.98-.46,3.32-2.31,1.34-1.85,1.67-3.17,1-3.95-.41-.48-1.89-.88-4.43-1.21-2.54-.33-3.73.07-3.55,1.2.14.95.66,2.18,1.55,3.71Z"/>
      <path class="cls-2" d="M347.27,338c-1.2.17-2.4,1.06-3.6,2.67-.99,1.32-.37,2.77,1.86,4.38,2.22,1.6,3.83,1.74,4.83.41.92-1.21,1.32-2.45,1.19-3.72s-.57-2.25-1.33-2.95c-.76-.7-1.74-.96-2.94-.79Z"/>
      <path d="M2.69,187.25c1.39.45,4.18,1.09,8.38,1.92,4.19.83,8.58,1.59,13.17,2.27s8.74,1.17,12.46,1.45c3.72.29,5.8.13,6.24-.46.97-1.33,1.78-3.81,2.42-7.42.64-3.61.63-5.71-.04-6.29-.29-.37-1.17-.85-2.65-1.43-1.48-.58-3.32-1.21-5.52-1.89,1.41-4.42,1.03-8.58-1.14-12.47-2.18-3.89-5.35-6.66-9.51-8.3-8.51-3.32-15.44-1.22-20.78,6.31-1.01,1.43-1.98,3.52-2.91,6.27-.93,2.75-1.62,5.54-2.06,8.36-.44,2.82-.55,5.36-.32,7.63s.99,3.61,2.28,4.04ZM15.71,169.88c.79-2.34,2.28-3.49,4.48-3.47,1.36.04,2.46.52,3.3,1.45.84.93,1.21,2.13,1.11,3.6-.04.99-.27,1.68-.71,2.08-.94.91-2.59,1.2-4.97.85-2.37-.34-3.52-1.49-3.43-3.43.02-.28.09-.64.21-1.09Z"/>
      <path d="M12.12,139.52c1.18.73,3.68,2.01,7.51,3.84,3.83,1.83,7.9,3.69,12.21,5.57s8.32,3.49,12.03,4.83c3.71,1.34,6.03,1.85,6.97,1.54.94-.31,2.13-1.72,3.57-4.23,1.45-2.51,2.87-5.31,4.28-8.39s2.65-6.05,3.74-8.89c1.08-2.85,1.73-4.79,1.92-5.82.14-.68-.55-1.51-2.08-2.5-1.53-.98-3.29-1.87-5.29-2.67-1.99-.79-3.92-1.38-5.78-1.76-1.86-.38-3.05-.29-3.57.25-.36.38-.78,1.21-1.28,2.47-.5,1.26-1.02,2.58-1.57,3.94-.55,1.36-1.1,2.56-1.65,3.62-.55,1.05-1.06,1.54-1.54,1.47-.29-.03-1.46-.49-3.49-1.39-2.03-.9-4.3-1.92-6.8-3.05-2.51-1.13-4.92-2.22-7.25-3.26s-3.94-1.71-4.83-2.02c-.56-.17-1.37.51-2.44,2.04-1.07,1.53-2.07,3.29-2.99,5.28-.92,1.99-1.61,3.9-2.05,5.74-.45,1.84-.32,2.97.39,3.39Z"/>
      <path d="M42.13,99.74c2.14,3.21,4.52,6.54,7.15,9.98s5.25,6.64,7.86,9.61c2.61,2.97,4.69,5.03,6.23,6.19.47.34.97.49,1.52.44.67,0,1.97-1.18,3.92-3.51,1.95-2.33,3.1-3.88,3.47-4.63.16-.33.21-.63.15-.91-.06-.5-.46-1.53-1.2-3.07-.74-1.54-1.42-2.94-2.03-4.18-.48-.96-.27-2.06.65-3.29l3.05-3.83c.44-.44.96-.66,1.56-.68,1-.02,2.53.35,4.58,1.11,2.05.76,3.47,1,4.26.7.25-.09.46-.22.65-.4.47-.47,1.45-1.77,2.94-3.91,1.49-2.14,2.66-3.99,3.51-5.55.5-.92.69-1.7.58-2.31s-.71-1.2-1.81-1.73c-1.52-.71-4.19-1.83-8-3.36-3.82-1.53-7.86-3.05-12.13-4.56-4.27-1.51-8.32-2.79-12.12-3.85-3.81-1.06-6.48-1.48-8.01-1.27-1.04.17-2.24.96-3.6,2.38-1.36,1.42-2.62,3.01-3.78,4.78-1.17,1.77-2.1,3.49-2.81,5.15-.71,1.66-.95,2.81-.72,3.45.62,1.63,2,4.05,4.13,7.26ZM59.7,93.23c2.54.33,4.02.73,4.43,1.21.68.78.34,2.1-1,3.95-1.34,1.85-2.45,2.62-3.32,2.31-.52-.18-1.22-1.03-2.12-2.56-.89-1.52-1.41-2.76-1.55-3.71-.18-1.13,1.01-1.53,3.55-1.2Z"/>
      <path d="M70.46,67.32c.67.69,3.03,1.52,7.08,2.47,4.05.95,8.59,1.72,13.62,2.29,2.79,3.11,5.47,5.79,8.02,8.02,2.55,2.24,4.2,3.3,4.94,3.2.35-.04,1.11-.47,2.29-1.3,1.18-.83,2.42-1.75,3.71-2.77,1.29-1.01,2.45-2,3.46-2.96,1.01-.96,1.53-1.62,1.56-1.98,0-.73-.78-2.58-2.34-5.56-1.57-2.98-3.52-6.21-5.86-9.68.79-4.84,1.27-9.25,1.43-13.24.17-3.99.03-6.39-.4-7.21-.21-.54-1.02-1.07-2.43-1.58s-2.97-.93-4.67-1.25c-1.7-.32-3.31-.53-4.83-.63-1.52-.09-2.5,0-2.92.26-1.01.65-1.9,2.56-2.68,5.73-.78,3.17-1.51,6.72-2.18,10.65-3.94-.49-7.54-.8-10.78-.93-3.24-.13-5.31.18-6.2.91-.39.34-.74,1.28-1.06,2.8s-.53,3.18-.66,4.94c-.12,1.77-.12,3.42.01,4.97.13,1.54.42,2.5.87,2.86Z"/>
      <path d="M137.71,21.11c.5,1.69,1.08,3.32,1.74,4.9.66,1.57,1.26,2.68,1.81,3.32.33.41,1.56.48,3.69.21,2.13-.27,4.63-.73,7.51-1.38,1.68,5.39,3.5,10.68,5.46,15.87,1.95,5.19,3.37,7.86,4.25,8.01.83.14,2,.09,3.5-.16,1.5-.25,2.99-.59,4.47-1.02,1.48-.43,2.8-.91,3.94-1.44,1.14-.53,1.77-1.01,1.89-1.45.38-.87.12-3.88-.79-9.03s-2-10.45-3.3-15.92c2.01-.58,3.82-1.12,5.41-1.63,1.6-.51,2.75-.91,3.46-1.21.78-.25,1.22-1.36,1.32-3.31.1-1.95-.06-4.03-.48-6.22-.42-2.19-1.06-4.15-1.92-5.87-.86-1.72-1.85-2.48-2.97-2.28-2.83.52-6.41,1.29-10.76,2.31s-8.6,2.11-12.77,3.26c-4.17,1.15-7.84,2.25-11,3.33-3.16,1.07-4.97,1.9-5.42,2.48-.33.31-.38,1.17-.15,2.58.24,1.41.61,2.96,1.11,4.65Z"/>
      <path d="M191.78,26.1c.36,4.73.81,9,1.34,12.8.54,3.81,1.12,5.87,1.75,6.18,1.42.68,3.82.97,7.2.87,3.38-.1,5.27-.54,5.66-1.31.27-.41.53-1.51.78-3.3.25-1.79.48-3.99.69-6.59,1.1-.12,2.22-.25,3.37-.4,1.15-.15,2.28-.32,3.4-.52.2,2.87.45,5.31.73,7.32.28,2.01.58,3.22.89,3.65.4.79,2.29,1.28,5.67,1.5,3.37.21,5.76,0,7.17-.66.6-.29,1.17-2.32,1.68-6.1.52-3.78.95-8.03,1.29-12.75.34-4.73.57-9.27.71-13.65.13-4.37.11-7.3-.06-8.77-.16-1.22-1.19-2.16-3.1-2.82-1.91-.66-3.99-1.05-6.24-1.15s-4.32.07-6.2.52-2.86,1.19-2.94,2.2c-.15,1.67-.25,3.65-.31,5.93-.05,2.28-.06,4.7-.03,7.25-1.85,0-3.63.03-5.32.08,0-2.57-.02-5.02-.08-7.34s-.17-4.33-.32-6.03c-.1-1-1.09-1.75-2.98-2.27-1.88-.51-3.95-.76-6.2-.73-2.25.03-4.33.34-6.24.94s-2.93,1.51-3.07,2.72c-.15,1.47-.15,4.4,0,8.77.15,4.38.4,8.93.76,13.66Z"/>
      <path d="M242.38,49.06c3.22.93,6.61,1.77,10.18,2.53,3.57.76,6.82,1.3,9.77,1.62,2.94.32,4.59.2,4.94-.37.8-1.36,1.5-3.7,2.09-7.02.59-3.32.69-5.26.27-5.82-.35-.65-1.9-1.24-4.66-1.78-2.76-.54-5.84-1.23-9.22-2.05.06-.23.13-.51.21-.84.08-.33.16-.62.22-.87,1.24.28,2.39.5,3.42.68s1.76.25,2.18.23c.56.06,1.04-.42,1.45-1.45.41-1.03.71-2.18.9-3.46.19-1.28.27-2.48.22-3.62-.05-1.13-.22-1.79-.53-1.97-1.3-.64-3.03-1.26-5.2-1.86.04-.24.09-.51.15-.83s.12-.59.18-.82c3.37.74,6.32,1.35,8.87,1.82,2.54.48,4.01.39,4.4-.25.81-1.38,1.55-3.54,2.23-6.48.68-2.94.82-4.69.4-5.25-.32-.53-1.89-1.25-4.72-2.15-2.83-.9-5.95-1.76-9.34-2.58s-6.57-1.49-9.54-2.03c-2.97-.53-4.73-.72-5.29-.55s-1.1.79-1.62,1.88c-.53,1.09-.97,2.33-1.32,3.72-.76,2.5-1.64,5.77-2.63,9.8-.99,4.03-1.88,8.01-2.66,11.94-.78,3.92-1.35,7.38-1.71,10.36-.36,2.98-.29,4.66.24,5.04.88.68,2.92,1.48,6.14,2.41Z"/>
      <path d="M295.25,69.5c3.13,1.92,5.08,2.67,5.86,2.26.45-.13,1.22-.78,2.3-1.94,1.09-1.16,2.35-2.65,3.78-4.45,3.6,2.93,7.6,4.1,12.02,3.5s8.15-2.53,11.21-5.81c6.21-6.7,6.79-13.92,1.75-21.65-.96-1.46-2.55-3.13-4.77-5.01-2.22-1.87-4.56-3.53-7.02-4.98-2.46-1.45-4.79-2.48-6.98-3.09-2.19-.62-3.73-.4-4.6.64-.93,1.13-2.55,3.49-4.86,7.09-2.31,3.6-4.62,7.4-6.94,11.42s-4.29,7.7-5.92,11.06c-1.63,3.36-2.25,5.35-1.85,5.98.89,1.39,2.89,3.05,6.02,4.97ZM314.81,48.81c1.19-2.08,2.67-2.73,4.45-1.94.25.12.56.32.93.59,1.89,1.59,2.42,3.4,1.59,5.44-.53,1.25-1.39,2.1-2.56,2.54s-2.43.35-3.76-.28c-.91-.4-1.47-.87-1.67-1.42-.51-1.21-.17-2.85,1.02-4.93Z"/>
      <path d="M319.88,82.76c-.42.4-.64.88-.68,1.43-.1.66.83,2.14,2.81,4.45s3.31,3.71,3.99,4.19c.3.21.59.31.87.3.51.02,1.58-.2,3.23-.67,1.64-.47,3.13-.91,4.46-1.31,1.03-.32,2.08.08,3.14,1.19l3.27,3.65c.36.51.49,1.06.41,1.65-.15.99-.77,2.44-1.86,4.33s-1.56,3.25-1.4,4.08c.04.26.14.49.28.71.38.54,1.5,1.72,3.36,3.55,1.86,1.82,3.49,3.28,4.89,4.38.83.65,1.56.97,2.19.96.63,0,1.3-.51,2.01-1.5.95-1.38,2.5-3.82,4.64-7.33,2.14-3.51,4.31-7.25,6.51-11.21,2.2-3.96,4.13-7.74,5.81-11.32,1.67-3.58,2.53-6.15,2.58-7.69,0-1.06-.58-2.37-1.75-3.94-1.17-1.57-2.54-3.08-4.09-4.52-1.55-1.44-3.09-2.65-4.61-3.63-1.52-.98-2.61-1.4-3.28-1.28-1.71.34-4.33,1.3-7.85,2.87-3.52,1.57-7.2,3.37-11.03,5.4s-7.42,4.08-10.78,6.16c-3.36,2.08-5.74,3.79-7.14,5.12ZM344.95,83.37c.26-.48,1.22-1.04,2.87-1.66,1.65-.63,2.96-.93,3.92-.91,1.14.01,1.34,1.25.6,3.7-.75,2.45-1.39,3.84-1.92,4.17-.89.54-2.13,0-3.73-1.64s-2.18-2.85-1.73-3.66Z"/>
      <path d="M354.21,112.37c-3.65,2.5-5.62,4.05-5.91,4.66-.25.45-.3.9-.16,1.34.19.64.88,2.04,2.07,4.2,1.19,2.15,2.33,4.03,3.41,5.61.95,1.39,1.83,2.02,2.63,1.91.8-.12,1.82-.52,3.08-1.22.79-.29,1.34.32,1.64,1.83.26,1.58.28,3.84.05,6.78-.23,2.95.08,4.93.92,5.94.14.26.78.54,1.91.83,1.13.29,2.4.55,3.81.76,1.41.21,2.77.34,4.08.38,1.31.04,2.22-.08,2.73-.36.69-.4,1.37-1.65,2.04-3.76.67-2.11,1.27-4.46,1.79-7.05,3.73,1.49,7.96.49,12.69-2.99,3.53-2.64,5.61-5.75,6.24-9.34.63-3.59.4-7.15-.68-10.68s-2.73-6.76-4.94-9.72c-2.21-2.95-4.37-5.09-6.47-6.42-.58-.36-2.77.46-6.57,2.49-3.8,2.02-7.9,4.37-12.29,7.05-4.4,2.67-8.42,5.26-12.08,7.76ZM378.06,113.84c2.23-1.6,3.81-1.73,4.74-.37,1.14,1.65,1.6,3.07,1.39,4.26-.22,1.19-.78,2.04-1.68,2.54s-1.98.61-3.22.33-2.29-1.05-3.15-2.3c-.95-1.37-.3-2.85,1.92-4.46Z"/>
      <path d="M372.36,149.52c-3.56,1.46-5.4,2.55-5.52,3.29-.25,1.63.19,4.22,1.33,7.76s2.15,5.44,3.03,5.68c.6.25,2.25.21,4.94-.12-.73,3.18-1.37,6.17-1.91,8.97-.54,2.8-.79,4.72-.75,5.76.06.95.95,1.78,2.66,2.5,1.71.71,3.62,1.23,5.72,1.54,2.1.31,4.07.4,5.91.26,1.84-.14,2.9-.58,3.18-1.31,1.04-2.89,2.07-6.66,3.12-11.32,3.34,1.88,6.42,3.5,9.24,4.84s4.6,1.88,5.34,1.63c.77-.14,2.03-1.66,3.78-4.56,1.75-2.9,2.78-5.19,3.08-6.88.08-.64-.7-1.74-2.35-3.29-1.64-1.56-3.71-3.21-6.19-4.97,1.07-.32,2.03-.63,2.89-.93s1.68-.59,2.47-.88c.71-.29.97-1.42.78-3.4-.19-1.98-.63-4.09-1.32-6.34-.69-2.25-1.55-4.27-2.57-6.08-1.02-1.8-2-2.66-2.95-2.58-1.5.19-4.37.87-8.61,2.04-4.24,1.17-8.63,2.51-13.17,3.99-4.53,1.49-8.58,2.96-12.14,4.42Z"/>
      <path d="M381.88,204.02c1.76.18,3.41-.26,4.97-1.32,1.56-1.07,2.43-2.87,2.63-5.41.18-2.3-.63-4.23-2.42-5.8-1.79-1.57-3.8-2.12-6.04-1.64-1.59.32-2.9,1.09-3.92,2.3-1.02,1.21-1.59,2.62-1.71,4.23-.16,2.25.44,4.05,1.81,5.38,1.37,1.33,2.93,2.09,4.69,2.27Z"/>
      <path d="M421.59,193.07c-.21-1.86-.58-3.56-1.14-5.1-.56-1.54-1.24-2.33-2.04-2.35-.98-.03-2.9.09-5.76.37-2.85.28-5.82.66-8.89,1.13-3.07.47-5.84,1-8.32,1.59-2.48.59-3.83,1.16-4.06,1.72-.55,1.29-.63,3.45-.25,6.49.38,3.04.94,4.71,1.69,5.03.41.32,1.73.53,3.97.62,2.24.09,4.79.09,7.66-.02s5.78-.3,8.72-.59c2.94-.29,5.35-.64,7.21-1.04.65-.16,1.06-1.04,1.24-2.64.18-1.61.16-3.34-.04-5.2Z"/>
      <path d="M42.91,313.33c4.1-1.6,7.67-3.13,10.71-4.6,3.04-1.46,4.78-2.49,5.21-3.09.29-.31.35-1.11.16-2.41-.19-1.29-.52-2.7-1-4.23-.48-1.52-1.05-2.99-1.71-4.41-.66-1.42-1.32-2.4-1.97-2.96-.65-.56-3.1-.2-7.36,1.08-4.26,1.28-8.75,2.71-13.49,4.29.31-.65,1.2-2.4,2.66-5.26,1.46-2.85,2.02-4.58,1.68-5.19-.38-.68-2.12-1.51-5.23-2.5-3.11-.99-5.06-1.61-5.86-1.88,4.21-2.72,8.17-5.3,11.88-7.71,3.71-2.42,5.57-4.06,5.57-4.91-.01-.89-.35-2.06-1.01-3.52-.66-1.45-1.41-2.87-2.27-4.25-.85-1.38-1.71-2.57-2.57-3.55-.86-.99-1.5-1.46-1.92-1.42-.71-.02-2.61.68-5.69,2.11-3.08,1.43-6.54,3.25-10.37,5.46-3.83,2.21-7.63,4.61-11.39,7.2-3.77,2.59-6.69,5.01-8.76,7.28-.3.31-.22,1.25.22,2.81.44,1.56,1.06,3.24,1.84,5.04.78,1.8,1.62,3.47,2.52,5.02.9,1.55,1.66,2.48,2.28,2.78,1.17.54,2.56.97,4.18,1.3s3.08.62,4.38.88c-.52.96-1.22,2.32-2.11,4.08s-1.44,3.14-1.68,4.14c-.22.67-.03,1.86.56,3.58.59,1.71,1.31,3.46,2.16,5.24.85,1.78,1.73,3.34,2.64,4.67.91,1.34,1.6,1.98,2.06,1.95,2.98-.38,6.64-1.25,10.99-2.6,4.35-1.35,8.57-2.83,12.67-4.43Z"/>
      <path d="M64.16,329.46c3.57-2.72,6.4-5.07,8.5-7.04.74-.71.68-2.04-.19-3.99-.87-1.95-2.08-3.91-3.64-5.86-1.56-1.96-3.22-3.59-4.98-4.89-1.77-1.3-3.18-1.65-4.23-1.03-1.29.74-3.63,2.51-7.02,5.31-3.39,2.8-6.85,5.8-10.38,9-3.53,3.2-6.63,6.19-9.3,8.97-2.67,2.78-3.92,4.54-3.74,5.28.41,1.64,1.79,3.91,4.17,6.81,2.37,2.91,4,4.29,4.89,4.14.74,0,2.56-.88,5.45-2.6s6.14-3.82,9.73-6.3c3.6-2.48,7.18-5.08,10.74-7.79Z"/>
      <path d="M99.64,345.51c-1.62-1.4-3.27-2.52-4.92-3.36-1.66-.85-2.82-.93-3.5-.25-.58.52-1.41,1.41-2.47,2.66-1.06,1.26-2.29,2.69-3.69,4.3.24-1.65.5-4.15.79-7.51.29-3.36.13-5.73-.46-7.12-.42-.93-1.21-2.05-2.35-3.38-1.15-1.33-2.38-2.55-3.68-3.68s-2.55-2.03-3.73-2.7c-1.18-.67-2-.82-2.45-.45-2.28,1.8-5,4.34-8.16,7.6-3.16,3.26-6.2,6.56-9.11,9.89-2.91,3.33-5.41,6.36-7.48,9.07-2.08,2.72-3.16,4.45-3.24,5.18-.26.84.88,2.54,3.42,5.09,2.54,2.55,4.58,4.08,6.13,4.57.53.16,1.77-.59,3.72-2.24,1.95-1.65,4.24-3.69,6.86-6.1-.06.51-.14,1.63-.22,3.37-.08,1.74-.13,3.62-.15,5.64-.02,2.02.01,3.95.1,5.77.08,1.82.27,3.07.57,3.75.21.48.75,1.22,1.65,2.2.89.98,1.89,1.95,2.98,2.9,1.09.95,2.15,1.75,3.18,2.39,1.03.65,1.79.88,2.29.68.54-.26,2.02-1.57,4.46-3.92,2.43-2.35,5.17-5.13,8.21-8.34,3.04-3.21,6.08-6.52,9.12-9.93,3.04-3.41,5.43-6.29,7.2-8.65.43-.61.1-1.66-.99-3.14-1.09-1.48-2.44-2.92-4.06-4.32Z"/>
      <path d="M237.95,412.68c-.53-.5-2.19-.59-4.99-.25-2.79.34-5.93.64-9.41.9-.02-.24-.03-.53-.06-.87-.02-.34-.04-.64-.06-.89,1.27-.12,2.42-.26,3.46-.42,1.04-.16,1.75-.31,2.14-.45.55-.11.86-.72.93-1.83.07-1.1,0-2.29-.21-3.57-.21-1.27-.51-2.44-.91-3.5-.4-1.06-.77-1.63-1.11-1.71-1.43-.21-3.27-.26-5.52-.16-.04-.24-.07-.51-.11-.83-.04-.32-.07-.59-.08-.83,3.43-.34,6.43-.67,8.99-1.01,2.56-.33,3.93-.86,4.11-1.59.34-1.56.38-3.84.12-6.85-.26-3.01-.67-4.71-1.24-5.12-.47-.41-2.19-.6-5.16-.58-2.97.02-6.2.17-9.67.44-3.48.27-6.71.61-9.7,1.02-2.99.41-4.72.78-5.2,1.11-.48.33-.8,1.09-.96,2.29-.01.09-.01.2-.02.29-.1-1.14-.99-2.14-2.7-2.99-1.81-.9-3.83-1.55-6.04-1.94-2.22-.39-4.29-.48-6.21-.27-1.92.21-2.99.81-3.2,1.81-.36,1.64-.71,3.59-1.06,5.84s-.66,4.65-.96,7.18c-1.84-.23-3.6-.43-5.29-.6.34-2.55.62-4.98.85-7.29.23-2.31.38-4.32.45-6.02.03-1-.86-1.88-2.66-2.63-1.8-.75-3.82-1.25-6.06-1.52-2.24-.26-4.34-.21-6.3.14-1.26.23-2.17.62-2.74,1.19.13-1.5-.24-2.47-1.14-2.91-2.59-1.25-5.94-2.75-10.05-4.49-4.11-1.74-8.19-3.38-12.23-4.92-4.04-1.54-7.66-2.81-10.84-3.81s-5.13-1.4-5.84-1.2c-.45.05-1,.72-1.64,1.99-.64,1.28-1.26,2.75-1.85,4.41-.6,1.66-1.09,3.32-1.49,4.98-.4,1.66-.57,2.91-.5,3.75.02.53.97,1.31,2.85,2.35,1.88,1.04,4.17,2.15,6.88,3.32-1.83,5.35-3.48,10.69-4.98,16.03-1.49,5.34-1.93,8.33-1.31,8.98.59.61,1.56,1.25,2.92,1.94s2.76,1.29,4.21,1.82c1.45.53,2.79.92,4.03,1.17,1.23.25,2.03.23,2.38-.06.82-.48,2.39-3.06,4.69-7.75,2.31-4.68,4.56-9.62,6.74-14.79,1.97.72,3.74,1.35,5.33,1.88,1.59.53,2.76.89,3.5,1.07.78.25,1.79-.38,3.02-1.89,1.24-1.52,2.33-3.29,3.29-5.3.3-.63.55-1.24.79-1.86-.18,1.4-.36,3.1-.55,5.13-.41,4.36-.74,8.91-.99,13.65-.25,4.74-.35,9.03-.3,12.87.05,3.84.36,5.96.95,6.35,1.32.86,3.67,1.45,7.03,1.78s5.29.13,5.78-.58c.32-.38.71-1.43,1.19-3.18.48-1.74.99-3.89,1.53-6.45,1.1.02,2.24.03,3.39.03s2.3-.03,3.44-.08c-.16,2.88-.23,5.33-.21,7.35.02,2.03.16,3.27.42,3.73.3.83,2.11,1.56,5.43,2.21,3.32.64,5.72.73,7.2.26.63-.21,1.45-2.15,2.45-5.83,1-3.68,1.96-7.84,2.9-12.49.94-4.64,1.75-9.12,2.44-13.44.46-2.88.77-5.12.93-6.74,0,.48,0,.96.03,1.48.05,2.61.22,5.99.53,10.13.3,4.14.69,8.2,1.17,12.17.47,3.97,1,7.43,1.58,10.38.58,2.95,1.17,4.52,1.78,4.72,1.04.37,3.24.5,6.58.39,3.35-.11,6.83-.36,10.46-.74,3.63-.38,6.89-.87,9.79-1.48,2.9-.6,4.42-1.23,4.58-1.88.34-1.54.28-3.98-.18-7.33s-.98-5.22-1.54-5.62Z"/>
      <path d="M280.35,371.15c-1.75-.04-4.02.33-6.82,1.11-2.8.78-5.49,1.77-8.07,2.99-2.58,1.21-4.75,2.55-6.49,4.02-1.75,1.46-2.44,2.85-2.07,4.16.41,1.4,1.44,4.07,3.11,8.01,1.67,3.94,3.5,7.99,5.51,12.17s3.94,7.89,5.79,11.13c1.85,3.24,3.15,4.88,3.89,4.91,1.65.05,4.15-.67,7.5-2.17s5.08-2.68,5.18-3.56c.15-.44.04-1.44-.3-3-.35-1.56-.86-3.43-1.54-5.63,4.45-1.31,7.68-3.96,9.68-7.95s2.51-8.16,1.53-12.53c-2.03-8.91-7.65-13.46-16.88-13.66ZM284.62,389.75c-.3,1.22-1.08,2.2-2.35,2.94-.84.53-1.55.72-2.12.58-1.28-.26-2.45-1.47-3.5-3.63-1.05-2.16-.74-3.74.91-4.76.25-.14.58-.28,1.02-.43,2.37-.66,4.17-.08,5.39,1.76.73,1.15.95,2.33.65,3.55Z"/>
      <path d="M343.2,369.86c-3.17-2.61-6.57-5.28-10.19-8.01-3.62-2.73-7.08-5.17-10.4-7.33-3.31-2.16-5.73-3.36-7.26-3.63-1.05-.16-2.43.24-4.15,1.18-1.72.94-3.4,2.08-5.05,3.42-1.64,1.34-3.05,2.69-4.23,4.06-1.18,1.37-1.75,2.39-1.72,3.07.1,1.74.68,4.46,1.75,8.17,1.07,3.71,2.34,7.6,3.81,11.67,1.47,4.07,3,7.92,4.6,11.53,1.59,3.62,2.95,6.21,4.07,7.79.34.46.78.76,1.32.87.64.19,2.24-.53,4.8-2.17,2.56-1.64,4.13-2.76,4.7-3.37.25-.27.39-.54.41-.82.1-.5.02-1.59-.21-3.29-.24-1.69-.46-3.23-.68-4.6-.17-1.07.37-2.05,1.61-2.94l4.07-2.73c.55-.28,1.12-.34,1.69-.17.96.28,2.31,1.1,4.03,2.44,1.72,1.35,3,2,3.84,1.96.26,0,.51-.07.75-.18.59-.3,1.91-1.25,3.98-2.84,2.07-1.59,3.74-3,5.02-4.23.75-.73,1.17-1.41,1.26-2.03.08-.62-.32-1.35-1.21-2.2-1.23-1.14-3.44-3.01-6.61-5.62ZM322.38,375.84c-1.83,1.36-3.12,1.76-3.86,1.2-.44-.33-.85-1.35-1.24-3.08-.39-1.72-.51-3.06-.36-4,.17-1.13,1.42-1.15,3.75-.07,2.33,1.08,3.61,1.91,3.86,2.49.41.95-.31,2.11-2.14,3.46Z"/>
      <path d="M378.38,345.04c-.24-1.4-.55-2.73-.93-3.99-.38-1.26-.78-2.08-1.2-2.48-.6-.53-2-.78-4.21-.75-2.21.03-4.63.21-7.26.53.24-4.01-2.05-7.71-6.85-11.09-3.62-2.52-7.23-3.51-10.84-2.96-3.61.54-6.91,1.88-9.91,4.02-3,2.14-5.55,4.73-7.65,7.76-2.1,3.03-3.45,5.75-4.05,8.17-.16.67,1.32,2.48,4.44,5.45,3.12,2.96,6.65,6.11,10.57,9.43,3.93,3.33,7.66,6.33,11.18,9s5.62,4.05,6.29,4.13c.51.1.95,0,1.32-.28.55-.38,1.66-1.48,3.33-3.29,1.67-1.81,3.08-3.48,4.24-5.01,1.01-1.34,1.34-2.38.98-3.1-.36-.72-1.07-1.57-2.13-2.53-.53-.66-.12-1.37,1.22-2.13,1.41-.75,3.55-1.48,6.42-2.2,2.87-.71,4.65-1.63,5.34-2.75.2-.22.27-.91.19-2.08-.08-1.17-.24-2.45-.49-3.85ZM350.35,345.46c-1,1.33-2.61,1.19-4.83-.41-2.22-1.6-2.84-3.06-1.86-4.38,1.2-1.6,2.4-2.49,3.6-2.67,1.2-.17,2.18.09,2.94.79.76.7,1.21,1.68,1.33,2.95s-.27,2.5-1.19,3.72Z"/>
      <path d="M402.51,302.92c-1.25-1.72-2.57-3.18-3.96-4.39-1.39-1.21-2.45-1.66-3.17-1.34-2.78,1.29-6.2,3.2-10.25,5.73-1-3.7-2.02-7.02-3.04-9.98-1.03-2.95-1.89-4.6-2.59-4.94-.64-.45-2.6-.28-5.9.51-3.29.79-5.65,1.67-7.06,2.64-.51.39-.74,1.72-.7,3.98.05,2.26.31,4.9.8,7.9-.98-.54-1.88-1-2.69-1.41-.82-.4-1.6-.78-2.37-1.14-.7-.3-1.69.31-2.97,1.84-1.28,1.52-2.47,3.32-3.58,5.39-1.12,2.07-1.96,4.11-2.53,6.1-.57,1.99-.49,3.29.23,3.91,1.18.93,3.68,2.5,7.5,4.7,3.82,2.2,7.85,4.38,12.09,6.57,4.24,2.18,8.13,4.03,11.67,5.54s5.61,2.05,6.21,1.62c1.34-.97,2.87-3.1,4.6-6.4,1.73-3.3,2.36-5.34,1.91-6.15-.24-.61-1.43-1.75-3.56-3.43,2.78-1.71,5.35-3.36,7.73-4.94,2.37-1.58,3.91-2.75,4.62-3.51.63-.71.6-1.93-.09-3.65-.69-1.72-1.66-3.44-2.92-5.16Z"/>
      <path d="M374.03,269.34c-.88,1.35-1.66,2.9-2.32,4.66-.66,1.75-1.09,3.44-1.29,5.07-.2,1.62.05,2.63.75,3.02.86.47,2.63,1.23,5.3,2.27s5.49,2.05,8.43,3.02c2.95.97,5.66,1.75,8.14,2.35,2.48.6,3.94.7,4.4.3,1.07-.9,2.12-2.79,3.16-5.67,1.04-2.88,1.29-4.63.77-5.25-.22-.47-1.3-1.26-3.26-2.35-1.95-1.1-4.23-2.25-6.84-3.46-2.61-1.21-5.29-2.35-8.04-3.42-2.76-1.07-5.06-1.85-6.9-2.34-.65-.15-1.42.45-2.3,1.8Z"/>
      <path d="M412.08,282.22c-1.48-.96-3.16-1.32-5.03-1.07-1.87.25-3.47,1.46-4.79,3.63-1.2,1.97-1.35,4.06-.47,6.27.88,2.21,2.43,3.61,4.64,4.2,1.56.43,3.08.34,4.54-.27,1.46-.62,2.61-1.62,3.44-3,1.17-1.94,1.44-3.81.82-5.61-.62-1.8-1.67-3.19-3.15-4.15Z"/>
      <path class="cls-1" d="M2.19,227.23c0,7.36,5.97,13.33,13.33,13.33s13.33-5.97,13.33-13.33-5.97-13.33-13.33-13.33-13.33,5.97-13.33,13.33Z"/>
      <path class="cls-1" d="M410.19,237.9c0-7.36-5.97-13.33-13.33-13.33s-13.33,5.97-13.33,13.33,5.97,13.33,13.33,13.33,13.33-5.97,13.33-13.33Z"/>
    </g>
  </g>
</svg>