<?xml version="1.0" encoding="UTF-8"?>
<svg id="Layer_2" data-name="Layer 2" xmlns="http://www.w3.org/2000/svg" viewBox="0 0 152.95 129.76">
  <defs>
    <style>
      .cls-1 {
        fill: #fff;
      }
    </style>
  </defs>
  <g id="Layer_2-2" data-name="Layer 2">
    <g>
      <path class="cls-1" d="M147.37,50.97c-4.33-4.3-10.74-6.61-19.06-6.86-7.94-.24-15.9.94-23.57,2.08-6.65.99-13.53,2.02-20.1,2.02-3.7,0-7.04-.32-10.21-.97-1.02-.21-2.24-.46-3.39-.71,3.69-4.47,6.82-10.21,8.75-16.14,2.33-7.18,1.04-15.33-3.36-21.27-3.11-4.21-9.32-9.12-16.58-9.12-1.56,0-3.08.24-4.51.71-6.81,2.24-10.08,9.1-10.87,14.77-.26,1.83-.33,3.58-.41,5.3-.06,1.46-.12,2.83-.29,4.13-.52,4.08-2.16,7.93-4.74,11.15-2.33,2.92-5.43,5.32-8.72,7.88-1.4,1.09-2.85,2.21-4.26,3.4-.34.29-.68.58-1.02.89-1.22-.56-2.62-.84-4.14-.84-2.35,0-4.89.69-6.98,1.89-4.57,2.63-8.6,7.46-11.06,13.26C.64,67.78-.27,73.81.07,80.97c.26,5.43,1.16,9.74,2.83,13.57,3.54,8.09,10.31,12.83,18.12,12.5,6.5,9.51,16.8,16.97,28.54,20.62,4.35,1.35,9.73,2.1,15.14,2.1,15.23,0,33.7-6.03,36.76-22.89,6.82-4.32,14.03-12.06,13.82-25.37,2.24.05,4.6.31,6.9.56,3.18.35,6.5.71,9.96.6,5.25-.18,9.92-1.62,13.51-4.18,4.25-3.03,6.83-7.55,7.25-12.75.45-5.46-1.57-10.84-5.52-14.76ZM149.56,65.46c-.34,4.19-2.43,7.85-5.86,10.3-3.06,2.17-7.1,3.41-11.68,3.56-3.21.1-6.4-.24-9.48-.58-2.54-.28-5.16-.57-7.72-.58-1.02,0-2.05,0-3.1.04.85,7.59-.76,14.09-4.79,19.35-2.43,3.17-5.47,5.53-8.54,7.3-.74,6.34-3.95,11.47-9.55,15.25-6.63,4.48-15.66,6.35-24.08,6.35-5.2,0-10.17-.71-14.2-1.96-11.94-3.71-21.89-11.41-27.81-20.98-.82.13-1.64.22-2.44.22-6.09,0-11.4-3.8-14.34-10.51-1.5-3.44-2.32-7.38-2.56-12.39-.32-6.65.51-12.2,2.53-16.96,2.18-5.14,5.7-9.39,9.65-11.67,2.14-1.23,5.58-2.04,8.08-.9.69.32,1.27.76,1.73,1.32.88-.94,1.8-1.85,2.81-2.69,1.37-1.15,2.79-2.26,4.17-3.33,3.44-2.67,6.69-5.2,9.27-8.42,2.96-3.7,4.84-8.13,5.44-12.82.18-1.44.25-2.89.31-4.42.07-1.63.14-3.31.38-4.98.65-4.68,3.26-10.31,8.61-12.06,6.28-2.06,13.63,2.18,17.36,7.22,3.77,5.09,4.87,12.09,2.87,18.26-2.06,6.35-5.59,12.46-9.68,16.78-1.24,1.31-1.55,1.9-1.62,2.12.74.67,4.49,1.44,8.46,2.26,10.35,2.13,21.08.53,31.47-1.02,7.53-1.12,15.31-2.27,22.98-2.05,7.44.22,13.09,2.21,16.81,5.9,3.26,3.23,4.91,7.65,4.55,12.12Z"/>
      <path class="cls-1" d="M8.68,65.01c-1.84,4.34-2.59,9.46-2.3,15.66.22,4.64.96,8.24,2.31,11.34,2.6,5.94,7.16,9.07,12.46,8.69-1.68-3.24-2.91-6.66-3.61-10.18-2.93-14.65-.89-26.78,5.85-35.54-.19-.45-.5-.77-.95-.97-1.41-.64-3.83-.11-5.36.77-3.4,1.96-6.46,5.69-8.39,10.25Z"/>
      <path class="cls-1" d="M122.86,75.78c3.11.34,6.06.68,9.05.57,4-.13,7.48-1.18,10.06-3.01,2.71-1.93,4.35-4.81,4.62-8.11.29-3.59-1.05-7.15-3.68-9.77-3.16-3.14-8.14-4.83-14.8-5.03-7.4-.22-15.05.92-22.45,2.02-10.64,1.59-21.63,3.22-32.5.99-7.1-1.46-10.04-2.06-10.74-4.29-.56-1.79.91-3.55,2.34-5.06,3.79-4,7.08-9.71,9.01-15.65,1.71-5.27.78-11.23-2.43-15.56-3.11-4.2-9.08-7.79-14.04-6.16-4.05,1.33-6.08,6.03-6.59,9.64-.21,1.53-.28,3.07-.35,4.7-.07,1.52-.13,3.1-.34,4.67-.67,5.23-2.77,10.17-6.07,14.3-2.8,3.5-6.34,6.25-9.77,8.91-1.36,1.05-2.76,2.14-4.08,3.25-9.78,8.22-13.03,20.92-9.67,37.74,2.86,14.3,15.01,26.74,30.98,31.7,10.03,3.12,26.13,2.47,35.73-4,4.22-2.85,6.85-6.58,7.89-11.09-5.93,2.65-11.21,3.27-11.58,3.31-.05,0-.11,0-.16,0-.75,0-1.39-.57-1.48-1.33-.09-.82.5-1.55,1.32-1.64.14-.02,14.14-1.66,21.42-11.17,3.58-4.68,4.98-10.54,4.16-17.44l-.02.02c-6.03.29-12.7,1.03-20.82,2.35-.81.12-1.58-.42-1.71-1.23s.42-1.58,1.23-1.71c11.13-1.8,19.54-2.59,27.43-2.53,2.72.02,5.42.31,8.03.6ZM29.08,71.43l19.33,1.08c.48.03.9.23,1.22.55.36.36.56.86.53,1.41-.06,1.02-.93,1.81-1.96,1.75l-19.33-1.08c-1.02-.06-1.81-.93-1.75-1.96.06-1.02.93-1.81,1.96-1.75ZM48.48,103.16c-.39.95-1.47,1.41-2.42,1.02l-19.01-7.75c-.95-.39-1.41-1.47-1.02-2.42.39-.95,1.47-1.41,2.42-1.02l19.01,7.75c.24.1.45.24.62.41.51.51.69,1.3.4,2.01ZM57.14,90.16c-.17,1.01-1.14,1.69-2.15,1.51l-27.38-4.74c-1.01-.17-1.69-1.14-1.51-2.15.17-1.01,1.14-1.69,2.15-1.51l27.38,4.74c.4.07.74.26,1,.52.41.41.62,1.01.51,1.62Z"/>
      <path d="M128.21,47.44c-7.67-.22-15.45.93-22.98,2.05-10.38,1.55-21.12,3.15-31.47,1.02-3.96-.81-7.71-1.59-8.46-2.26.07-.22.38-.81,1.62-2.12,4.09-4.31,7.62-10.43,9.68-16.78,2-6.17.91-13.16-2.87-18.26-3.73-5.04-11.08-9.29-17.36-7.22-5.35,1.76-7.95,7.38-8.61,12.06-.23,1.67-.31,3.35-.38,4.98-.07,1.53-.13,2.98-.31,4.42-.6,4.68-2.48,9.12-5.44,12.82-2.58,3.23-5.83,5.75-9.27,8.42-1.38,1.07-2.8,2.18-4.17,3.33-1.01.85-1.93,1.75-2.81,2.69-.46-.55-1.03-1-1.73-1.32-2.5-1.14-5.94-.33-8.08.9-3.95,2.27-7.47,6.53-9.65,11.67-2.02,4.76-2.85,10.31-2.53,16.96.24,5.01,1.05,8.95,2.56,12.39,2.93,6.71,8.24,10.51,14.34,10.51.8,0,1.61-.09,2.44-.22,5.92,9.58,15.87,17.27,27.81,20.98,4.03,1.25,9,1.96,14.2,1.96,8.42,0,17.45-1.87,24.08-6.35,5.61-3.78,8.81-8.91,9.55-15.25,3.07-1.77,6.11-4.13,8.54-7.3,4.03-5.26,5.64-11.77,4.79-19.35,1.05-.03,2.08-.04,3.1-.04,2.56.02,5.19.31,7.72.58,3.08.34,6.27.69,9.48.58,4.59-.16,8.63-1.39,11.68-3.56,3.44-2.45,5.52-6.1,5.86-10.3.37-4.47-1.29-8.89-4.55-12.12-3.71-3.69-9.37-5.67-16.81-5.9ZM87.41,77.7c-.81.13-1.36.9-1.23,1.71s.9,1.36,1.71,1.23c8.13-1.31,14.8-2.06,20.82-2.35l.02-.02c.82,6.9-.58,12.76-4.16,17.44-7.27,9.5-21.28,11.15-21.42,11.17-.82.09-1.41.83-1.32,1.64.08.76.73,1.33,1.48,1.33.05,0,.11,0,.16,0,.37-.04,5.65-.65,11.58-3.31-1.04,4.51-3.67,8.24-7.89,11.09-9.6,6.48-25.7,7.12-35.73,4-15.96-4.96-28.12-17.41-30.98-31.7-3.36-16.82-.11-29.52,9.67-37.74,1.32-1.11,2.72-2.2,4.08-3.25,3.43-2.66,6.97-5.41,9.77-8.91,3.3-4.13,5.4-9.07,6.07-14.3.2-1.57.27-3.15.34-4.67.07-1.63.14-3.16.35-4.7.5-3.62,2.53-8.31,6.59-9.64,4.96-1.63,10.93,1.96,14.04,6.16,3.21,4.33,4.14,10.3,2.43,15.56-1.93,5.94-5.21,11.64-9.01,15.65-1.43,1.51-2.9,3.26-2.34,5.06.7,2.22,3.64,2.83,10.74,4.29,10.87,2.23,21.87.6,32.5-.99,7.4-1.1,15.05-2.24,22.45-2.02,6.66.2,11.64,1.89,14.8,5.03,2.63,2.61,3.97,6.17,3.68,9.77-.27,3.3-1.91,6.18-4.62,8.11-2.58,1.83-6.06,2.88-10.06,3.01-2.99.11-5.94-.22-9.05-.57-2.61-.29-5.32-.59-8.03-.6-7.89-.06-16.29.73-27.43,2.53ZM22.43,54c.45.2.75.52.95.97-6.74,8.77-8.77,20.89-5.85,35.54.7,3.53,1.94,6.94,3.61,10.18-5.29.38-9.86-2.75-12.46-8.69-1.35-3.1-2.09-6.7-2.31-11.34-.3-6.19.46-11.31,2.3-15.66,1.93-4.56,4.99-8.29,8.39-10.25,1.53-.88,3.95-1.41,5.36-.77Z"/>
      <path d="M47.46,100.74l-19.01-7.75c-.95-.39-2.03.07-2.42,1.02-.39.95.07,2.03,1.02,2.42l19.01,7.75c.95.39,2.03-.07,2.42-1.02.29-.71.11-1.5-.4-2.01-.17-.17-.38-.31-.62-.41Z"/>
      <path d="M55.63,88.01l-27.38-4.74c-1.01-.17-1.97.5-2.15,1.51-.18,1.01.5,1.97,1.51,2.15l27.38,4.74c1.01.17,1.97-.5,2.15-1.51.11-.62-.1-1.21-.51-1.62-.26-.27-.61-.45-1-.52Z"/>
      <path d="M28.87,75.14l19.33,1.08c1.02.06,1.9-.73,1.96-1.75.03-.55-.18-1.05-.53-1.41-.31-.32-.74-.52-1.22-.55l-19.33-1.08c-1.02-.06-1.9.73-1.96,1.75-.06,1.02.73,1.9,1.75,1.96Z"/>
    </g>
  </g>
</svg>