<?xml version="1.0" encoding="UTF-8"?>
<svg id="Layer_2" data-name="Layer 2" xmlns="http://www.w3.org/2000/svg" viewBox="0 0 271.66 248.26">
  <defs>
    <style>
      .cls-1 {
        fill: #fff;
      }
    </style>
  </defs>
  <g id="Layer_2-2" data-name="Layer 2">
    <g>
      <path class="cls-1" d="M267.47,20.69c-5.28-10.06-14.8-17.25-26.11-19.74-12.3-2.71-26.22.38-41.05,9.17-14.24,8.44-26.83,19.34-39.01,29.88-16.02,13.87-32.59,28.2-51.96,35.55-2.24.85-4.58,1.74-6.74,2.53,1.51-11.94.6-25.5-2.62-38.02-3.89-15.17-15.22-28.03-29.55-33.56-5.43-2.09-11.76-3.25-17.82-3.25-12.04,0-22.16,4.25-28.5,11.97-9.45,11.49-7.55,27.16-2.63,37.99,1.59,3.5,3.42,6.67,5.19,9.75,1.51,2.62,2.93,5.1,4.09,7.57,3.62,7.73,5.04,16.31,4.11,24.82-.85,7.71-3.6,15.37-6.52,23.48-1.25,3.47-2.54,7.05-3.7,10.73-.28.89-.55,1.79-.8,2.69-8.08,1.13-14.91,7.69-18.33,14.21-5.08,9.69-6.78,22.65-4.64,35.55,1.93,11.65,7.03,23.23,15.6,35.41,6.5,9.24,12.87,15.79,20.06,20.64,7.96,5.36,16.63,8.2,25.08,8.2,7.44,0,14.48-2.21,20.58-6.44,12.91,5.54,27.49,8.46,42.43,8.46,10.33,0,20.61-1.36,30.54-4.05,23.71-6.41,55.17-27.58,66.79-54.18,5.87-13.44,6.23-27.2,1.08-40,7.15-15.17,11.2-36.75-4-59.86,3.99-2.42,8.42-4.59,12.71-6.69,6-2.94,12.2-5.98,18.12-10.02,9-6.15,15.58-13.88,19.03-22.35,4.09-10.04,3.57-20.84-1.46-30.41ZM262.51,48.49c-2.94,7.21-8.65,13.86-16.52,19.24-5.51,3.76-11.49,6.69-17.27,9.52-4.76,2.33-9.68,4.74-14.19,7.57-1.8,1.12-3.6,2.29-5.41,3.49,9.93,12.37,14.36,25.56,13.14,39.28-.73,8.26-3.43,15.78-6.85,22.3,5.75,11.94,5.84,24.5.22,37.37-10.75,24.62-40.09,44.27-62.24,50.26-9.52,2.57-19.17,3.82-28.63,3.82-15.45,0-30.38-3.35-43.42-9.66-5.71,5.08-12.54,7.64-19.77,7.64s-14.16-2.33-21.14-7.03c-6.46-4.36-12.27-10.35-18.26-18.88-7.96-11.31-12.67-21.96-14.43-32.55-1.89-11.44-.46-22.81,3.94-31.19,2.38-4.54,7.52-9.78,13.17-10.56,1.55-.22,3.04-.08,4.45.38.5-2.62,1.16-5.24,1.98-7.84,1.12-3.53,2.38-7.06,3.61-10.48,3.06-8.51,5.95-16.55,6.88-25.07,1.07-9.78-.56-19.64-4.72-28.52-1.28-2.74-2.78-5.34-4.37-8.1-1.68-2.93-3.42-5.96-4.88-9.15-4.06-8.93-5.75-21.69,1.67-30.72,8.81-10.71,26.02-11.46,38.47-6.65,12.28,4.74,21.98,15.78,25.33,28.82,3.45,13.42,4.06,28.07,1.69,40.18-.72,3.68-.6,5.05-.49,5.52,2.06.34,9.48-2.47,17.33-5.45,20.51-7.78,37.55-22.53,54.03-36.79,11.95-10.34,24.3-21.03,38.01-29.16,13.29-7.88,25.41-10.7,36.02-8.36,9.31,2.05,17.13,7.95,21.46,16.2,4.06,7.73,4.48,16.46,1.18,24.57Z"/>
      <path class="cls-1" d="M75.38,228.54c-6.54-3.81-12.5-8.44-17.66-13.84-21.43-22.44-31.38-45.97-29.31-68.84-.84-.56-1.72-.77-2.72-.63-3.18.44-6.84,4.06-8.54,7.31-3.79,7.22-4.99,17.17-3.31,27.31,1.6,9.66,5.98,19.47,13.38,30,5.55,7.89,10.84,13.39,16.66,17.31,11.16,7.52,22.64,7.93,31.49,1.38Z"/>
      <path class="cls-1" d="M88.91,80.77c2.2-11.24,1.61-24.89-1.61-37.46-2.86-11.14-11.12-20.56-21.57-24.59-10.13-3.91-24.59-3.55-31.46,4.81-5.63,6.84-3.96,17.33-.82,24.23,1.33,2.92,2.92,5.69,4.61,8.62,1.58,2.75,3.21,5.59,4.61,8.56,4.64,9.91,6.46,20.91,5.26,31.82-1.02,9.25-4.17,18.01-7.21,26.49-1.21,3.36-2.45,6.83-3.53,10.25-7.99,25.29.42,51.17,25.02,76.92,20.91,21.89,56.07,30.18,89.57,21.13,21.05-5.69,48.57-24.74,58.19-46.77,4.24-9.71,4.74-19.19,1.52-28.26-7.45,11.27-16.05,18.24-16.65,18.72-.57.45-1.25.68-1.93.68-.91,0-1.81-.4-2.42-1.16-1.06-1.33-.85-3.28.49-4.35.23-.18,22.95-18.64,25.13-43.4,1.07-12.19-3-24.02-12.11-35.2v.03c-10.26,7.21-21.11,15.96-33.91,27.31-1.28,1.13-3.23,1.02-4.37-.26-1.13-1.28-1.02-3.23.26-4.37,17.52-15.54,31.48-26.31,45.27-34.94,4.78-2.99,9.85-5.48,14.75-7.88,5.84-2.86,11.36-5.57,16.5-9.08,6.87-4.69,11.81-10.38,14.28-16.47,2.6-6.39,2.28-13.27-.92-19.36-3.48-6.63-9.79-11.38-17.31-13.03-9.03-1.99-19.64.58-31.54,7.64-13.23,7.85-25.37,18.35-37.11,28.51-16.89,14.61-34.35,29.73-55.89,37.9-14.07,5.34-19.89,7.55-23.59,4.43-2.98-2.51-2.35-7.24-1.52-11.47ZM122.94,206.93l-41.96,7.56c-2.1.38-4.1-1.02-4.48-3.11-.38-2.1,1.02-4.1,3.11-4.48l41.96-7.56c.53-.1,1.05-.08,1.54.04,1.46.33,2.65,1.51,2.94,3.08.38,2.1-1.02,4.1-3.11,4.48ZM121.75,167.95c.77-.32,1.58-.37,2.34-.2,1.17.27,2.21,1.08,2.7,2.28.82,1.97-.11,4.22-2.08,5.04l-53.27,22.14c-1.97.82-4.23-.11-5.04-2.08-.82-1.97.11-4.22,2.08-5.04l53.27-22.14ZM94.58,148.41c1.03.24,1.95.89,2.51,1.88,1.04,1.86.37,4.21-1.49,5.25l-35.09,19.61c-1.86,1.04-4.21.37-5.25-1.49-1.04-1.86-.37-4.21,1.49-5.25l35.09-19.61c.87-.49,1.84-.6,2.74-.39Z"/>
      <path d="M239.88,7.72c-10.61-2.34-22.73.48-36.02,8.36-13.71,8.13-26.06,18.82-38.01,29.16-16.48,14.26-33.52,29.01-54.03,36.79-7.85,2.98-15.28,5.79-17.33,5.45-.11-.47-.23-1.84.49-5.52,2.37-12.11,1.75-26.76-1.69-40.18-3.35-13.04-13.05-24.08-25.33-28.82-12.45-4.8-29.66-4.06-38.47,6.65-7.42,9.03-5.73,21.79-1.67,30.72,1.45,3.19,3.19,6.22,4.88,9.15,1.59,2.76,3.08,5.36,4.37,8.1,4.16,8.88,5.79,18.74,4.72,28.52-.94,8.52-3.83,16.56-6.88,25.07-1.23,3.41-2.5,6.94-3.61,10.48-.82,2.6-1.48,5.21-1.98,7.84-1.41-.45-2.9-.59-4.45-.38-5.65.78-10.79,6.02-13.17,10.56-4.4,8.38-5.83,19.75-3.94,31.19,1.75,10.6,6.47,21.24,14.43,32.55,6,8.52,11.8,14.52,18.26,18.88,6.97,4.7,14.23,7.03,21.14,7.03s14.06-2.57,19.77-7.64c13.04,6.31,27.97,9.66,43.42,9.66,9.46,0,19.12-1.25,28.63-3.82,22.15-5.99,51.49-25.64,62.24-50.26,5.62-12.87,5.53-25.43-.22-37.37,3.43-6.52,6.12-14.04,6.85-22.3,1.22-13.71-3.2-26.91-13.14-39.28,1.81-1.21,3.61-2.37,5.41-3.49,4.51-2.82,9.43-5.23,14.19-7.57,5.78-2.83,11.76-5.76,17.27-9.52,7.87-5.38,13.59-12.03,16.52-19.24,3.3-8.11,2.89-16.84-1.18-24.57-4.33-8.24-12.15-14.15-21.46-16.2ZM114.01,87.81c21.54-8.17,39-23.28,55.89-37.9,11.74-10.16,23.88-20.67,37.11-28.51,11.9-7.05,22.51-9.62,31.54-7.64,7.52,1.66,13.83,6.41,17.31,13.03,3.2,6.09,3.53,12.97.92,19.36-2.48,6.08-7.42,11.78-14.28,16.47-5.14,3.51-10.66,6.22-16.5,9.08-4.9,2.4-9.97,4.89-14.75,7.88-13.79,8.63-27.75,19.41-45.27,34.94-1.28,1.13-1.4,3.09-.26,4.37,1.13,1.28,3.09,1.4,4.37.26,12.8-11.35,23.65-20.1,33.9-27.31v-.03c9.11,11.19,13.19,23.02,12.12,35.2-2.18,24.76-24.9,43.22-25.13,43.4-1.33,1.07-1.55,3.01-.49,4.35.61.77,1.51,1.16,2.42,1.16.68,0,1.36-.22,1.93-.68.6-.48,9.2-7.45,16.65-18.72,3.21,9.07,2.72,18.55-1.52,28.26-9.62,22.03-37.14,41.08-58.19,46.77-33.5,9.06-68.66.76-89.57-21.13-24.6-25.75-33.02-51.63-25.02-76.92,1.08-3.42,2.33-6.89,3.53-10.25,3.04-8.47,6.19-17.24,7.21-26.49,1.2-10.91-.62-21.91-5.26-31.82-1.39-2.97-3.03-5.81-4.61-8.56-1.69-2.93-3.28-5.7-4.61-8.62-3.14-6.9-4.81-17.39.82-24.23,6.87-8.36,21.34-8.72,31.46-4.81,10.44,4.03,18.71,13.45,21.57,24.59,3.23,12.56,3.81,26.22,1.61,37.46-.83,4.23-1.46,8.95,1.52,11.47,3.7,3.12,9.52.91,23.59-4.43ZM27.23,209.85c-7.41-10.53-11.79-20.34-13.38-30-1.68-10.14-.47-20.09,3.31-27.31,1.7-3.25,5.36-6.87,8.54-7.31,1-.14,1.88.07,2.72.63-2.07,22.87,7.88,46.4,29.31,68.84,5.16,5.4,11.11,10.03,17.66,13.84-8.85,6.55-20.34,6.14-31.49-1.38-5.82-3.92-11.11-9.42-16.66-17.31Z"/>
      <path d="M123.12,199.37c-.49-.11-1.02-.13-1.54-.04l-41.96,7.56c-2.1.38-3.49,2.38-3.11,4.48.38,2.1,2.38,3.49,4.48,3.11l41.96-7.56c2.1-.38,3.49-2.38,3.11-4.48-.28-1.57-1.48-2.74-2.94-3.08Z"/>
      <path d="M66.4,195.13c.82,1.97,3.08,2.9,5.04,2.08l53.27-22.14c1.97-.82,2.9-3.08,2.08-5.04-.5-1.2-1.53-2.01-2.7-2.28-.75-.17-1.57-.12-2.34.2l-53.27,22.14c-1.97.82-2.9,3.08-2.08,5.04Z"/>
      <path d="M56.75,168.41c-1.86,1.04-2.52,3.39-1.49,5.25,1.04,1.86,3.39,2.52,5.25,1.49l35.09-19.61c1.86-1.04,2.52-3.39,1.49-5.25-.55-.99-1.48-1.64-2.51-1.88-.9-.21-1.87-.09-2.74.39l-35.09,19.61Z"/>
    </g>
  </g>
</svg>