<?xml version="1.0" encoding="UTF-8"?>
<svg id="Layer_2" data-name="Layer 2" xmlns="http://www.w3.org/2000/svg" viewBox="0 0 224.77 224.77">
  <defs>
    <style>
      .cls-1 {
        fill: #fff;
      }
    </style>
  </defs>
  <g id="Layer_2-2" data-name="Layer 2">
    <g>
      <path class="cls-1" d="M224.77,0v224.77H0V0h224.77ZM61.57,13.81H13.81v47.56h47.76V13.81ZM88.8,20.52c-.01-2.23,0-4.48,0-6.71h-20.52v6.71h6.91v13.62h-6.91v6.91h6.91v6.71h6.71v13.62c2.3,0,4.61,0,6.91,0-.01,4.54,0,9.08,0,13.62-2.3,0-4.61,0-6.91,0-.01-2.23,0-4.48,0-6.71h-13.62v6.71c-2.23,0-4.48,0-6.71,0-.01-2.23,0-4.48,0-6.71h-20.52c0,2.23,0,4.48,0,6.71-2.23,0-4.48,0-6.71,0v-6.71h-6.91v6.71h-6.71c-.01,4.54.02,9.08,0,13.62-2.3,0-4.61,0-6.91,0v6.91h6.91c0-2.3,0-4.61,0-6.91,2.23,0,4.48,0,6.71,0v6.91c6.84,0,13.69,0,20.52,0,0,2.23,0,4.48,0,6.71-6.84,0-13.69,0-20.52,0,0,2.3,0,4.61,0,6.91-2.23,0-4.48,0-6.71,0v-6.91h-6.91v20.52c2.3,0,4.61,0,6.91,0-.02,4.54,0,9.08,0,13.62-2.3,0-4.61,0-6.91,0v6.71c2.3,0,4.61,0,6.91,0,0,2.3.01,4.61,0,6.91-2.3,0-4.61,0-6.91,0v6.71h6.91c0-2.23-.01-4.48,0-6.71,2.23,0,4.48,0,6.71,0v-6.91c-2.23,0-4.48,0-6.71,0,0-2.23,0-4.48,0-6.71,2.23,0,4.48,0,6.71,0v-6.91h20.52c0,2.3,0,4.61,0,6.91-2.3,0-4.61,0-6.91,0v6.71c2.3,0,4.61,0,6.91,0,0,2.3.01,4.61,0,6.91-2.3,0-4.61,0-6.91,0v6.71h6.91c0-2.23-.01-4.48,0-6.71,2.23,0,4.48,0,6.71,0,.01,2.23,0,4.48,0,6.71,4.54-.02,9.08.02,13.62,0,0,2.3,0,4.61,0,6.91h13.62v-6.91c4.54,0,9.08,0,13.62,0,0,2.3,0,4.61,0,6.91h-6.71v6.71h-20.52v13.62c2.3,0,4.61,0,6.91,0,0,2.3,0,4.61,0,6.91h-6.91v6.71c9.07.03,18.16-.04,27.23,0,0,2.3,0,4.61,0,6.91h-6.71v6.71h27.23v-6.71h6.71c.01-4.54-.02-9.08,0-13.62,2.3,0,4.61,0,6.91,0v-6.91h-6.91c0,2.3,0,4.61,0,6.91-2.23,0-4.48,0-6.71,0v-13.62h20.33c0-2.3,0-4.61,0-6.91,4.54.01,9.08,0,13.62,0,0,6.84,0,13.69,0,20.52-2.23,0-4.48,0-6.71,0v6.71h-13.62v6.91h13.62v6.71h6.71c0-6.77,0-13.55,0-20.33,4.54-.02,9.08.01,13.62,0v-6.91h13.62v6.91h-6.71v6.71h-6.91v6.91c4.54.01,9.08-.02,13.62,0,0,2.23,0,4.48,0,6.71h6.91v-6.71c-2.3,0-4.61,0-6.91,0,0-2.3,0-4.61,0-6.91h6.91v-13.62c2.23,0,4.48,0,6.71,0,.02,4.54-.01,9.08,0,13.62,2.3,0,4.61-.01,6.91,0,.01,4.54,0,9.08,0,13.62h13.62v-6.71h-6.91c0-2.3,0-4.61,0-6.91,2.3,0,4.61,0,6.91,0v-6.71h-6.91c0,2.23,0,4.48,0,6.71-2.23,0-4.48,0-6.71,0-.01-4.54,0-9.08,0-13.62-2.3,0-4.61,0-6.91,0,0-2.23,0-4.48,0-6.71h-6.71v-40.85h-13.62v6.71c-2.3,0-4.61,0-6.91,0,.02-4.54-.02-9.08,0-13.62,2.3,0,4.61,0,6.91,0,0-2.23,0-4.48,0-6.71,2.23,0,4.48,0,6.71,0,.03-9.07-.04-18.16,0-27.23,2.3,0,4.61,0,6.91,0,0-2.3,0-4.61,0-6.91,2.23,0,4.48,0,6.71,0,0-2.23-.01-4.48,0-6.71,2.3-.01,4.61.01,6.91,0,.02,4.54-.01,9.08,0,13.62h6.71v-6.91h6.91v-20.33h-6.91v13.62c-2.23,0-4.48-.01-6.71,0,0-2.3,0-4.61,0-6.91-2.3,0-4.61,0-6.91,0-.01-2.23,0-4.48,0-6.71h-6.71v6.71c2.23,0,4.48,0,6.71,0,.01,2.3.01,4.61,0,6.91-2.23.01-4.48,0-6.71,0,0,2.23,0,4.48,0,6.71-2.3,0-4.61,0-6.91,0,0,2.3.01,4.61,0,6.91-2.23,0-4.48,0-6.71,0v-6.91h-13.62v-6.71h13.62v-6.91h-6.91v-6.71c-4.54-.01-9.08.02-13.62,0,.01-2.3.01-4.61,0-6.91,2.3,0,4.61,0,6.91,0v-13.62h-6.91v-6.71h6.91V13.81h-6.91v6.71h-6.71c0,2.3,0,4.61,0,6.91,2.23,0,4.48,0,6.71,0v6.71h-6.71c0-2.23,0-4.48,0-6.71-2.3,0-4.61,0-6.91,0,0,4.54,0,9.08,0,13.62-2.23,0-4.48,0-6.71,0v-6.91h-6.91c0-2.23.01-4.48,0-6.71,2.3,0,4.61,0,6.91,0v-6.91c-2.3,0-4.61,0-6.91,0-.01-2.23,0-4.48,0-6.71h-27.23v6.71c-2.23,0-4.48,0-6.71,0,.01,2.3,0,4.61,0,6.91,2.23,0,4.48,0,6.71,0v13.62h-6.71c0-4.54,0-9.08,0-13.62-2.3,0-4.61,0-6.91,0v-6.91c2.3,0,4.61,0,6.91,0ZM211.35,13.81h-47.76v47.56h47.76V13.81ZM75.19,54.66h-6.91v6.71h6.91v-6.71ZM204.45,170.31c2.3,0,4.61,0,6.91,0v-40.85h-6.91v-6.71h6.91v-20.52h-13.62v6.91h-6.91v6.71h6.91v13.62c-2.3,0-4.61,0-6.91,0,0-2.23,0-4.48,0-6.71h-6.71v6.71c2.23,0,4.48,0,6.71,0,0,2.3,0,4.61,0,6.91h6.91v6.71h6.71v13.62h-6.71c0,2.3,0,4.61,0,6.91-2.3,0-4.61,0-6.91,0v6.71c2.3,0,4.61,0,6.91,0,0,2.3,0,4.61,0,6.91h6.71c0-2.3,0-4.61,0-6.91ZM61.57,163.6H13.81v47.56h47.76v-47.56ZM81.9,204.45h-6.71v6.71h6.71v-6.71Z"/>
      <path class="cls-1" d="M47.95,102.22c4.54,0,9.08,0,13.62,0,0,2.3,0,4.61,0,6.91-4.54,0-9.08,0-13.62,0-.01-2.3,0-4.61,0-6.91Z"/>
      <path class="cls-1" d="M54.66,136.36c0-2.3,0-4.61,0-6.91h6.91c0,2.3,0,4.61,0,6.91-2.3,0-4.61,0-6.91,0Z"/>
      <path class="cls-1" d="M41.05,74.99c2.3,0,4.61,0,6.91,0,0,4.54,0,9.08,0,13.62h-13.62v-6.71h6.71c0-2.3,0-4.61,0-6.91Z"/>
      <path class="cls-1" d="M54.66,136.36c0,2.23,0,4.48,0,6.71-2.23,0-4.48,0-6.71,0,0-2.23,0-4.48,0-6.71,2.23,0,4.48,0,6.71,0Z"/>
      <path class="cls-1" d="M109.13,27.43c-2.23-.01-4.48,0-6.71,0v-6.91h6.71c0,2.3,0,4.61,0,6.91,2.3.01,4.61,0,6.91,0,0-2.3,0-4.61,0-6.91,2.23,0,4.48,0,6.71,0,.01,2.3-.01,4.61,0,6.91-2.23,0-4.48,0-6.71,0-.02,4.53-.02,9.08,0,13.62,2.23,0,4.48,0,6.71,0v6.71h-6.71c0-2.23,0-4.48,0-6.71-4.54-.02-9.08.01-13.62,0v-6.91h6.71c0-2.23,0-4.48,0-6.71Z"/>
      <path class="cls-1" d="M88.8,61.37c.01-4.54,0-9.08,0-13.62h13.62c0,2.3,0,4.61,0,6.91-2.3,0-4.61,0-6.91,0,0,2.23.01,4.48,0,6.71-2.23,0-4.48,0-6.71,0Z"/>
      <path class="cls-1" d="M102.42,54.66c2.23,0,4.48,0,6.71,0v6.71c2.3,0,4.61,0,6.91,0-.02,4.54.01,9.08,0,13.62h-20.52c.01-4.54-.02-9.08,0-13.62,2.3,0,4.61,0,6.91,0,0-2.23,0-4.48,0-6.71Z"/>
      <path class="cls-1" d="M116.04,61.37c0-2.23,0-4.48,0-6.71h6.71c0,2.23,0,4.48,0,6.71-2.23,0-4.48,0-6.71,0Z"/>
      <path class="cls-1" d="M143.27,61.37c0-2.23,0-4.48,0-6.71h6.71c0,2.23-.01,4.48,0,6.71-2.23,0-4.48,0-6.71,0Z"/>
      <path class="cls-1" d="M81.9,74.99c.01,2.3.01,4.61,0,6.91-2.23,0-4.48,0-6.71,0v-6.91c2.23,0,4.48,0,6.71,0Z"/>
      <path class="cls-1" d="M136.36,41.05c2.3,0,4.61,0,6.91,0v6.71c-2.3,0-4.61,0-6.91,0,0-2.23,0-4.48,0-6.71Z"/>
      <path class="cls-1" d="M61.57,74.99c.01,2.3.01,4.61,0,6.91-2.3,0-4.61,0-6.91,0v-6.91c2.3,0,4.61,0,6.91,0Z"/>
      <path class="cls-1" d="M136.36,47.76c0,4.54,0,9.08,0,13.62,2.3,0,4.61-.01,6.91,0,0,2.3,0,4.61,0,6.91,2.23,0,4.48-.01,6.71,0-.01,2.23,0,4.48,0,6.71h-6.71v6.91h-13.62v6.71h20.33v27.23h20.52c0,2.3,0,4.61,0,6.91-2.3,0-4.61,0-6.91,0,0,2.23.01,4.48,0,6.71-2.23,0-4.48,0-6.71,0v13.62c2.23,0,4.48,0,6.71,0,0,2.3,0,4.61,0,6.91-4.54,0-9.08,0-13.62,0,0-2.3,0-4.61,0-6.91-2.23,0-4.48.01-6.71,0-.01-2.23,0-4.48,0-6.71h-6.91c0,2.23,0,4.48,0,6.71-2.23.01-4.48,0-6.71,0-.01,4.54.02,9.08,0,13.62-2.3,0-4.61,0-6.91,0,0,2.3,0,4.61,0,6.91-2.23,0-4.48,0-6.71,0v-6.91c-6.84,0-13.69,0-20.52,0,0-2.23,0-4.48,0-6.71h6.91v-6.91h-6.91v-6.71h-13.62v13.62h-6.71v6.71c-2.3,0-4.61,0-6.91,0-.02-4.54,0-9.08,0-13.62,2.3,0,4.61,0,6.91,0v-6.71c-2.3,0-4.61,0-6.91,0,0-4.54,0-9.08,0-13.62,2.3,0,4.61,0,6.91,0v-13.62c-2.3,0-4.61,0-6.91,0,0-4.54,0-9.08,0-13.62-6.77,0-13.55,0-20.33,0,0-2.3,0-4.61,0-6.91,4.54,0,9.08,0,13.62,0,0-2.23-.01-4.48,0-6.71,2.23,0,4.48,0,6.71,0v6.71h13.62c0-2.23-.01-4.48,0-6.71,6.84.03,13.69-.02,20.52,0v6.71h6.71v-6.71h6.91v6.71h6.71c-.03-9.07.04-18.16,0-27.23,2.3,0,4.61,0,6.91,0v-13.62c2.23,0,4.48,0,6.71,0ZM110.27,93.8c-5.84.63-7.94,4.44-8.26,9.9s-.3,12.38,0,17.58c.33,5.75,2.67,9.5,8.78,9.97,7.7.58,11.9-2.02,12.35-9.97.29-5.23.29-12.35,0-17.58-.46-8.17-5.01-10.74-12.88-9.9ZM90.38,94.53h-9.67v35.92h9.67v-14.01h1.78v14.01h12.43c-2.28-1.84-3.48-4.72-3.72-7.62-.47-5.55-.38-14.5-.03-20.11.2-3.14,1.28-6.17,3.76-8.18h-12.43v13.52c-.42.52-1.18.24-1.78.3v-13.81ZM133.21,94.53h-12.63c2.36,1.82,3.33,4.54,3.72,7.43-.29,6.71.47,13.85.03,20.51-.2,3.02-1.33,6.1-3.76,7.98h12.63v-14.01h1.58v14.01h9.67v-35.92h-9.67v13.81h-1.58v-13.81ZM122.75,136.36h-6.71v13.62h6.71v-13.62Z"/>
      <path class="cls-1" d="M47.95,109.13c.01,2.23,0,4.48,0,6.71h13.62c0-2.23,0-4.48,0-6.71,2.23,0,4.48,0,6.71,0,0,4.54,0,9.08,0,13.62-15.85.07-31.71.07-47.56,0,0-2.3,0-4.61,0-6.91h6.71c0-2.23,0-4.48,0-6.71,6.84.03,13.69,0,20.52,0Z"/>
      <path class="cls-1" d="M68.28,136.36c0,2.23,0,4.48,0,6.71-2.23,0-4.48,0-6.71,0,0-2.23,0-4.48,0-6.71,2.23,0,4.48,0,6.71,0Z"/>
      <path class="cls-1" d="M61.57,143.07c0,2.3,0,4.61,0,6.91-2.3,0-4.61-.01-6.91,0-.01-2.3,0-4.61,0-6.91,2.3,0,4.61,0,6.91,0Z"/>
      <path class="cls-1" d="M143.27,143.07c.01,2.3.01,4.61,0,6.91-2.3,0-4.61,0-6.91,0,0-2.3,0-4.61,0-6.91,2.3-.01,4.61-.01,6.91,0Z"/>
      <path class="cls-1" d="M149.98,149.98c.02,4.54-.01,9.08,0,13.62h-13.62c0,2.23,0,4.48,0,6.71-4.54-.01-9.08,0-13.62,0,0-2.23,0-4.48,0-6.71,2.3,0,4.61,0,6.91,0,0-2.3-.01-4.61,0-6.91,4.54-.02,9.08.01,13.62,0,0-2.23-.01-4.48,0-6.71,2.23,0,4.48,0,6.71,0Z"/>
      <path class="cls-1" d="M95.51,177.21c0-2.3,0-4.61,0-6.91h6.91v-6.71h6.71v40.85h-6.71v-6.91c-2.3,0-4.61,0-6.91,0,0-2.23,0-4.48,0-6.71h-13.62v-6.91c-2.23,0-4.48,0-6.71,0,0-2.23,0-4.48,0-6.71,6.77.02,13.56-.03,20.33,0,0,2.23,0,4.48,0,6.71h6.91v-6.71c-2.3,0-4.61,0-6.91,0Z"/>
      <path class="cls-1" d="M197.74,163.6c2.23,0,4.48,0,6.71,0,0,2.23,0,4.48,0,6.71-2.23,0-4.48,0-6.71,0,0-2.23,0-4.48,0-6.71Z"/>
      <path d="M170.5,122.75c0,2.23,0,4.48,0,6.71-2.3,0-4.61,0-6.91,0,0-2.23,0-4.48,0-6.71,2.3,0,4.61,0,6.91,0Z"/>
      <path d="M95.51,61.37c-.02,4.54.01,9.08,0,13.62h20.52c.01-4.54-.02-9.08,0-13.62,2.23,0,4.48,0,6.71,0,.04,9.07-.03,18.16,0,27.23h-6.71v-6.71h-6.91v6.71h-6.71v-6.71c-6.84-.02-13.69.03-20.52,0,.01-2.3.01-4.61,0-6.91,2.3,0,4.61,0,6.91,0,0-4.54-.01-9.08,0-13.62,2.23,0,4.48,0,6.71,0Z"/>
      <path d="M149.98,61.37c.01,2.3.01,4.61,0,6.91-2.23,0-4.48,0-6.71,0,0-2.3,0-4.61,0-6.91,2.23,0,4.48,0,6.71,0Z"/>
      <path d="M41.05,74.99c0-2.23,0-4.48,0-6.71h20.52c0,2.23-.01,4.48,0,6.71-2.3,0-4.61,0-6.91,0v6.91c2.3,0,4.61,0,6.91,0-.01,2.23,0,4.48,0,6.71-4.54,0-9.08,0-13.62,0,0-4.54,0-9.08,0-13.62-2.3,0-4.61,0-6.91,0Z"/>
      <path d="M61.57,74.99c2.23,0,4.48,0,6.71,0v-6.71h13.62c0,2.23-.01,4.48,0,6.71-2.23,0-4.48,0-6.71,0v6.91c2.23,0,4.48,0,6.71,0-.01,2.23,0,4.48,0,6.71h-13.62v-6.71c-2.23,0-4.48,0-6.71,0,.01-2.3.01-4.61,0-6.91Z"/>
      <path d="M149.98,68.28c4.54.02,9.08-.01,13.62,0v6.71h6.91v6.91h-13.62v6.71h13.62v6.91c2.23,0,4.48,0,6.71,0,0-2.3,0-4.61,0-6.91,2.3,0,4.61,0,6.91,0,0-2.23,0-4.48,0-6.71,2.23,0,4.48.01,6.71,0,.01-2.3.01-4.61,0-6.91-2.23,0-4.48,0-6.71,0v-6.71h6.71c0,2.23-.01,4.48,0,6.71,2.3,0,4.61,0,6.91,0,0,2.3-.01,4.61,0,6.91,2.23-.01,4.48,0,6.71,0v-13.62h6.91v20.33h-6.91v6.91h-6.71c-.01-4.54.02-9.08,0-13.62-2.3.01-4.61-.01-6.91,0-.01,2.23,0,4.48,0,6.71-2.23,0-4.48,0-6.71,0,0,2.3,0,4.61,0,6.91-2.3,0-4.61,0-6.91,0-.04,9.07.03,18.16,0,27.23-2.23,0-4.48,0-6.71,0,0-2.3,0-4.61,0-6.91h-20.52v-27.23h-20.33v-6.71h13.62v-6.91h6.71c0-2.23-.01-4.48,0-6.71ZM163.6,95.51h-6.71v6.71h6.71v-6.71Z"/>
      <path d="M20.72,88.61c.02-4.54-.01-9.08,0-13.62h6.71v-6.71h6.91v6.71c2.23,0,4.48,0,6.71,0,0,2.3,0,4.61,0,6.91h-6.71v6.71h13.62c0,2.3,0,4.61,0,6.91-6.84,0-13.69,0-20.52,0v-6.91c-2.23,0-4.48,0-6.71,0,0,2.3,0,4.61,0,6.91h-6.91v-6.91c2.3,0,4.61,0,6.91,0Z"/>
      <path d="M68.28,122.75c0,4.54,0,9.08,0,13.62-2.23,0-4.48,0-6.71,0,0-2.3,0-4.61,0-6.91h-6.91c0,2.3,0,4.61,0,6.91-2.23,0-4.48,0-6.71,0,0-2.3,0-4.61,0-6.91h-20.52v6.91c-2.23,0-4.48,0-6.71,0,0,2.23,0,4.48,0,6.71,2.23,0,4.48,0,6.71,0v6.91c-2.23,0-4.48,0-6.71,0-.01,2.23,0,4.48,0,6.71h-6.91v-6.71c2.3,0,4.61,0,6.91,0,.01-2.3,0-4.61,0-6.91-2.3,0-4.61,0-6.91,0v-6.71c2.3,0,4.61,0,6.91,0,0-4.54-.02-9.08,0-13.62,15.85.07,31.71.07,47.56,0Z"/>
      <path d="M68.28,109.13c2.3,0,4.61,0,6.91,0v13.62c-2.3,0-4.61,0-6.91,0,0-4.54,0-9.08,0-13.62Z"/>
      <path d="M47.95,95.51c6.77,0,13.55,0,20.33,0,0,4.54,0,9.08,0,13.62-2.23,0-4.48,0-6.71,0,0-2.3,0-4.61,0-6.91-4.54,0-9.08,0-13.62,0,0-2.23,0-4.48,0-6.71Z"/>
      <path d="M61.57,109.13c0,2.23,0,4.48,0,6.71h-13.62c0-2.23.01-4.48,0-6.71,4.54,0,9.08,0,13.62,0Z"/>
      <path d="M20.72,122.75c-2.3,0-4.61,0-6.91,0v-20.52h6.91v6.91c2.23,0,4.48,0,6.71,0,0,2.23,0,4.48,0,6.71h-6.71c0,2.3,0,4.61,0,6.91Z"/>
      <path d="M47.95,102.22c0,2.3-.01,4.61,0,6.91-6.84,0-13.69.03-20.52,0,0-2.3,0-4.61,0-6.91,6.84,0,13.69,0,20.52,0Z"/>
      <path d="M88.8,61.37c-2.3,0-4.61,0-6.91,0v-13.62h-6.71v-6.71h-6.91v-6.91h6.91v-13.62h-6.91v-6.71h20.52c0,2.23-.01,4.48,0,6.71-2.3,0-4.61,0-6.91,0v6.91c2.3,0,4.61,0,6.91,0,0,4.54,0,9.08,0,13.62h6.71v-13.62c-2.23,0-4.48,0-6.71,0,0-2.3.01-4.61,0-6.91,2.23,0,4.48,0,6.71,0v-6.71h27.23c0,2.23-.01,4.48,0,6.71-2.23,0-4.48,0-6.71,0,0,2.3.01,4.61,0,6.91-2.3,0-4.61.01-6.91,0,0-2.3,0-4.61,0-6.91h-6.71v6.91c2.23,0,4.48-.01,6.71,0,0,2.23,0,4.48,0,6.71h-6.71v6.91c4.54.01,9.08-.02,13.62,0,0,2.23,0,4.48,0,6.71h6.71v-6.71c-2.23,0-4.48,0-6.71,0-.02-4.53-.02-9.08,0-13.62,2.23,0,4.48,0,6.71,0,.01,2.23,0,4.48,0,6.71h6.91v6.91c2.23,0,4.48,0,6.71,0,0,2.23,0,4.48,0,6.71-2.23,0-4.48,0-6.71,0v13.62c-2.3,0-4.61,0-6.91,0,0-2.23,0-4.48,0-6.71h-6.71c0,2.23,0,4.48,0,6.71-2.3,0-4.61,0-6.91,0v-6.71c-2.23,0-4.48,0-6.71,0,0-2.3,0-4.61,0-6.91h-13.62c0,4.54.01,9.08,0,13.62Z"/>
      <path d="M143.27,27.43c0-2.3,0-4.61,0-6.91h6.71v-6.71h6.91v27.23h-6.91v6.71h6.91v13.62c-2.3,0-4.61,0-6.91,0-.01-2.23,0-4.48,0-6.71h-6.71c0,2.23,0,4.48,0,6.71-2.3,0-4.61,0-6.91,0,0-4.54,0-9.08,0-13.62,2.3,0,4.61,0,6.91,0v-6.71c-2.3,0-4.61,0-6.91,0,0-4.54,0-9.08,0-13.62,2.3,0,4.61,0,6.91,0,0,2.23,0,4.48,0,6.71h6.71v-6.71c-2.23,0-4.48,0-6.71,0Z"/>
      <path d="M68.28,136.36c2.3,0,4.61,0,6.91,0v6.71c-2.3,0-4.61,0-6.91,0,0-2.23,0-4.48,0-6.71Z"/>
      <path d="M68.28,156.69c2.3,0,4.61,0,6.91,0v-6.71h6.71v-13.62h13.62v6.71h6.91v6.91h-6.91c0,2.23,0,4.48,0,6.71-4.54,0-9.08,0-13.62,0v6.91h-13.62c0-2.3,0-4.61,0-6.91Z"/>
      <path d="M136.36,143.07c0-2.23,0-4.48,0-6.71h6.91c0,2.23-.01,4.48,0,6.71-2.3-.01-4.61-.01-6.91,0Z"/>
      <path d="M163.6,143.07c2.3,0,4.61,0,6.91,0v-6.71h13.62v40.85h6.71c0,2.23,0,4.48,0,6.71,2.3,0,4.61,0,6.91,0,0,4.54-.01,9.08,0,13.62,2.23,0,4.48,0,6.71,0,0-2.23,0-4.48,0-6.71h6.91v6.71c-2.3,0-4.61,0-6.91,0,0,2.3,0,4.61,0,6.91h6.91v6.71h-13.62c0-4.54.01-9.08,0-13.62-2.3,0-4.61,0-6.91,0-.01-4.54.02-9.08,0-13.62-2.23,0-4.48,0-6.71,0v13.62h-6.91c0,2.3,0,4.61,0,6.91,2.3,0,4.61,0,6.91,0v6.71h-6.91c0-2.23,0-4.48,0-6.71-4.54-.02-9.08.01-13.62,0v-6.91h6.91v-6.71h6.71v-6.91h-13.62v6.91c-4.54.01-9.08-.02-13.62,0,0,6.77,0,13.55,0,20.33h-6.71v-6.71h-13.62v-6.91h13.62v-6.71c2.23,0,4.48,0,6.71,0,0-6.84,0-13.69,0-20.52-4.54,0-9.08.01-13.62,0,0-2.23,0-4.48,0-6.71h13.62c-.01-4.54.02-9.08,0-13.62,4.54,0,9.08,0,13.62,0,0-2.3-.01-4.61,0-6.91ZM177.21,156.69h-20.33v20.52h20.33v-20.52Z"/>
      <path d="M54.66,143.07c0,2.3-.01,4.61,0,6.91-2.23,0-4.48,0-6.71,0-.01,2.23,0,4.48,0,6.71h-6.91v-6.71c2.3,0,4.61,0,6.91,0,.01-2.3,0-4.61,0-6.91,2.23,0,4.48,0,6.71,0Z"/>
      <path d="M61.57,136.36c0,2.23,0,4.48,0,6.71-2.3,0-4.61,0-6.91,0,0-2.23,0-4.48,0-6.71,2.3,0,4.61,0,6.91,0Z"/>
      <path d="M68.28,143.07c0,4.54-.02,9.08,0,13.62-4.54.02-9.08-.02-13.62,0,0-2.23.01-4.48,0-6.71,2.3,0,4.61,0,6.91,0,0-2.3-.01-4.61,0-6.91,2.23,0,4.48,0,6.71,0Z"/>
      <path d="M136.36,143.07c0,2.3,0,4.61,0,6.91,2.3,0,4.61-.01,6.91,0-.01,2.23,0,4.48,0,6.71-4.54.01-9.08-.02-13.62,0,.02-4.54-.01-9.08,0-13.62,2.23,0,4.48.01,6.71,0Z"/>
      <path d="M47.95,136.36c0,2.23,0,4.48,0,6.71-2.3,0-4.61,0-6.91,0v-6.71c2.3,0,4.61,0,6.91,0Z"/>
      <path d="M143.27,143.07c2.23.01,4.48,0,6.71,0,0,2.3-.01,4.61,0,6.91-2.23,0-4.48,0-6.71,0,.01-2.3.01-4.61,0-6.91Z"/>
      <path d="M163.6,129.46c-.02,4.54.02,9.08,0,13.62-2.23,0-4.48,0-6.71,0v-13.62c2.23,0,4.48,0,6.71,0Z"/>
      <path d="M95.51,156.69c6.84,0,13.69,0,20.52,0v6.91c2.23,0,4.48,0,6.71,0,0,2.23,0,4.48,0,6.71,4.54,0,9.08-.01,13.62,0,0,2.3,0,4.61,0,6.91h-20.33v13.62c2.23,0,4.48,0,6.71,0,0-2.3,0-4.61,0-6.91h6.91v6.91c-2.3,0-4.61,0-6.91,0-.02,4.54.01,9.08,0,13.62h-6.71v6.71h-27.23v-6.71h6.71c0-2.3,0-4.61,0-6.91,2.3,0,4.61,0,6.91,0v6.91h6.71v-40.85h-6.71v6.71h-6.91c0,2.3,0,4.61,0,6.91,2.3,0,4.61,0,6.91,0v6.71h-6.91c0-2.23,0-4.48,0-6.71-6.77-.03-13.56.02-20.33,0,0,2.23,0,4.48,0,6.71-2.3,0-4.61,0-6.91,0v-13.62h20.52v-6.71h6.71c0-2.3,0-4.61,0-6.91Z"/>
      <path d="M129.65,156.69c0,2.3,0,4.61,0,6.91-2.3,0-4.61,0-6.91,0,0-2.3,0-4.61,0-6.91,2.3,0,4.61.01,6.91,0Z"/>
      <path d="M122.75,20.52c2.3,0,4.61,0,6.91,0v6.91c-2.3,0-4.61,0-6.91,0-.01-2.3.01-4.61,0-6.91Z"/>
      <path d="M102.42,54.66c0,2.23,0,4.48,0,6.71-2.3,0-4.61-.01-6.91,0,0-2.23,0-4.48,0-6.71,2.3,0,4.61,0,6.91,0Z"/>
      <path d="M75.19,183.92c2.23,0,4.48,0,6.71,0v6.91h13.62c0,2.23,0,4.48,0,6.71-9.07-.04-18.16.03-27.23,0v-6.71h6.91c0-2.3,0-4.61,0-6.91Z"/>
      <path d="M61.57,13.81v47.56H13.81V13.81h47.76ZM54.47,20.92H20.92v33.35h33.55V20.92Z"/>
      <path d="M211.35,13.81v47.56h-47.76V13.81h47.76ZM204.25,20.92h-33.55v33.35h33.55V20.92Z"/>
      <path d="M61.57,163.6v47.56H13.81v-47.56h47.76ZM54.47,170.7H20.92v33.35h33.55v-33.35Z"/>
      <path d="M190.83,129.46c2.3,0,4.61,0,6.91,0v-13.62h-6.91v-6.71h6.91v-6.91h13.62v20.52h-6.91v6.71h6.91v40.85c-2.3,0-4.61,0-6.91,0,0-2.23,0-4.48,0-6.71-2.23,0-4.48,0-6.71,0,0-2.3,0-4.61,0-6.91h6.71v-13.62h-6.71v-6.71h-6.91c0-2.3,0-4.61,0-6.91-2.23,0-4.48,0-6.71,0v-6.71h6.71c0,2.23,0,4.48,0,6.71Z"/>
      <path d="M197.74,163.6c0,2.23,0,4.48,0,6.71-2.3,0-4.61,0-6.91,0v-6.71c2.3,0,4.61,0,6.91,0Z"/>
      <path d="M204.45,170.31c0,2.3,0,4.61,0,6.91h-6.71c0-2.3,0-4.61,0-6.91,2.23,0,4.48,0,6.71,0Z"/>
      <rect x="68.28" y="54.66" width="6.91" height="6.71"/>
      <rect x="75.19" y="204.45" width="6.71" height="6.71"/>
      <path class="cls-1" d="M177.21,156.69v20.52h-20.33v-20.52h20.33ZM170.5,163.6h-6.91v6.71h6.91v-6.71Z"/>
      <rect class="cls-1" x="156.89" y="95.51" width="6.71" height="6.71"/>
      <path class="cls-1" d="M54.47,20.92v33.35H20.92V20.92h33.55ZM47.95,27.43h-20.52v20.33h20.52v-20.33Z"/>
      <path class="cls-1" d="M204.25,20.92v33.35h-33.55V20.92h33.55ZM197.74,27.43h-20.52v20.33h20.52v-20.33Z"/>
      <path class="cls-1" d="M54.47,170.7v33.35H20.92v-33.35h33.55ZM47.95,177.21h-20.52v20.33h20.52v-20.33Z"/>
      <path d="M133.21,94.53v13.81h1.58v-13.81h9.67v35.92h-9.67v-14.01h-1.58v14.01h-12.63c2.43-1.88,3.56-4.96,3.76-7.98.43-6.66-.32-13.8-.03-20.51-.39-2.89-1.37-5.6-3.72-7.43h12.63Z"/>
      <path d="M90.38,94.53v13.81c.6-.06,1.36.22,1.78-.3v-13.52h12.43c-2.48,2.01-3.56,5.04-3.76,8.18-.35,5.61-.43,14.56.03,20.11.24,2.9,1.45,5.78,3.72,7.62h-12.43v-14.01h-1.78v14.01h-9.67v-35.92h9.67Z"/>
      <path d="M110.27,93.8c7.87-.85,12.42,1.73,12.88,9.9.29,5.23.29,12.35,0,17.58-.45,7.95-4.65,10.55-12.35,9.97-6.11-.46-8.45-4.22-8.78-9.97-.3-5.2-.3-12.38,0-17.58.31-5.46,2.42-9.27,8.26-9.9ZM113.47,102.62h-1.78v19.73h1.78v-19.73Z"/>
      <rect x="116.04" y="136.36" width="6.71" height="13.62"/>
      <rect x="163.6" y="163.6" width="6.91" height="6.71"/>
      <rect x="27.43" y="27.43" width="20.52" height="20.33"/>
      <rect x="177.21" y="27.43" width="20.52" height="20.33"/>
      <rect x="27.43" y="177.21" width="20.52" height="20.33"/>
      <rect class="cls-1" x="111.7" y="102.62" width="1.78" height="19.73"/>
    </g>
  </g>
</svg>