<?xml version="1.0" encoding="UTF-8"?>
<svg id="Layer_2" data-name="Layer 2" xmlns="http://www.w3.org/2000/svg" viewBox="0 0 281.09 281.15">
  <defs>
    <style>
      .cls-1 {
        fill: #fcfcfc;
      }
    </style>
  </defs>
  <g id="Layer_2-2" data-name="Layer 2">
    <g>
      <path class="cls-1" d="M259.82,198.36c15.43-31.87,17.54-67.84,5.92-101.29-11.62-33.45-35.57-60.37-67.44-75.8-18.29-8.86-37.94-13.33-57.68-13.33-14.65,0-29.36,2.46-43.61,7.41C27.96,39.34-8.7,115.03,15.29,184.08c23.99,69.05,99.68,105.71,168.73,81.72,33.45-11.62,60.37-35.57,75.8-67.44ZM160.74,41.16c11.91-3.59,28.78,17.41,37.68,46.92,8.9,29.51,6.47,56.34-5.44,59.93s-28.78-17.41-37.68-46.92-6.47-56.34,5.44-59.93ZM63,75.11c11.57-4.56,30.12,14.98,41.42,43.66,11.31,28.67,11.09,55.62-.47,60.18s-30.12-14.98-41.42-43.66c-11.31-28.67-11.09-55.62.48-60.18ZM198.41,226.88l-22.45-16.11-1.47,27.61-18.27-20.76-7.63,26.56-13.1-24.34-13.46,24.14-7.24-26.67-18.56,20.48-1.07-27.62s-20.63,14.69-22.68,15.81l5.12-27.16-25.64,10.34,11.08-25.32c2.16,2.74,4.43,5.39,6.85,7.9.6.63,1.24,1.23,1.86,1.84l.93.92.97.88c.65.58,1.28,1.19,1.94,1.75l2,1.69.5.42.52.4,1.03.8,1.03.81c.34.27.71.51,1.06.77.71.51,1.41,1.02,2.13,1.52l2.18,1.44c.72.5,1.48.93,2.22,1.39.75.45,1.48.92,2.25,1.33l2.29,1.28,2.33,1.19c.77.41,1.57.76,2.36,1.13.8.36,1.57.75,2.39,1.07l2.42,1.01c.81.32,1.64.61,2.45.92,3.28,1.18,6.62,2.23,10.02,3.01l1.27.31,1.28.26,1.28.26c.43.09.85.19,1.28.25l2.58.43c.43.08.86.13,1.29.18l1.3.16,1.3.16c.43.05.87.08,1.3.12.87.07,1.73.16,2.6.22,1.74.07,3.48.19,5.22.17,1.74.05,3.48-.05,5.22-.09.87-.05,1.74-.12,2.61-.18l1.3-.1,1.3-.15c3.47-.34,6.9-.96,10.3-1.71l2.54-.6c.85-.21,1.68-.47,2.52-.7l1.26-.35c.42-.12.83-.27,1.25-.4l2.49-.81,2.46-.91c.41-.15.82-.3,1.23-.46l1.21-.51c.8-.34,1.62-.66,2.41-1.02l2.37-1.1c3.13-1.53,6.21-3.17,9.14-5.05l1.11-.69,1.08-.73c.72-.49,1.45-.97,2.16-1.47,1.39-1.04,2.82-2.05,4.16-3.16,1.38-1.06,2.67-2.24,3.99-3.37.64-.59,1.27-1.19,1.91-1.79.31-.3.64-.59.95-.9l.91-.93.92-.93c.31-.31.61-.62.9-.95l1.76-1.93c.3-.32.57-.66.85-.99l.84-1,.84-1,.8-1.03c2.18-2.72,4.14-5.61,5.99-8.57.45-.75.91-1.49,1.35-2.24l1.27-2.29c.44-.75.81-1.55,1.21-2.32.39-.78.8-1.55,1.15-2.35l1.1-2.38,1-2.42c.35-.8.64-1.63.94-2.44.3-.82.63-1.63.88-2.46l.82-2.49c.25-.84.48-1.68.72-2.52.12-.42.25-.84.35-1.26l.31-1.27.31-1.27.16-.64.13-.64.53-2.56c.17-.86.29-1.72.44-2.58l.22-1.29.16-1.3c.1-.87.23-1.73.31-2.6.35-3.47.48-6.96.48-10.45l24.39,12.99-26.53,7.78,20.86,18.13c-2.3.39-27.59,1.65-27.59,1.65l16.28,22.33-27.26-4.56,10.86,25.42-25.53-10.59,4.81,27.22Z"/>
      <path d="M266.96,201.82c16.36-33.78,18.59-71.9,6.27-107.35-12.32-35.45-37.7-63.98-71.48-80.34C167.98-2.23,129.86-4.46,94.4,7.85,21.22,33.28-17.63,113.5,7.79,186.68c12.32,35.45,37.7,63.98,71.48,80.34,19.39,9.39,40.21,14.12,61.13,14.12,15.53,0,31.12-2.61,46.22-7.85,35.45-12.32,63.98-37.7,80.34-71.48ZM15.29,184.08C-8.7,115.03,27.96,39.34,97.01,15.35c14.25-4.95,28.95-7.41,43.61-7.41,19.74,0,39.39,4.47,57.68,13.33,31.87,15.44,55.82,42.36,67.44,75.8,11.62,33.45,9.52,69.42-5.92,101.29-15.44,31.87-42.36,55.82-75.8,67.44-69.05,23.99-144.74-12.67-168.73-81.72Z"/>
      <ellipse cx="83.47" cy="127.03" rx="22.52" ry="55.81" transform="translate(-40.78 39.48) rotate(-21.52)"/>
      <path d="M192.99,148.01c11.91-3.59,14.34-30.43,5.44-59.93-8.9-29.51-25.78-50.52-37.68-46.92s-14.34,30.43-5.44,59.93,25.78,50.52,37.68,46.92Z"/>
      <path d="M171.18,212.89l-1.21.51c-.41.16-.82.3-1.23.46l-2.46.91-2.49.81c-.42.13-.83.28-1.25.4l-1.26.35c-.84.23-1.68.49-2.52.7l-2.54.6,18.27,20.76,1.47-27.61-2.37,1.1c-.79.36-1.61.68-2.41,1.02Z"/>
      <path d="M187.29,204.3l-1.08.73-1.11.69c-2.93,1.89-6.01,3.52-9.14,5.05l22.45,16.11-4.81-27.22c-1.34,1.12-2.76,2.12-4.16,3.16-.71.5-1.44.98-2.16,1.47Z"/>
      <path d="M208.28,184.84l-.8,1.03-.84,1-.84,1c-.28.33-.55.67-.85.99l-1.76,1.93c-.29.33-.59.64-.9.95l-.92.93-.91.93c-.31.31-.63.6-.95.9-.64.59-1.26,1.2-1.91,1.79-1.32,1.13-2.61,2.31-3.99,3.37l25.53,10.59-10.86-25.42Z"/>
      <path d="M219.26,167.07c-.35.8-.76,1.57-1.15,2.35-.4.77-.77,1.57-1.21,2.32l-1.27,2.29c-.44.75-.91,1.49-1.35,2.24-1.85,2.96-3.81,5.85-5.99,8.57l27.26,4.56-16.28-22.33Z"/>
      <path d="M225.99,147.28l-.13.64-.16.64-.31,1.27-.31,1.27c-.1.42-.24.84-.35,1.26-.24.84-.47,1.68-.72,2.52l-.82,2.49c-.25.84-.59,1.64-.88,2.46-.31.82-.59,1.64-.94,2.44l-1,2.42-1.1,2.38s25.29-1.27,27.59-1.65l-20.86-18.13Z"/>
      <path d="M228.13,126.5c0,3.49-.13,6.98-.48,10.45-.08.87-.21,1.73-.31,2.6l-.16,1.3-.22,1.29c-.15.86-.27,1.72-.44,2.58l-.53,2.56,26.53-7.78-24.39-12.99Z"/>
      <path d="M144.62,219.48l-1.3.1c-.87.06-1.74.13-2.61.18-1.74.05-3.48.14-5.22.09l13.1,24.34,7.63-26.56c-3.4.74-6.84,1.37-10.3,1.71l-1.3.15Z"/>
      <path d="M127.67,219.46c-.43-.04-.87-.07-1.3-.12l-1.3-.16-1.3-.16c-.43-.05-.86-.1-1.29-.18l-2.58-.43c-.43-.06-.86-.16-1.28-.25l-1.28-.26-1.28-.26-1.27-.31,7.24,26.67,13.46-24.14c-1.74.02-3.48-.1-5.22-.17-.87-.06-1.74-.15-2.6-.22Z"/>
      <path d="M102.32,213.39l-2.42-1.01c-.81-.32-1.59-.71-2.39-1.07-.79-.37-1.59-.72-2.36-1.13l1.07,27.62,18.56-20.48c-3.4-.78-6.73-1.84-10.02-3.01-.82-.31-1.64-.6-2.45-.92Z"/>
      <path d="M90.53,207.72c-.77-.41-1.51-.88-2.25-1.33-.74-.46-1.5-.89-2.22-1.39l-2.18-1.44c-.71-.5-1.42-1.02-2.13-1.52-.35-.26-.72-.5-1.06-.77l-1.03-.81-1.03-.8-.52-.4-.5-.42-5.12,27.16c2.05-1.12,22.68-15.81,22.68-15.81l-2.33-1.19-2.29-1.28Z"/>
      <path d="M73.65,195.39l-.97-.88-.93-.92c-.62-.62-1.26-1.21-1.86-1.84-2.43-2.51-4.69-5.16-6.85-7.9l-11.08,25.32,25.64-10.34-2-1.69c-.66-.57-1.29-1.17-1.94-1.75Z"/>
    </g>
  </g>
</svg>